<?xml version="1.0" encoding="utf-8" standalone="no"?>
<!DOCTYPE svg PUBLIC "-//W3C//DTD SVG 1.1//EN"
  "http://www.w3.org/Graphics/SVG/1.1/DTD/svg11.dtd">
<!-- Created with matplotlib (https://matplotlib.org/) -->
<svg height="25pt" version="1.1" viewBox="0 5 201.6 25" width="201.6pt" xmlns="http://www.w3.org/2000/svg" xmlns:xlink="http://www.w3.org/1999/xlink">
 <defs>
  <style type="text/css">
*{stroke-linecap:butt;stroke-linejoin:round;}
  </style>
 </defs>
 <g id="figure_1">
  <g id="patch_1">
  </g>
  <g id="axes_1">
   <g id="text_1">
    <!-- The quick brown fox -->
    <defs>
     <path d="M 4.890625 89.0625 
Q 0.984375 84.96875 9.375 84.375 
L 12.3125 84.375 
L 21.09375 84.375 
L 21.09375 52.9375 
L 21.09375 21.6875 
L 25.59375 22.265625 
Q 26.5625 22.46875 27.046875 22.5625 
Q 27.546875 22.65625 28.125 23.140625 
Q 28.71875 23.640625 28.90625 24.421875 
Q 29.109375 25.203125 29.390625 26.765625 
Q 29.6875 28.328125 29.78125 30.46875 
Q 29.890625 32.625 30.078125 35.9375 
Q 30.28125 39.265625 30.28125 43.453125 
Q 30.28125 47.65625 30.46875 53.515625 
L 30.46875 53.71875 
L 31.0625 84.375 
L 39.84375 84.375 
Q 44.53125 84.375 46.484375 84.953125 
Q 48.4375 85.546875 48.046875 86.921875 
Q 47.265625 88.875 27.046875 89.84375 
Q 6.84375 90.828125 4.890625 89.0625 
z
" id="subject10-84"/>
     <path d="M 6.640625 89.265625 
Q 5.46875 88.484375 6.25 55.078125 
Q 6.640625 31.25 7.328125 26.46875 
Q 8.015625 21.6875 10.546875 21.6875 
Q 13.28125 21.6875 13.859375 24.421875 
Q 14.453125 27.15625 14.453125 38.875 
Q 14.453125 53.328125 16.890625 58.015625 
Q 19.34375 62.703125 26.953125 62.703125 
Q 32.03125 62.703125 33.984375 57.234375 
Q 35.9375 51.765625 35.9375 37.109375 
Q 35.9375 26.5625 36.515625 24.125 
Q 37.109375 21.6875 39.84375 21.6875 
Q 42.578125 21.6875 43.15625 24.421875 
Q 43.75 27.15625 43.75 40.046875 
Q 43.75 51.5625 42.96875 55.859375 
Q 42.1875 60.15625 39.65625 63.484375 
Q 35.546875 68.5625 28.125 68.5625 
Q 20.3125 68.5625 19.34375 66.609375 
Q 15.046875 59.578125 14.0625 76.765625 
Q 13.484375 89.0625 10.546875 89.65625 
Q 7.234375 90.046875 6.640625 89.265625 
z
" id="subject10-104"/>
     <path d="M 12.109375 65.234375 
Q 3.71875 56.84375 4.984375 43.359375 
Q 6.25 29.890625 15.828125 25 
Q 24.21875 20.703125 34.1875 22.859375 
Q 40.828125 24.21875 40.4375 27.734375 
Q 40.4375 28.125 40.234375 28.515625 
Q 39.265625 31.453125 34.1875 29.5 
Q 27.546875 26.953125 20.796875 30.65625 
Q 14.0625 34.375 14.0625 40.625 
Q 14.0625 43.75 16.109375 44.53125 
Q 18.171875 45.3125 28.328125 45.703125 
L 42.390625 46.296875 
L 42.96875 52.734375 
Q 43.75 58.984375 37.703125 64.84375 
Q 31.84375 70.90625 24.90625 70.90625 
Q 17.96875 70.90625 12.109375 65.234375 
z
M 32.421875 60.546875 
Q 36.53125 54.890625 35.0625 53.03125 
Q 33.59375 51.171875 24.796875 51.171875 
Q 16.015625 51.171875 14.25 53.515625 
Q 12.5 55.859375 17.390625 61.328125 
Q 20.703125 65.046875 25.1875 64.75 
Q 29.6875 64.453125 32.421875 60.546875 
z
" id="subject10-101"/>
     <path id="subject10-32"/>
     <path d="M 14.453125 65.625 
Q 8.203125 61.921875 6.046875 50.484375 
Q 3.90625 39.0625 8.015625 30.859375 
Q 11.328125 24.609375 15.140625 22.453125 
Q 18.953125 20.3125 26.765625 20.515625 
L 36.328125 20.703125 
L 36.921875 11.53125 
Q 37.109375 6.0625 38.078125 4.109375 
Q 39.0625 2.15625 41.40625 1.765625 
Q 43.75 1.375 44.34375 3.71875 
Q 45.3125 7.421875 44.734375 34.578125 
Q 44.140625 65.046875 41.796875 67.578125 
Q 40.234375 68.75 37.109375 65.625 
Q 34.96875 63.484375 33.796875 65.625 
Q 32.421875 67.78125 25.1875 67.78125 
Q 17.96875 67.78125 14.453125 65.625 
z
M 33.40625 57.625 
Q 36.71875 52.9375 36.515625 42.875 
Q 36.328125 32.8125 33.015625 28.71875 
Q 30.671875 25.78125 29 25.390625 
Q 27.34375 25 23.640625 26.171875 
Q 16.21875 28.71875 13.875 37.890625 
Q 11.53125 47.078125 16.015625 56.0625 
Q 18.953125 61.53125 24.515625 62.109375 
Q 30.078125 62.703125 33.40625 57.625 
z
" id="subject10-113"/>
     <path d="M 6.640625 69.921875 
Q 5.671875 68.953125 6.640625 49.8125 
Q 7.234375 37.890625 8.109375 33.5 
Q 8.984375 29.109375 11.53125 26.5625 
Q 14.84375 22.65625 20.109375 22.171875 
Q 25.390625 21.6875 29.6875 24.8125 
Q 32.03125 26.765625 33.203125 26.765625 
Q 34.375 26.765625 36.53125 24.8125 
Q 40.828125 20.703125 42 27.546875 
Q 42.96875 33.203125 42.578125 49.03125 
Q 42 70.90625 39.265625 70.90625 
Q 36.328125 70.90625 35.34375 66.5 
Q 34.375 62.109375 34.375 49.421875 
Q 34.375 39.0625 33.6875 36.03125 
Q 33.015625 33.015625 30.078125 31.0625 
Q 26.375 28.515625 24.125 28.21875 
Q 21.875 27.9375 18.75 29.890625 
Q 15.828125 31.640625 14.84375 50.78125 
Q 14.265625 62.109375 13.484375 66.109375 
Q 12.703125 70.125 10.9375 70.515625 
Q 7.8125 70.90625 6.640625 69.921875 
z
" id="subject10-117"/>
     <path d="M 5.671875 85.75 
Q 6.453125 80.859375 9.765625 80.46875 
Q 12.3125 80.28125 12.890625 83.40625 
L 13.09375 84.96875 
Q 13.09375 87.890625 12.203125 88.96875 
Q 11.328125 90.046875 8.984375 90.046875 
Q 6.84375 90.046875 6.0625 89.15625 
Q 5.28125 88.28125 5.671875 85.75 
z
M 8.796875 69.140625 
Q 6.453125 68.5625 5.859375 64.453125 
Q 5.28125 60.359375 5.28125 44.921875 
Q 5.28125 28.515625 5.859375 25.09375 
Q 6.453125 21.6875 9.1875 21.6875 
Q 11.921875 21.6875 12.5 25.203125 
Q 13.09375 28.71875 13.09375 46.09375 
Q 13.09375 70.3125 12.703125 70.3125 
Q 12.5 70.3125 11.90625 70.109375 
Q 11.328125 69.921875 10.453125 69.625 
Q 9.578125 69.34375 8.796875 69.140625 
z
" id="subject10-105"/>
     <path d="M 11.71875 65.234375 
Q 7.421875 61.328125 6.15625 58.390625 
Q 4.890625 55.46875 4.296875 47.65625 
Q 3.71875 39.65625 4.5 36.8125 
Q 5.28125 33.984375 8.984375 29.6875 
Q 14.0625 24.03125 21.78125 22.359375 
Q 29.5 20.703125 33.984375 24.21875 
Q 37.5 26.953125 36.328125 29.09375 
Q 35.15625 31.25 30.859375 29.6875 
Q 23.4375 26.953125 17.671875 32.03125 
Q 11.921875 37.109375 11.53125 44.921875 
Q 11.140625 52.734375 16.40625 60.15625 
Q 19.734375 64.0625 21.390625 64.453125 
Q 23.046875 64.84375 27.546875 63.28125 
Q 33.984375 60.75 35.546875 63.28125 
Q 37.109375 65.828125 34.859375 67.484375 
Q 32.625 69.140625 25.984375 69.921875 
Q 20.90625 70.515625 18.359375 69.734375 
Q 15.828125 68.953125 11.71875 65.234375 
z
" id="subject10-99"/>
     <path d="M 5.671875 55.859375 
Q 5.671875 31.453125 6.15625 26.5625 
Q 6.640625 21.6875 9.375 21.6875 
Q 11.921875 21.6875 12.703125 23.34375 
Q 13.484375 25 13.875 30.859375 
Q 14.65625 40.046875 16.796875 40.625 
Q 17.78125 41.015625 20.609375 38.28125 
Q 23.4375 35.546875 26.375 31.640625 
Q 33.984375 21.6875 38.28125 21.6875 
Q 42.78125 21.6875 42.78125 22.859375 
Q 42.78125 24.421875 33.984375 34.96875 
Q 25.203125 45.515625 25.203125 47.859375 
Q 25.203125 50 32.234375 58.796875 
Q 34.578125 61.71875 35.75 63.375 
Q 36.921875 65.046875 37.3125 66.109375 
Q 37.703125 67.1875 37.3125 67.578125 
Q 36.921875 67.96875 35.75 68.359375 
Q 32.03125 68.953125 24.21875 59.96875 
Q 16.40625 50.984375 15.046875 50.984375 
Q 13.484375 50.984375 13.484375 70.515625 
Q 13.484375 84.1875 12.890625 87.109375 
Q 12.3125 90.046875 9.578125 90.046875 
Q 6.84375 90.046875 6.25 85.25 
Q 5.671875 80.46875 5.671875 55.859375 
z
" id="subject10-107"/>
     <path d="M 6.25 88.484375 
Q 5.28125 87.5 6.0625 54.6875 
L 6.640625 21.6875 
L 12.890625 21.484375 
Q 14.84375 21.296875 20.015625 21.09375 
Q 25.203125 20.90625 26.765625 20.90625 
Q 35.75 20.515625 41.21875 27.640625 
Q 46.6875 34.765625 46.1875 45.015625 
Q 45.703125 55.28125 38.875 63.09375 
Q 31.84375 71.484375 18.75 67.1875 
Q 15.4375 66.015625 14.84375 67.484375 
Q 14.265625 68.953125 14.265625 77.34375 
Q 14.265625 84.96875 13.578125 87.109375 
Q 12.890625 89.265625 10.75 89.265625 
Q 7.03125 89.265625 6.25 88.484375 
z
M 30.078125 61.921875 
Q 32.234375 61.921875 34.96875 55.28125 
Q 37.703125 48.640625 37.703125 42.96875 
Q 37.703125 26.765625 25 26.765625 
Q 18.5625 26.765625 16.40625 30.671875 
Q 14.265625 34.578125 14.265625 46.09375 
Q 14.265625 53.515625 15.046875 56.25 
Q 15.828125 58.984375 18.5625 60.9375 
Q 23.25 63.875 25.59375 62.890625 
Q 28.125 61.921875 30.078125 61.921875 
z
" id="subject10-98"/>
     <path d="M 5.671875 45.3125 
Q 5.671875 28.71875 6.25 25.296875 
Q 6.84375 21.875 9.578125 21.875 
Q 12.109375 21.875 12.796875 24.015625 
Q 13.484375 26.171875 13.484375 35.359375 
Q 13.484375 48.25 15.53125 53.8125 
Q 17.578125 59.375 23.25 61.53125 
Q 29.109375 63.671875 29.109375 66.203125 
Q 29.109375 68.75 24.609375 68.75 
Q 20.125 68.75 17.578125 66.40625 
Q 16.40625 65.4375 15.8125 65.140625 
Q 15.234375 64.84375 14.84375 65.140625 
Q 14.453125 65.4375 14.0625 66.40625 
Q 12.890625 68.75 9.375 68.75 
Q 6.84375 68.75 6.25 65.234375 
Q 5.671875 61.71875 5.671875 45.3125 
z
" id="subject10-114"/>
     <path d="M 15.625 66.015625 
Q 8.59375 61.71875 6.15625 52.921875 
Q 3.71875 44.140625 6.84375 35.640625 
Q 9.96875 27.15625 17.390625 23.640625 
Q 23.640625 20.703125 30.46875 21.578125 
Q 37.3125 22.46875 41.21875 26.5625 
Q 44.734375 30.671875 46.1875 38.484375 
Q 47.65625 46.296875 46.09375 53.125 
Q 43.5625 64.453125 34.46875 68.265625 
Q 25.390625 72.078125 15.625 66.015625 
z
M 35.15625 59.578125 
Q 38.671875 54.5 38.375 44.4375 
Q 38.09375 34.375 34.375 30.671875 
Q 27.34375 23.640625 19.34375 31.0625 
Q 16.609375 33.59375 15.71875 36.421875 
Q 14.84375 39.265625 14.84375 45.3125 
Q 14.84375 55.46875 17.96875 59.578125 
Q 20.90625 63.875 26.5625 63.875 
Q 32.234375 63.875 35.15625 59.578125 
z
" id="subject10-111"/>
     <path d="M 25.59375 54.109375 
Q 20.703125 37.5 18.75 37.5 
Q 16.796875 37.5 16.796875 40.234375 
Q 16.796875 43.171875 12.890625 55.859375 
Q 10.546875 63.484375 8.890625 66.109375 
Q 7.234375 68.75 5.078125 68.75 
Q 1.171875 68.75 1.171875 67.578125 
Q 1.171875 66.015625 8.203125 44.140625 
Q 10.546875 36.71875 12.203125 32.21875 
Q 13.875 27.734375 15.53125 25 
Q 17.1875 22.265625 18.453125 21.875 
Q 19.734375 21.484375 21.1875 23.34375 
Q 22.65625 25.203125 24.015625 28.8125 
Q 25.390625 32.421875 27.34375 38.671875 
Q 32.625 55.46875 33.796875 54.296875 
Q 34.765625 53.328125 40.046875 38.09375 
Q 42.96875 29.296875 44.828125 26.078125 
Q 46.6875 22.859375 48.640625 22.859375 
Q 50.78125 22.859375 52.921875 27.34375 
Q 55.078125 31.84375 58.984375 44.921875 
Q 65.828125 67 64.65625 68.75 
Q 61.328125 74.03125 56.640625 60.75 
Q 55.28125 57.03125 53.90625 51.953125 
Q 49.609375 35.546875 48.25 36.53125 
Q 46.6875 37.3125 43.171875 50.59375 
Q 39.65625 64.0625 37.109375 68.359375 
Q 34.578125 72.65625 31.9375 69.328125 
Q 29.296875 66.015625 25.59375 54.109375 
z
" id="subject10-119"/>
     <path d="M 7.03125 67.390625 
Q 5.671875 66.40625 5.671875 43.953125 
Q 5.671875 28.328125 6.25 25.09375 
Q 6.84375 21.875 9.578125 21.875 
Q 12.3125 21.875 12.890625 24.40625 
Q 13.484375 26.953125 13.484375 38.09375 
Q 13.484375 52.34375 16.015625 57.609375 
Q 18.5625 62.890625 25.390625 62.890625 
Q 31.0625 62.890625 33.015625 57.71875 
Q 34.96875 52.546875 34.96875 37.3125 
Q 34.96875 26.765625 35.546875 24.3125 
Q 36.140625 21.875 38.875 21.875 
Q 41.609375 21.875 42.1875 24.609375 
Q 42.78125 27.34375 42.78125 40.234375 
Q 42.78125 51.765625 42 56.0625 
Q 41.21875 60.359375 38.671875 63.671875 
Q 34.765625 68.75 27.34375 68.75 
Q 20.3125 68.75 17.578125 66.40625 
Q 16.40625 65.4375 15.8125 65.140625 
Q 15.234375 64.84375 14.84375 65.140625 
Q 14.453125 65.4375 14.0625 66.40625 
Q 13.28125 68.359375 10.9375 68.65625 
Q 8.59375 68.953125 7.03125 67.390625 
z
" id="subject10-110"/>
     <path d="M 10.9375 87.3125 
Q 7.8125 83.203125 7.8125 79.109375 
Q 7.8125 75.390625 4.5 71.6875 
Q 2.34375 69.34375 2.25 67.875 
Q 2.15625 66.40625 3.515625 64.265625 
Q 5.859375 60.15625 5.859375 43.359375 
Q 5.859375 21.875 9.765625 21.6875 
Q 10.9375 21.6875 12.3125 22.859375 
Q 15.046875 25 14.265625 38.484375 
Q 12.109375 64.65625 21.09375 65.828125 
Q 24.609375 66.40625 24.421875 67.96875 
Q 24.03125 70.125 19.34375 70.125 
Q 11.71875 70.125 15.4375 80.46875 
Q 17.578125 85.75 22.453125 85.75 
Q 27.34375 85.75 27.34375 88.671875 
Q 27.34375 91.015625 24.015625 91.59375 
Q 20.703125 92.1875 16.703125 90.921875 
Q 12.703125 89.65625 10.9375 87.3125 
z
" id="subject10-102"/>
     <path d="M 3.90625 68.359375 
Q 3.90625 66.21875 9.765625 57.03125 
Q 15.625 47.859375 15.625 46.484375 
Q 15.625 44.734375 8.796875 35.359375 
Q 0.59375 24.03125 2.9375 22.46875 
Q 3.71875 21.875 5.46875 21.875 
Q 8.984375 21.875 13.484375 29.6875 
Q 17.578125 37.3125 19.53125 38.484375 
Q 20.3125 38.875 22.453125 36.71875 
Q 24.609375 34.578125 26.765625 30.859375 
Q 29.109375 26.953125 31.546875 24.40625 
Q 33.984375 21.875 35.546875 21.875 
Q 40.4375 21.875 37.703125 28.125 
Q 36.140625 31.25 32.234375 37.109375 
L 25.203125 47.265625 
L 32.234375 57.421875 
Q 38.875 67.78125 36.921875 69.734375 
Q 33.984375 72.65625 23.828125 57.8125 
Q 22.859375 56.25 22.46875 55.765625 
Q 22.078125 55.28125 21.484375 55.28125 
Q 20.90625 55.28125 20.515625 55.765625 
Q 20.125 56.25 18.953125 57.8125 
Q 10.359375 70.703125 6.640625 70.703125 
Q 3.90625 70.703125 3.90625 68.359375 
z
" id="subject10-120"/>
    </defs>
    <g transform="translate(7.2 26.64)scale(0.2 -0.2)">
     <use xlink:href="#subject10-84"/>
     <use x="49.414062" xlink:href="#subject10-104"/>
     <use x="98.828125" xlink:href="#subject10-101"/>
     <use x="146.09375" xlink:href="#subject10-32"/>
     <use x="171.875" xlink:href="#subject10-113"/>
     <use x="222.460938" xlink:href="#subject10-117"/>
     <use x="270.703125" xlink:href="#subject10-105"/>
     <use x="289.0625" xlink:href="#subject10-99"/>
     <use x="328.90625" xlink:href="#subject10-107"/>
     <use x="371.679688" xlink:href="#subject10-32"/>
     <use x="397.460938" xlink:href="#subject10-98"/>
     <use x="447.851562" xlink:href="#subject10-114"/>
     <use x="477.34375" xlink:href="#subject10-111"/>
     <use x="528.90625" xlink:href="#subject10-119"/>
     <use x="595.898438" xlink:href="#subject10-110"/>
     <use x="644.335938" xlink:href="#subject10-32"/>
     <use x="670.117188" xlink:href="#subject10-102"/>
     <use x="695.117188" xlink:href="#subject10-111"/>
     <use x="746.679688" xlink:href="#subject10-120"/>
    </g>
   </g>
  </g>
 </g>
</svg>
