<?xml version="1.0" encoding="utf-8" standalone="no"?>
<!DOCTYPE svg PUBLIC "-//W3C//DTD SVG 1.1//EN"
  "http://www.w3.org/Graphics/SVG/1.1/DTD/svg11.dtd">
<!-- Created with matplotlib (https://matplotlib.org/) -->
<svg height="25pt" version="1.1" viewBox="0 5 202.303125 25" width="202.303125pt" xmlns="http://www.w3.org/2000/svg" xmlns:xlink="http://www.w3.org/1999/xlink">
 <defs>
  <style type="text/css">
*{stroke-linecap:butt;stroke-linejoin:round;}
  </style>
 </defs>
 <g id="figure_1">
  <g id="patch_1">
  </g>
  <g id="axes_1">
   <g id="text_1">
    <!-- The quick brown fox -->
    <defs>
     <path d="M 7.421875 94.140625 
Q 3.328125 90.046875 7.625 89.265625 
Q 9.96875 88.671875 15.828125 88.671875 
L 26.5625 88.671875 
L 26.5625 58.40625 
L 26.5625 28.125 
L 31.453125 28.125 
L 36.328125 28.125 
L 36.328125 58.40625 
L 36.328125 88.671875 
L 45.703125 88.671875 
Q 56.84375 88.671875 56.84375 91.21875 
Q 57.03125 92.390625 55.671875 93.953125 
Q 53.515625 96.484375 31.828125 96.578125 
Q 10.15625 96.6875 7.421875 94.140625 
z
" id="subject0-84"/>
     <path d="M 11.328125 100 
Q 8.984375 99.609375 8.5 94.140625 
Q 8.015625 88.671875 8.40625 64.84375 
Q 8.796875 40.046875 9.46875 35.15625 
Q 10.15625 30.28125 12.890625 30.28125 
Q 15.4375 30.28125 16.21875 33.109375 
Q 17 35.9375 17.78125 48.4375 
Q 18.359375 59.578125 19.328125 63.671875 
Q 20.3125 67.78125 22.65625 69.53125 
Q 25.984375 72.265625 29.6875 72.265625 
Q 34.375 72.265625 36.234375 67.28125 
Q 38.09375 62.3125 38.28125 49.421875 
Q 38.484375 32.8125 41.40625 31.0625 
Q 45.90625 28.125 47.078125 31.0625 
Q 48.25 34.375 47.078125 53.125 
Q 46.09375 71.6875 41.703125 76.078125 
Q 37.3125 80.46875 22.65625 77.9375 
Q 20.125 77.34375 19.34375 79 
Q 18.5625 80.671875 18.171875 87.890625 
Q 17.78125 96.6875 16.5 98.828125 
Q 15.234375 100.984375 11.328125 100 
z
" id="subject0-104"/>
     <path d="M 17.578125 71.484375 
Q 6.25 59.765625 12.703125 42.578125 
Q 18.5625 26.765625 36.921875 28.71875 
Q 45.703125 29.6875 48.25 33.203125 
Q 52.9375 39.65625 48.640625 39.265625 
Q 47.65625 39.265625 46.484375 38.875 
Q 38.09375 36.140625 33.296875 36.421875 
Q 28.515625 36.71875 25.390625 39.84375 
Q 22.46875 42.78125 21.6875 44.734375 
Q 20.90625 46.6875 22.265625 48.140625 
Q 23.640625 49.609375 27.15625 50.296875 
Q 30.671875 50.984375 36.71875 51.171875 
Q 48.828125 51.5625 51.171875 53.8125 
Q 53.515625 56.0625 50.78125 64.265625 
Q 46.6875 76.953125 31.640625 76.953125 
Q 26.5625 76.953125 23.734375 75.875 
Q 20.90625 74.8125 17.578125 71.484375 
z
M 37.890625 67.96875 
Q 41.015625 65.234375 41.015625 61.140625 
Q 41.015625 58.796875 39.25 58.109375 
Q 37.5 57.421875 31.25 57.421875 
Q 23.4375 57.421875 22.0625 59.375 
Q 20.703125 61.328125 24.609375 66.796875 
Q 27.15625 70.515625 30.953125 70.90625 
Q 34.765625 71.296875 37.890625 67.96875 
z
" id="subject0-101"/>
     <path id="subject0-32"/>
     <path d="M 16.796875 69.53125 
Q 9.96875 65.625 8.203125 53.609375 
Q 6.453125 41.609375 11.53125 33.015625 
Q 18.5625 21.484375 33.40625 23.828125 
L 40.625 25.203125 
L 41.21875 14.65625 
Q 41.609375 7.625 42.390625 5.953125 
Q 43.171875 4.296875 46.296875 4.296875 
Q 50.59375 4.296875 50.59375 5.859375 
L 50.59375 39.0625 
L 50.59375 70.90625 
L 35.546875 71.296875 
Q 19.734375 71.296875 16.796875 69.53125 
z
M 35.75 62.703125 
Q 40.234375 58.203125 40.625 48.34375 
Q 41.015625 38.484375 36.71875 33.40625 
Q 31.84375 27.546875 24.609375 32.90625 
Q 17.390625 38.28125 17.390625 47.65625 
Q 17.390625 58.59375 23.53125 63.671875 
Q 29.6875 68.75 35.75 62.703125 
z
" id="subject0-113"/>
     <path d="M 8.796875 56.453125 
Q 9.1875 42 10.0625 38.1875 
Q 10.9375 34.375 14.0625 31.84375 
Q 17.78125 28.90625 23.53125 28.3125 
Q 29.296875 27.734375 33.59375 29.890625 
Q 36.921875 31.84375 39.65625 30.078125 
Q 44.53125 26.953125 46.09375 31.640625 
Q 47.46875 36.53125 47.46875 53.90625 
Q 47.46875 71.296875 46.875 74.125 
Q 46.296875 76.953125 43.171875 76.5625 
Q 40.046875 76.171875 39.265625 73.4375 
Q 38.484375 70.703125 37.703125 57.8125 
Q 36.921875 43.359375 35.0625 39.640625 
Q 33.203125 35.9375 26.5625 35.9375 
Q 21.875 35.9375 20.5 39.84375 
Q 19.140625 43.75 18.171875 58.40625 
Q 17.390625 70.90625 16.609375 73.53125 
Q 15.828125 76.171875 12.703125 76.5625 
L 8.015625 77.34375 
z
" id="subject0-117"/>
     <path d="M 8.015625 91.609375 
Q 8.015625 86.71875 11.71875 86.71875 
Q 19.140625 86.71875 16.609375 93.359375 
Q 15.046875 97.265625 11.53125 96.578125 
Q 8.015625 95.90625 8.015625 91.609375 
z
M 8.015625 51.375 
Q 8.015625 33.984375 8.59375 31.046875 
Q 9.1875 28.125 12.5 28.515625 
Q 15.625 28.90625 16.3125 31.4375 
Q 17 33.984375 17.390625 45.703125 
Q 17.96875 62.109375 16.796875 68.546875 
Q 15.625 75 11.921875 75 
Q 9.1875 75 8.59375 71.484375 
Q 8.015625 67.96875 8.015625 51.375 
z
" id="subject0-105"/>
     <path d="M 14.453125 70.3125 
Q 6.25 62.109375 7.125 49.21875 
Q 8.015625 36.328125 17 30.859375 
Q 23.046875 27.15625 30.171875 27.046875 
Q 37.3125 26.953125 40.4375 30.46875 
Q 45.703125 36.140625 43.171875 37.890625 
Q 42 38.484375 39.453125 37.703125 
Q 30.859375 35.15625 28.03125 35.34375 
Q 25.203125 35.546875 21.484375 39.265625 
Q 16.015625 46.09375 16.3125 53.90625 
Q 16.609375 61.71875 22.359375 66.5 
Q 28.125 71.296875 34.765625 67 
Q 40.625 63.09375 42.78125 65.828125 
Q 44.53125 67.78125 40.828125 71.875 
Q 36.53125 76.5625 28.125 76.078125 
Q 19.734375 75.59375 14.453125 70.3125 
z
" id="subject0-99"/>
     <path d="M 11.328125 99.21875 
Q 8.203125 98.4375 8.203125 64.453125 
Q 8.203125 30.46875 11.328125 29.296875 
Q 13.875 28.328125 16.609375 31.640625 
Q 19.34375 34.96875 18.171875 37.703125 
Q 17.1875 40.234375 18.359375 45.015625 
Q 19.53125 49.8125 21.09375 49.8125 
Q 22.65625 49.8125 29.6875 40.234375 
Q 35.15625 32.625 38.46875 30.375 
Q 41.796875 28.125 45.515625 29.5 
Q 46.296875 29.890625 46.484375 30.671875 
Q 46.6875 31.453125 46 32.8125 
Q 45.3125 34.1875 43.75 36.328125 
Q 42.1875 38.484375 39.65625 41.796875 
Q 32.234375 51.375 31.453125 55.46875 
Q 30.671875 59.578125 35.546875 64.0625 
Q 40.046875 68.171875 41.40625 72.859375 
Q 42.96875 77.734375 39.65625 77.34375 
Q 34.765625 76.953125 27.734375 68.359375 
Q 20.3125 59.765625 18.75 60.75 
Q 17.1875 61.921875 17.1875 80.078125 
Q 17.1875 93.953125 16.203125 97.078125 
Q 15.234375 100.203125 11.328125 99.21875 
z
" id="subject0-107"/>
     <path d="M 9.375 97.859375 
Q 7.625 95.3125 8.40625 62.703125 
L 8.984375 29.890625 
L 14.0625 30.859375 
Q 19.53125 31.640625 25.59375 30.078125 
Q 36.328125 26.953125 44.046875 34.171875 
Q 51.765625 41.40625 51.765625 54.109375 
Q 51.765625 66.40625 44.53125 73.234375 
Q 37.3125 80.078125 25.984375 78.125 
L 18.5625 76.765625 
L 18.5625 87.5 
Q 18.5625 94.140625 17.875 96.28125 
Q 17.1875 98.4375 14.65625 99.21875 
Q 10.75 100.390625 9.375 97.859375 
z
M 35.359375 69.734375 
Q 40.828125 66.015625 41.796875 55.375 
Q 42.78125 44.734375 38.09375 40.046875 
Q 31.25 33.203125 24.90625 37.59375 
Q 18.5625 42 18.5625 53.71875 
Q 18.5625 63.875 23.828125 68.953125 
Q 29.109375 74.03125 35.359375 69.734375 
z
" id="subject0-98"/>
     <path d="M 8.984375 72.65625 
Q 8.984375 72.46875 8.59375 49.03125 
Q 8.203125 33.59375 8.78125 30.859375 
Q 9.375 28.125 12.703125 28.125 
Q 17 28.125 17 30.671875 
Q 17.390625 47.859375 18.265625 54.59375 
Q 19.140625 61.328125 21.1875 63.671875 
Q 23.25 66.015625 28.328125 66.21875 
Q 33.59375 66.21875 33.203125 67.78125 
Q 32.625 68.953125 32.625 72.078125 
Q 32.625 74.609375 28.8125 74.90625 
Q 25 75.203125 20.703125 73.046875 
Q 17 71.09375 17 73.046875 
Q 17 74.421875 15.046875 74.8125 
Q 13.09375 75.203125 11.03125 74.609375 
Q 8.984375 74.03125 8.984375 72.65625 
z
" id="subject0-114"/>
     <path d="M 16.609375 71.296875 
Q 8.59375 64.453125 7.421875 54.59375 
Q 6.25 44.734375 12.015625 37.015625 
Q 17.78125 29.296875 27.9375 27.9375 
Q 35.9375 26.765625 40.828125 30.078125 
Q 45.703125 33.203125 49.609375 39.75 
Q 53.515625 46.296875 53.515625 51.375 
Q 53.515625 56.640625 49.609375 64.359375 
Q 45.703125 72.078125 42 74.21875 
Q 36.71875 76.953125 29.09375 76.078125 
Q 21.484375 75.203125 16.609375 71.296875 
z
M 37.890625 66.40625 
Q 41.796875 62.5 41.796875 52.34375 
Q 41.796875 35.15625 30.46875 35.15625 
Q 18.359375 35.15625 18.359375 51.765625 
Q 18.359375 63.875 24.703125 68.5625 
Q 31.0625 73.25 37.890625 66.40625 
z
" id="subject0-111"/>
     <path d="M 33.40625 75 
Q 32.421875 73.046875 28.328125 58.984375 
Q 24.03125 44.734375 23.046875 45.703125 
Q 22.078125 46.296875 17.78125 59.96875 
Q 15.046875 68.75 13.375 71.1875 
Q 11.71875 73.640625 8.203125 74.03125 
L 3.125 74.609375 
L 10.546875 51.5625 
Q 15.046875 37.890625 17.390625 33 
Q 19.734375 28.125 21.875 27.9375 
Q 24.421875 27.546875 26.078125 30.28125 
Q 27.734375 33.015625 31.0625 43.171875 
Q 32.421875 47.46875 33.890625 50.875 
Q 35.359375 54.296875 36.328125 56.25 
Q 37.3125 58.203125 37.703125 58.015625 
Q 39.265625 56.84375 43.75 42.1875 
Q 48.4375 27.546875 51.5625 27.546875 
Q 55.46875 27.546875 63.28125 49.8125 
Q 66.015625 57.421875 70.3125 70.703125 
Q 71.484375 74.03125 68.359375 75 
Q 65.625 75.984375 62.5 73.25 
Q 59.375 70.515625 59.375 67.1875 
Q 59.375 61.140625 54.296875 48.25 
Q 52.546875 43.75 51.953125 44.140625 
Q 50.78125 44.921875 45.703125 60.359375 
Q 41.015625 75.390625 37.5 75.984375 
Q 34.578125 76.5625 33.40625 75 
z
" id="subject0-119"/>
     <path d="M 29.296875 75.78125 
Q 28.125 74.421875 18.5625 74.03125 
L 9.375 74.03125 
L 8.796875 51.171875 
L 8.203125 28.125 
L 13.28125 28.125 
Q 16.796875 28.125 17.484375 30.078125 
Q 18.171875 32.03125 18.171875 42.390625 
Q 18.171875 56.25 19.34375 60.546875 
Q 20.515625 64.84375 25.296875 66.984375 
Q 30.078125 69.140625 33.796875 67.1875 
Q 36.140625 65.828125 37.015625 62.109375 
Q 37.890625 58.40625 38.09375 47.078125 
Q 38.484375 33.59375 39.15625 31.34375 
Q 39.84375 29.109375 43.5625 29.109375 
Q 46.09375 29.109375 47.265625 29.890625 
Q 48.4375 30.671875 48.25 32.625 
Q 48.25 34.578125 47.859375 51.375 
Q 47.265625 67 44.140625 70.703125 
Q 41.21875 74.03125 36.140625 75.78125 
Q 31.0625 77.546875 29.296875 75.78125 
z
" id="subject0-110"/>
     <path d="M 15.234375 95.125 
Q 11.921875 91.40625 10.546875 85.75 
Q 9.375 79.890625 6.453125 76.5625 
Q 4.5 74.421875 4.59375 73.046875 
Q 4.6875 71.6875 6.640625 68.75 
Q 9.765625 64.265625 9.765625 48.640625 
Q 9.765625 42.1875 10.15625 38.1875 
Q 10.546875 34.1875 11.328125 31.734375 
Q 12.109375 29.296875 13.28125 28.703125 
Q 14.453125 28.125 16.40625 28.71875 
Q 18.359375 29.5 18.9375 33.296875 
Q 19.53125 37.109375 19.53125 48.4375 
Q 19.53125 61.71875 20.21875 64.84375 
Q 20.90625 67.96875 24.421875 70.3125 
Q 31.84375 75.203125 27.9375 76.5625 
Q 26.953125 76.953125 25.390625 76.953125 
Q 17.78125 76.953125 20.3125 87.890625 
Q 21.296875 91.015625 22.5625 91.796875 
Q 23.828125 92.578125 26.953125 92.1875 
Q 32.234375 91.609375 32.234375 94.53125 
Q 32.234375 97.859375 25.203125 98.140625 
Q 18.171875 98.4375 15.234375 95.125 
z
" id="subject0-102"/>
     <path d="M 5.671875 76.5625 
Q 4.6875 74.609375 5.953125 72.171875 
Q 7.234375 69.734375 13.09375 62.109375 
L 18.953125 54.5 
L 10.9375 43.171875 
Q 2.9375 32.03125 4.109375 30.671875 
Q 6.640625 28.125 10.15625 29.984375 
Q 13.671875 31.84375 16.40625 37.109375 
Q 20.125 44.734375 22.265625 46.09375 
Q 23.046875 46.484375 25.1875 44.234375 
Q 27.34375 42 29.5 38.484375 
Q 34.96875 29.5 39.265625 29.5 
Q 46.296875 29.5 41.21875 37.5 
L 36.921875 43.359375 
Q 30.078125 51.953125 30.078125 54.484375 
Q 30.078125 57.03125 36.921875 66.015625 
Q 43.953125 75 42 76.953125 
Q 39.84375 79.109375 36.421875 77.046875 
Q 33.015625 75 29.890625 69.53125 
Q 25.59375 62.5 24.03125 63.09375 
Q 22.46875 63.875 17.96875 70.515625 
Q 14.453125 75.78125 10.9375 77.53125 
Q 7.421875 79.296875 5.671875 76.5625 
z
" id="subject0-120"/>
    </defs>
    <g transform="translate(7.2 27.396875)scale(0.2 -0.2)">
     <use xlink:href="#subject0-84"/>
     <use x="60.546875" xlink:href="#subject0-104"/>
     <use x="116.992188" xlink:href="#subject0-101"/>
     <use x="176.5625" xlink:href="#subject0-32"/>
     <use x="208.984375" xlink:href="#subject0-113"/>
     <use x="267.1875" xlink:href="#subject0-117"/>
     <use x="322.65625" xlink:href="#subject0-105"/>
     <use x="349.414062" xlink:href="#subject0-99"/>
     <use x="400" xlink:href="#subject0-107"/>
     <use x="448.828125" xlink:href="#subject0-32"/>
     <use x="481.25" xlink:href="#subject0-98"/>
     <use x="539.453125" xlink:href="#subject0-114"/>
     <use x="575.78125" xlink:href="#subject0-111"/>
     <use x="635.742188" xlink:href="#subject0-119"/>
     <use x="710.15625" xlink:href="#subject0-110"/>
     <use x="766.601562" xlink:href="#subject0-32"/>
     <use x="799.023438" xlink:href="#subject0-102"/>
     <use x="830.273438" xlink:href="#subject0-111"/>
     <use x="890.234375" xlink:href="#subject0-120"/>
    </g>
   </g>
  </g>
 </g>
</svg>
