<?xml version="1.0" encoding="utf-8" standalone="no"?>
<!DOCTYPE svg PUBLIC "-//W3C//DTD SVG 1.1//EN"
  "http://www.w3.org/Graphics/SVG/1.1/DTD/svg11.dtd">
<!-- Created with matplotlib (https://matplotlib.org/) -->
<svg height="25pt" version="1.1" viewBox="0 5 201.6 25" width="201.6pt" xmlns="http://www.w3.org/2000/svg" xmlns:xlink="http://www.w3.org/1999/xlink">
 <defs>
  <style type="text/css">
*{stroke-linecap:butt;stroke-linejoin:round;}
  </style>
 </defs>
 <g id="figure_1">
  <g id="patch_1">
  </g>
  <g id="axes_1">
   <g id="text_1">
    <!-- The quick brown fox -->
    <defs>
     <path d="M 0 80.078125 
Q 0 77.15625 7.8125 77.15625 
L 15.4375 77.15625 
L 16.015625 46.484375 
Q 16.40625 25.78125 17.09375 20.609375 
Q 17.78125 15.4375 19.921875 15.046875 
Q 21.296875 14.84375 21.875 15.421875 
Q 22.46875 16.015625 22.953125 19.53125 
Q 23.4375 23.046875 23.53125 28.515625 
Q 23.640625 33.984375 23.828125 45.3125 
L 24.421875 76.171875 
L 32.8125 76.765625 
Q 36.921875 77.15625 38.875 77.828125 
Q 40.828125 78.515625 40.4375 79.6875 
Q 39.84375 82.03125 19.921875 82.625 
Q 7.234375 83.015625 3.609375 82.515625 
Q 0 82.03125 0 80.078125 
z
" id="subject5-84"/>
     <path d="M 2.546875 49.21875 
Q 2.546875 24.609375 3.125 19.71875 
Q 3.71875 14.84375 6.453125 14.84375 
Q 9.1875 14.84375 9.765625 17.484375 
Q 10.359375 20.125 10.359375 32.234375 
Q 10.359375 46.09375 12.109375 50.484375 
Q 13.875 54.890625 20.515625 57.03125 
Q 24.8125 58.40625 28.328125 53.90625 
Q 31.84375 49.421875 31.84375 32.234375 
Q 31.84375 19.921875 32.421875 17.375 
Q 33.015625 14.84375 35.9375 14.84375 
Q 39.0625 14.84375 39.453125 17.375 
Q 39.84375 19.921875 39.265625 33.203125 
Q 38.484375 50.59375 35.453125 56.453125 
Q 32.421875 62.3125 24.421875 61.328125 
Q 16.609375 60.15625 13.875 58.984375 
Q 11.53125 57.8125 10.75 60.546875 
Q 10.359375 62.703125 9.96875 69.921875 
Q 9.765625 77.15625 8.984375 79.78125 
Q 8.203125 82.421875 6.046875 82.8125 
Q 3.90625 83.203125 3.328125 80.078125 
Q 2.546875 75.59375 2.546875 49.21875 
z
" id="subject5-104"/>
     <path d="M 13.09375 61.140625 
Q 6.25 57.625 3.421875 46 
Q 0.59375 34.375 4.6875 25.390625 
Q 7.03125 20.3125 14.0625 17.1875 
Q 21.09375 14.0625 27.546875 15.234375 
Q 33.40625 16.21875 35.640625 17.390625 
Q 37.890625 18.5625 35.640625 19.4375 
Q 33.40625 20.3125 27.546875 20.3125 
Q 20.3125 20.3125 17.671875 21.1875 
Q 15.046875 22.078125 12.3125 25.59375 
Q 3.90625 36.328125 16.21875 37.5 
Q 30.28125 38.484375 34.96875 39.75 
Q 39.65625 41.015625 39.65625 43.75 
Q 39.65625 53.90625 30.953125 59.671875 
Q 22.265625 65.4375 13.09375 61.140625 
z
M 28.71875 54.296875 
Q 31.84375 51.5625 31.84375 47.46875 
Q 31.84375 45.125 29.984375 44.4375 
Q 28.125 43.75 21.296875 43.75 
Q 12.109375 43.75 9.953125 45.703125 
Q 7.8125 47.65625 11.140625 52.546875 
Q 13.875 56.84375 19.53125 57.421875 
Q 25.203125 58.015625 28.71875 54.296875 
z
" id="subject5-101"/>
     <path id="subject5-32"/>
     <path d="M 6.453125 59.375 
Q 2.734375 55.46875 1.75 52.640625 
Q 0.78125 49.8125 0.78125 42.578125 
Q 0.78125 28.328125 6.25 22.5625 
Q 11.71875 16.796875 23.046875 18.953125 
Q 28.71875 19.921875 30.375 17.671875 
Q 32.03125 15.4375 32.03125 6.25 
Q 32.03125 -1.375 34.96875 -1.375 
Q 36.921875 -1.375 37.40625 4.390625 
Q 37.890625 10.15625 37.890625 30.671875 
Q 37.890625 63.671875 34.765625 64.65625 
Q 33.40625 65.234375 31.25 62.109375 
Q 29.6875 59.96875 28.90625 59.859375 
Q 28.125 59.765625 26.375 61.921875 
Q 23.046875 65.625 17.1875 64.9375 
Q 11.328125 64.265625 6.453125 59.375 
z
M 28.125 56.25 
Q 30.46875 53.515625 30.375 40.625 
Q 30.28125 27.734375 28.125 24.8125 
Q 25.390625 21.484375 20.40625 22.171875 
Q 15.4375 22.859375 11.53125 26.953125 
Q 7.234375 31.25 6.640625 38.96875 
Q 6.0625 46.6875 9.578125 53.328125 
Q 11.53125 56.84375 13.375 58.015625 
Q 15.234375 59.1875 19.140625 59.1875 
Q 25.59375 59.1875 28.125 56.25 
z
" id="subject5-113"/>
     <path d="M 5.078125 65.234375 
Q 2.546875 64.453125 2.546875 45.90625 
Q 2.546875 33.203125 3.328125 29.484375 
Q 4.109375 25.78125 7.421875 22.65625 
Q 15.828125 13.875 25.390625 20.703125 
Q 27.9375 22.65625 29.109375 22.65625 
Q 30.28125 22.65625 31.84375 20.703125 
Q 35.546875 16.21875 36.71875 22.65625 
Q 37.703125 27.9375 37.703125 43.359375 
Q 37.703125 66.609375 35.15625 66.609375 
Q 32.234375 66.609375 31.25 47.65625 
Q 30.28125 32.421875 28.03125 28.03125 
Q 25.78125 23.640625 19.140625 23.640625 
Q 13.671875 23.640625 12.015625 27.734375 
Q 10.359375 31.84375 10.359375 45.125 
Q 10.359375 51.765625 10.15625 55.765625 
Q 9.96875 59.765625 9.28125 62.109375 
Q 8.59375 64.453125 7.609375 65.140625 
Q 6.640625 65.828125 5.078125 65.234375 
z
" id="subject5-117"/>
     <path d="M 10.15625 83.015625 
Q 2.34375 83.015625 2.34375 79.109375 
Q 2.34375 75.203125 6.25 75.203125 
Q 10.15625 75.203125 10.15625 79.109375 
Q 10.15625 83.015625 2.34375 83.015625 
z
M 2.734375 38.671875 
Q 3.125 23.4375 3.8125 19.4375 
Q 4.5 15.4375 6.84375 15.046875 
Q 8.015625 14.84375 8.59375 15.328125 
Q 9.1875 15.828125 9.578125 18.359375 
Q 9.96875 20.90625 10.0625 25.09375 
Q 10.15625 29.296875 10.15625 37.890625 
Q 10.15625 54.6875 9.5625 58.109375 
Q 8.984375 61.53125 6.25 61.53125 
Q 3.328125 61.53125 2.828125 58.296875 
Q 2.34375 55.078125 2.734375 38.671875 
z
" id="subject5-105"/>
     <path d="M 12.3125 63.09375 
Q 7.8125 60.75 4.203125 53.8125 
Q 0.59375 46.875 0.59375 40.234375 
Q 0.59375 28.515625 10.25 21.28125 
Q 19.921875 14.0625 29.5 18.953125 
L 34.765625 21.6875 
L 25.59375 22.265625 
Q 8.40625 23.4375 8.40625 40.4375 
Q 8.40625 51.375 12.796875 56.0625 
Q 17.1875 60.75 25.984375 58.796875 
Q 31.84375 57.625 31.84375 59.765625 
Q 31.84375 61.71875 26.765625 63.671875 
Q 21.875 65.625 19.328125 65.421875 
Q 16.796875 65.234375 12.3125 63.09375 
z
" id="subject5-99"/>
     <path d="M 2.546875 49.8125 
Q 2.546875 25.203125 3.125 20.40625 
Q 3.71875 15.625 6.453125 15.625 
Q 8.984375 15.625 9.671875 17.484375 
Q 10.359375 19.34375 10.359375 26.375 
Q 10.359375 31.640625 11.03125 34.28125 
Q 11.71875 36.921875 13.28125 36.921875 
Q 14.84375 36.921875 17.28125 34.28125 
Q 19.734375 31.640625 23.4375 26.375 
Q 30.46875 16.40625 35.359375 15.4375 
Q 37.703125 14.84375 37.703125 17.578125 
Q 37.703125 18.75 33.015625 24.796875 
Q 28.328125 30.859375 22.65625 36.71875 
Q 20.125 39.453125 20.703125 41.40625 
Q 21.296875 43.359375 27.9375 52.15625 
Q 34.765625 61.328125 33.796875 62.109375 
L 32.03125 62.5 
Q 27.9375 62.5 19.734375 51.765625 
L 11.328125 41.015625 
L 10.75 62.5 
Q 10.546875 70.515625 10.453125 74.3125 
Q 10.359375 78.125 9.765625 80.5625 
Q 9.1875 83.015625 8.5 83.5 
Q 7.8125 83.984375 6.453125 83.984375 
Q 3.71875 83.984375 3.125 79.09375 
Q 2.546875 74.21875 2.546875 49.8125 
z
" id="subject5-107"/>
     <path d="M 2.15625 51.765625 
Q 2.15625 21.09375 3.71875 18.75 
Q 5.28125 16.40625 8.40625 17.1875 
Q 11.71875 17.578125 13.09375 15.828125 
Q 14.0625 14.0625 21.875 14.0625 
Q 37.5 14.0625 40.234375 32.03125 
Q 41.40625 39.453125 38.46875 48.140625 
Q 35.546875 56.84375 31.25 58.984375 
Q 27.9375 60.9375 22.65625 60.9375 
Q 17.390625 60.9375 13.671875 58.984375 
Q 10.9375 57.421875 10.359375 59.375 
Q 9.96875 60.9375 9.96875 69.734375 
Q 9.96875 78.328125 9.28125 80.375 
Q 8.59375 82.421875 6.0625 82.421875 
Q 3.328125 82.421875 2.734375 78.03125 
Q 2.15625 73.640625 2.15625 51.765625 
z
M 28.515625 52.15625 
Q 33.40625 47.46875 33.59375 38.09375 
Q 33.796875 28.71875 29.296875 23.046875 
Q 23.046875 14.84375 14.265625 21.09375 
Q 11.53125 23.046875 10.75 25.78125 
Q 9.96875 28.515625 9.96875 36.921875 
Q 9.96875 51.375 15.234375 55.765625 
Q 20.515625 60.15625 28.515625 52.15625 
z
" id="subject5-98"/>
     <path d="M 3.90625 60.359375 
Q 2.546875 59.375 2.546875 36.921875 
Q 2.546875 21.296875 3.125 18.0625 
Q 3.71875 14.84375 6.453125 14.84375 
Q 9.1875 14.84375 9.765625 17.375 
Q 10.359375 19.921875 10.359375 30.671875 
Q 10.359375 44.34375 12.109375 48.828125 
Q 13.875 53.328125 20.125 55.46875 
Q 25.984375 57.625 25.984375 59.578125 
Q 25.984375 61.140625 23.828125 61.53125 
Q 21.6875 61.921875 18.75 61.03125 
Q 15.828125 60.15625 13.875 58.40625 
Q 10.359375 55.28125 10.359375 58.40625 
Q 10.359375 60.9375 8.015625 61.625 
Q 5.671875 62.3125 3.90625 60.359375 
z
" id="subject5-114"/>
     <path d="M 15.625 61.328125 
Q 7.234375 57.8125 4 45.890625 
Q 0.78125 33.984375 5.671875 24.421875 
Q 8.59375 18.5625 15.53125 16.21875 
Q 22.46875 13.875 29.296875 16.015625 
Q 36.140625 18.171875 39.0625 24.03125 
Q 41.796875 29.109375 41.984375 38.09375 
Q 42.1875 47.078125 39.65625 52.34375 
Q 36.71875 58.796875 29.59375 61.421875 
Q 22.46875 64.0625 15.625 61.328125 
z
M 31.453125 52.34375 
Q 34.578125 47.265625 34.578125 38.671875 
Q 34.578125 29.890625 31.34375 25 
Q 28.125 20.125 22.46875 20.125 
Q 16.40625 20.125 13.1875 25.390625 
Q 9.96875 30.671875 10.15625 40.046875 
Q 10.546875 57.234375 22.65625 57.234375 
Q 28.328125 57.234375 31.453125 52.34375 
z
" id="subject5-111"/>
     <path d="M 27.546875 64.65625 
Q 25.984375 61.53125 21.296875 47.46875 
Q 17 33.796875 15.4375 32.234375 
Q 15.046875 31.84375 14.359375 33.59375 
Q 13.671875 35.359375 12.59375 38.765625 
Q 11.53125 42.1875 10.546875 46.296875 
Q 7.421875 59.578125 5.859375 62.984375 
Q 4.296875 66.40625 1.375 65.625 
Q 0.390625 65.4375 0.1875 64.453125 
Q 0 63.484375 0.484375 60.84375 
Q 0.984375 58.203125 2.15625 53.90625 
Q 3.328125 49.609375 5.671875 42.578125 
Q 12.703125 20.125 15.625 20.125 
Q 18.5625 20.125 23.25 34.765625 
Q 28.71875 50.78125 29.296875 52.34375 
Q 29.6875 53.328125 31.25 50.390625 
Q 33.40625 46.296875 35.9375 38.671875 
Q 41.21875 22.265625 42.96875 20.125 
Q 48.046875 14.65625 55.28125 43.5625 
Q 61.140625 65.625 59.765625 66.796875 
Q 59.1875 67.390625 57.8125 66.796875 
Q 55.28125 66.015625 50.59375 48.25 
Q 46.296875 30.859375 44.921875 31.84375 
Q 43.953125 32.8125 38.875 49.8125 
Q 33.796875 67.390625 30.46875 67.578125 
Q 29.109375 67.578125 27.546875 64.65625 
z
" id="subject5-119"/>
     <path d="M 3.328125 60.359375 
Q 3.125 59.1875 2.734375 36.921875 
Q 2.546875 22.078125 3.125 18.453125 
Q 3.71875 14.84375 6.0625 14.84375 
Q 8.203125 14.84375 8.78125 17.96875 
Q 9.375 21.09375 9.375 33.40625 
L 9.375 51.953125 
L 16.40625 55.28125 
Q 21.484375 57.8125 22.953125 57.609375 
Q 24.421875 57.421875 27.15625 54.109375 
Q 29.5 51.375 30.171875 47.078125 
Q 30.859375 42.78125 30.859375 32.03125 
Q 30.859375 20.3125 31.4375 17.578125 
Q 32.03125 14.84375 34.375 15.234375 
Q 36.53125 15.625 37.109375 19.046875 
Q 37.703125 22.46875 37.5 34.96875 
Q 37.5 46.484375 36.71875 50.875 
Q 35.9375 55.28125 33.796875 57.8125 
Q 30.859375 60.9375 25.1875 61.515625 
Q 19.53125 62.109375 14.65625 59.578125 
Q 10.546875 57.234375 9.765625 59.578125 
Q 9.1875 61.328125 6.34375 61.625 
Q 3.515625 61.921875 3.328125 60.359375 
z
" id="subject5-110"/>
     <path d="M 9.96875 80.859375 
Q 6.0625 76.953125 6.0625 71.09375 
Q 6.0625 65.4375 2.734375 63.484375 
Q 0.984375 62.5 0.484375 61.90625 
Q 0 61.328125 0.484375 60.640625 
Q 0.984375 59.96875 2.734375 58.59375 
Q 4.890625 57.03125 5.46875 52.640625 
Q 6.0625 48.25 6.0625 35.15625 
Q 6.0625 28.90625 6.15625 25.09375 
Q 6.25 21.296875 6.546875 18.84375 
Q 6.84375 16.40625 7.328125 15.53125 
Q 7.8125 14.65625 8.59375 14.84375 
Q 11.140625 15.828125 11.328125 33.203125 
Q 11.921875 50.984375 13.1875 55.171875 
Q 14.453125 59.375 18.953125 59.375 
Q 22.859375 59.375 22.859375 60.75 
Q 22.859375 61.140625 22.65625 61.328125 
Q 21.6875 63.28125 17.578125 63.28125 
Q 13.875 63.28125 12.5 66.40625 
Q 11.140625 69.921875 13.765625 74.40625 
Q 16.40625 78.90625 19.734375 78.90625 
Q 21.296875 78.90625 22.46875 79.78125 
Q 23.640625 80.671875 23.640625 81.84375 
Q 23.640625 83.984375 21.1875 84.5625 
Q 18.75 85.15625 15.53125 84.171875 
Q 12.3125 83.203125 9.96875 80.859375 
z
" id="subject5-102"/>
     <path d="M 2.15625 62.5 
Q 2.15625 61.53125 8.015625 51.5625 
Q 13.875 42.578125 13.875 39.65625 
Q 13.875 37.3125 7.03125 27.15625 
Q 0 16.40625 0.59375 15.4375 
Q 1.375 14.84375 3.125 14.84375 
Q 5.859375 14.84375 11.90625 23.625 
Q 17.96875 32.421875 19.34375 32.421875 
Q 20.515625 32.421875 25.984375 23.640625 
Q 31.25 14.84375 34.375 14.84375 
Q 37.109375 14.84375 37.109375 16.21875 
Q 36.921875 17.96875 30.28125 29.109375 
L 23.25 40.4375 
L 29.296875 50.203125 
Q 35.359375 60.15625 35.359375 61.921875 
Q 35.359375 66.21875 29.890625 60.546875 
Q 27.546875 58.015625 24.8125 54.109375 
L 19.140625 45.703125 
L 13.671875 54.6875 
Q 11.328125 58.40625 8.78125 61.03125 
Q 6.25 63.671875 5.078125 63.671875 
Q 2.15625 63.671875 2.15625 62.5 
z
" id="subject5-120"/>
    </defs>
    <g transform="translate(7.2 26.64)scale(0.2 -0.2)">
     <use xlink:href="#subject5-84"/>
     <use x="37.5" xlink:href="#subject5-104"/>
     <use x="79.882812" xlink:href="#subject5-101"/>
     <use x="120.117188" xlink:href="#subject5-32"/>
     <use x="138.671875" xlink:href="#subject5-113"/>
     <use x="179.101562" xlink:href="#subject5-117"/>
     <use x="219.140625" xlink:href="#subject5-105"/>
     <use x="231.445312" xlink:href="#subject5-99"/>
     <use x="265.625" xlink:href="#subject5-107"/>
     <use x="300.976562" xlink:href="#subject5-32"/>
     <use x="319.53125" xlink:href="#subject5-98"/>
     <use x="361.71875" xlink:href="#subject5-114"/>
     <use x="385.351562" xlink:href="#subject5-111"/>
     <use x="428.320312" xlink:href="#subject5-119"/>
     <use x="486.71875" xlink:href="#subject5-110"/>
     <use x="526.953125" xlink:href="#subject5-32"/>
     <use x="545.507812" xlink:href="#subject5-102"/>
     <use x="564.453125" xlink:href="#subject5-111"/>
     <use x="607.421875" xlink:href="#subject5-120"/>
    </g>
   </g>
  </g>
 </g>
</svg>
