<?xml version="1.0" encoding="utf-8" standalone="no"?>
<!DOCTYPE svg PUBLIC "-//W3C//DTD SVG 1.1//EN"
  "http://www.w3.org/Graphics/SVG/1.1/DTD/svg11.dtd">
<!-- Created with matplotlib (https://matplotlib.org/) -->
<svg height="25pt" version="1.1" viewBox="0 5 201.6 25" width="201.6pt" xmlns="http://www.w3.org/2000/svg" xmlns:xlink="http://www.w3.org/1999/xlink">
 <defs>
  <style type="text/css">
*{stroke-linecap:butt;stroke-linejoin:round;}
  </style>
 </defs>
 <g id="figure_1">
  <g id="patch_1">
  </g>
  <g id="axes_1">
   <g id="text_1">
    <!-- The quick brown fox -->
    <defs>
     <path d="M 3.328125 88.28125 
Q 1.375 86.140625 3.90625 85.546875 
Q 5.671875 85.359375 10.9375 85.359375 
L 20.90625 85.359375 
L 20.90625 53.90625 
L 20.90625 22.65625 
L 25.390625 23.25 
Q 26.375 23.4375 26.859375 23.53125 
Q 27.34375 23.640625 27.921875 24.125 
Q 28.515625 24.609375 28.703125 25.390625 
Q 28.90625 26.171875 29.203125 27.734375 
Q 29.5 29.296875 29.59375 31.4375 
Q 29.6875 33.59375 29.875 36.90625 
Q 30.078125 40.234375 30.078125 44.4375 
Q 30.078125 48.640625 30.28125 54.5 
L 30.28125 54.6875 
L 30.859375 85.359375 
L 40.625 85.359375 
Q 49.21875 85.359375 49.21875 86.53125 
Q 49.21875 87.109375 48.25 88.28125 
Q 45.515625 91.609375 25.6875 91.609375 
Q 5.859375 91.609375 3.328125 88.28125 
z
" id="subject7-84"/>
     <path d="M 6.640625 89.65625 
Q 5.859375 86.921875 6.640625 55.46875 
Q 7.03125 32.03125 7.71875 27.34375 
Q 8.40625 22.65625 10.9375 22.65625 
Q 13.671875 22.65625 14.25 25.1875 
Q 14.84375 27.734375 14.84375 38.875 
Q 14.84375 53.125 17.375 58.390625 
Q 19.921875 63.671875 26.765625 63.671875 
Q 32.421875 63.671875 34.375 58.5 
Q 36.328125 53.328125 36.328125 38.09375 
Q 36.328125 27.546875 36.90625 25.09375 
Q 37.5 22.65625 40.234375 22.65625 
Q 42.96875 22.65625 43.546875 25.390625 
Q 44.140625 28.125 44.140625 41.015625 
Q 44.140625 53.515625 43.453125 57.421875 
Q 42.78125 61.328125 39.65625 64.84375 
Q 35.75 69.140625 29.59375 69.921875 
Q 23.4375 70.703125 19.53125 67.578125 
Q 16.609375 65.046875 15.625 69.140625 
Q 14.84375 72.078125 14.453125 80.28125 
Q 13.875 90.046875 10.546875 90.625 
Q 7.421875 91.40625 6.640625 89.65625 
z
" id="subject7-104"/>
     <path d="M 11.53125 65.234375 
Q 4.296875 57.8125 4.203125 45.609375 
Q 4.109375 33.40625 11.328125 26.953125 
Q 15.046875 23.640625 22.65625 22.65625 
Q 30.28125 21.6875 35.546875 23.640625 
Q 42.390625 26.171875 40.046875 28.515625 
Q 38.09375 30.671875 30.28125 30.078125 
Q 22.265625 29.5 17.875 32.328125 
Q 13.484375 35.15625 13.484375 40.625 
Q 13.484375 43.75 15.53125 44.53125 
Q 17.578125 45.3125 27.734375 45.703125 
L 41.796875 46.296875 
L 42.390625 52.734375 
Q 43.171875 58.984375 37.109375 64.84375 
Q 31.25 70.90625 24.3125 70.90625 
Q 17.390625 70.90625 11.53125 65.234375 
z
M 31.84375 60.546875 
Q 35.9375 54.890625 34.46875 53.03125 
Q 33.015625 51.171875 24.21875 51.171875 
Q 15.4375 51.171875 13.671875 53.515625 
Q 11.921875 55.859375 16.796875 61.328125 
Q 20.125 65.046875 24.609375 64.75 
Q 29.109375 64.453125 31.84375 60.546875 
z
" id="subject7-101"/>
     <path id="subject7-32"/>
     <path d="M 13.28125 66.40625 
Q 8.203125 62.3125 6.25 55.078125 
Q 4.296875 47.859375 6.25 39.84375 
Q 8.59375 30.671875 13.578125 26.65625 
Q 18.5625 22.65625 27.546875 22.859375 
L 37.3125 23.046875 
L 37.3125 13.671875 
Q 37.3125 7.03125 38.96875 4.484375 
Q 40.625 1.953125 44.140625 3.125 
Q 46.09375 3.90625 45.703125 36.625 
Q 45.3125 69.34375 43.171875 69.921875 
Q 40.828125 70.703125 38.484375 68.359375 
Q 35.546875 66.40625 34.375 68.359375 
Q 32.8125 70.90625 25.09375 70.21875 
Q 17.390625 69.53125 13.28125 66.40625 
z
M 34.1875 60.15625 
Q 37.703125 55.28125 37.40625 45.40625 
Q 37.109375 35.546875 33.40625 31.640625 
Q 30.859375 28.90625 29.09375 28.609375 
Q 27.34375 28.328125 23.4375 29.6875 
Q 16.40625 32.234375 14.359375 41.109375 
Q 12.3125 50 16.796875 58.59375 
Q 19.734375 64.0625 25.296875 64.640625 
Q 30.859375 65.234375 34.1875 60.15625 
z
" id="subject7-113"/>
     <path d="M 6.640625 71.484375 
Q 5.859375 70.125 6.84375 50 
Q 7.625 37.5 8.6875 33.203125 
Q 9.765625 28.90625 12.109375 27.15625 
Q 19.34375 21.6875 29.5 26.171875 
Q 34.578125 28.515625 37.109375 26.171875 
Q 41.796875 22.46875 42.78125 31.453125 
Q 43.359375 37.5 42.78125 50.984375 
Q 42 72.859375 39.453125 72.859375 
Q 36.53125 72.859375 35.546875 68.453125 
Q 34.578125 64.0625 34.578125 51.375 
Q 34.578125 41.015625 33.890625 37.984375 
Q 33.203125 34.96875 30.28125 33.015625 
Q 26.5625 30.46875 24.3125 30.171875 
Q 22.078125 29.890625 18.953125 31.84375 
Q 16.015625 33.59375 15.046875 52.734375 
Q 14.453125 64.453125 13.671875 68.265625 
Q 12.890625 72.078125 10.75 72.46875 
Q 7.8125 73.046875 6.640625 71.484375 
z
" id="subject7-117"/>
     <path d="M 6.0625 86.71875 
Q 6.84375 81.84375 10.15625 81.453125 
Q 12.703125 81.25 13.28125 84.375 
L 13.484375 85.9375 
Q 13.484375 88.875 12.59375 89.9375 
Q 11.71875 91.015625 9.375 91.015625 
Q 7.234375 91.015625 6.453125 90.140625 
Q 5.671875 89.265625 6.0625 86.71875 
z
M 6.84375 69.53125 
Q 5.671875 62.703125 5.671875 46.09375 
Q 5.671875 29.5 6.25 26.078125 
Q 6.84375 22.65625 9.578125 22.65625 
Q 12.3125 22.65625 12.890625 26.078125 
Q 13.484375 29.5 13.484375 46.09375 
Q 13.484375 62.703125 12.890625 66.109375 
Q 12.3125 69.53125 9.578125 69.53125 
Q 6.84375 69.53125 5.671875 62.703125 
z
" id="subject7-105"/>
     <path d="M 12.109375 66.015625 
Q 7.8125 62.109375 6.546875 59.171875 
Q 5.28125 56.25 4.6875 48.640625 
Q 4.109375 40.828125 4.890625 37.890625 
Q 5.671875 34.96875 9.1875 30.671875 
Q 13.671875 25.390625 20.5 23.53125 
Q 27.34375 21.6875 33.015625 24.21875 
Q 38.875 26.953125 36.53125 29.296875 
Q 34.765625 31.0625 28.515625 30.671875 
Q 20.703125 30.28125 18.75 31.640625 
Q 13.09375 35.546875 12.3125 44.921875 
Q 11.53125 54.296875 16.21875 60.359375 
Q 22.46875 68.5625 31.25 62.3125 
Q 34.1875 60.15625 35.0625 60.25 
Q 35.9375 60.359375 36.71875 62.5 
Q 38.09375 65.828125 35.546875 67.875 
Q 33.015625 69.921875 26.375 70.703125 
Q 21.296875 71.296875 18.75 70.515625 
Q 16.21875 69.734375 12.109375 66.015625 
z
" id="subject7-99"/>
     <path d="M 5.859375 56.84375 
Q 5.859375 32.421875 6.34375 27.53125 
Q 6.84375 22.65625 9.578125 22.65625 
Q 12.109375 22.65625 12.890625 24.3125 
Q 13.671875 25.984375 14.0625 31.84375 
Q 14.84375 41.015625 17 41.609375 
Q 17.96875 42 20.796875 39.265625 
Q 23.640625 36.53125 26.5625 32.625 
Q 34.1875 22.65625 38.484375 22.65625 
Q 42.96875 22.65625 42.96875 23.828125 
Q 42.96875 25.390625 34.171875 35.9375 
Q 25.390625 46.484375 25.390625 49.03125 
Q 25.390625 51.375 29.5 55.078125 
Q 33.203125 58.203125 36.328125 64.0625 
Q 37.703125 66.796875 37.984375 67.765625 
Q 38.28125 68.75 37.796875 69.140625 
Q 37.3125 69.53125 35.359375 69.53125 
Q 31.640625 69.53125 24.21875 60.75 
Q 17.1875 51.953125 15.421875 51.953125 
Q 13.671875 51.953125 13.671875 71.484375 
Q 13.671875 85.15625 13.078125 88.078125 
Q 12.5 91.015625 9.765625 91.015625 
Q 7.03125 91.015625 6.4375 86.234375 
Q 5.859375 81.453125 5.859375 56.84375 
z
" id="subject7-107"/>
     <path d="M 6.25 86.71875 
Q 7.421875 81.640625 7.421875 52.734375 
L 7.421875 23.25 
L 13.875 23.25 
Q 16.015625 23.25 26.5625 22.65625 
Q 40.234375 21.484375 45.703125 35.546875 
Q 48.828125 45.703125 46.671875 54.203125 
Q 44.53125 62.703125 37.5 67.390625 
Q 30.46875 72.078125 21.875 69.734375 
L 15.234375 67.96875 
L 15.234375 79.5 
Q 15.234375 87.890625 14.546875 89.453125 
Q 13.875 91.015625 10.15625 91.015625 
Q 6.84375 91.015625 6.15625 90.234375 
Q 5.46875 89.453125 6.25 86.71875 
z
M 31.0625 63.671875 
Q 33.203125 63.671875 35.9375 57.03125 
Q 38.671875 50.390625 38.671875 44.734375 
Q 38.671875 37.3125 35.546875 32.90625 
Q 32.421875 28.515625 26.953125 28.515625 
Q 20.3125 28.515625 17.765625 32.421875 
Q 15.234375 36.328125 15.234375 46.296875 
Q 15.234375 53.125 16.015625 56.25 
Q 16.796875 59.375 19.34375 61.921875 
Q 23.25 65.828125 26.375 64.84375 
Q 29.5 63.671875 31.0625 63.671875 
z
" id="subject7-98"/>
     <path d="M 5.859375 46.296875 
Q 5.859375 29.6875 6.4375 26.265625 
Q 7.03125 22.859375 9.765625 22.859375 
Q 12.5 22.859375 13.078125 25.203125 
Q 13.671875 27.546875 13.671875 37.109375 
Q 13.671875 49.609375 16.015625 55.265625 
Q 18.359375 60.9375 24.03125 61.53125 
Q 29.296875 62.109375 29.296875 66.015625 
Q 29.296875 69.34375 25.09375 69.828125 
Q 20.90625 70.3125 17.78125 67.390625 
Q 16.609375 66.40625 16.015625 66.109375 
Q 15.4375 65.828125 15.046875 66.109375 
Q 14.65625 66.40625 14.265625 67.390625 
Q 13.09375 69.734375 9.578125 69.734375 
Q 7.03125 69.734375 6.4375 66.21875 
Q 5.859375 62.703125 5.859375 46.296875 
z
" id="subject7-114"/>
     <path d="M 15.828125 67.96875 
Q 11.53125 65.828125 7.8125 58.984375 
Q 4.109375 52.15625 4.109375 46.09375 
Q 4.109375 40.046875 7.71875 33.203125 
Q 11.328125 26.375 15.828125 24.03125 
Q 20.515625 21.6875 28.125 22.5625 
Q 35.75 23.4375 39.453125 26.75 
Q 43.171875 30.078125 45.3125 37.5 
Q 47.65625 45.3125 46 52.640625 
Q 44.34375 59.96875 39.84375 64.265625 
Q 35.359375 68.5625 29.109375 70.125 
Q 22.859375 71.6875 15.828125 67.96875 
z
M 34.1875 60.359375 
Q 37.703125 55.28125 37.40625 45.21875 
Q 37.109375 35.15625 33.390625 31.4375 
Q 29.6875 27.734375 26.75 27.828125 
Q 23.828125 27.9375 18.953125 31.640625 
Q 15.625 34.1875 14.75 36.71875 
Q 13.875 39.265625 13.875 45.90625 
Q 13.875 56.25 17 60.359375 
Q 19.921875 64.65625 25.578125 64.65625 
Q 31.25 64.65625 34.1875 60.359375 
z
" id="subject7-111"/>
     <path d="M 26.375 57.8125 
Q 21.875 42.78125 19.734375 42 
Q 19.34375 41.796875 18.265625 43.65625 
Q 17.1875 45.515625 15.921875 48.828125 
Q 14.65625 52.15625 13.484375 56.0625 
Q 10.9375 65.046875 9.28125 67.875 
Q 7.625 70.703125 5.28125 70.703125 
Q 1.375 70.703125 1.375 69.53125 
Q 1.375 68.171875 8.40625 46.09375 
Q 15.046875 24.609375 18.5625 23.53125 
Q 22.078125 22.46875 27.734375 40.4375 
Q 29.109375 44.921875 30.46875 48.734375 
Q 31.84375 52.546875 32.71875 54.59375 
Q 33.59375 56.640625 33.796875 56.453125 
Q 34.578125 55.671875 39.84375 40.234375 
Q 43.953125 28.71875 46.578125 25.78125 
Q 49.21875 22.859375 51.953125 27.15625 
Q 54.6875 31.453125 58.796875 45.3125 
Q 64.65625 65.4375 66.40625 67.96875 
Q 67.1875 69.34375 66.203125 70.40625 
Q 65.234375 71.484375 63.671875 71.671875 
Q 62.109375 71.875 60.546875 71.09375 
Q 58.203125 69.53125 54.109375 53.515625 
Q 52.9375 49.03125 51.859375 45.40625 
Q 50.78125 41.796875 49.90625 39.84375 
Q 49.03125 37.890625 48.828125 38.09375 
Q 47.859375 39.453125 42.78125 55.28125 
Q 39.0625 66.609375 36.625 70.21875 
Q 34.1875 73.828125 31.84375 71 
Q 29.5 68.171875 26.375 57.8125 
z
" id="subject7-119"/>
     <path d="M 6.25 66.796875 
Q 6.0625 65.234375 6.0625 43.953125 
Q 5.859375 29.890625 6.546875 26.765625 
Q 7.234375 23.640625 9.96875 23.25 
Q 12.890625 22.859375 13.46875 25.09375 
Q 14.0625 27.34375 14.0625 38.875 
Q 14.0625 53.328125 16.59375 58.59375 
Q 19.140625 63.875 25.984375 63.875 
Q 31.640625 63.875 33.59375 58.6875 
Q 35.546875 53.515625 35.546875 38.28125 
Q 35.546875 27.734375 36.125 25.296875 
Q 36.71875 22.859375 39.453125 22.859375 
Q 42.1875 22.859375 42.765625 25.484375 
Q 43.359375 28.125 43.359375 40.625 
Q 43.359375 63.875 36.71875 68.171875 
Q 34.375 69.734375 27.734375 69.625 
Q 21.09375 69.53125 17.78125 67.78125 
Q 14.0625 65.828125 14.0625 67.78125 
Q 14.0625 69.34375 12.109375 69.734375 
Q 10.15625 70.125 8.203125 69.234375 
Q 6.25 68.359375 6.25 66.796875 
z
" id="subject7-110"/>
     <path d="M 12.5 88.28125 
Q 9.375 84.1875 9.375 80.671875 
Q 9.375 77.34375 5.46875 72.46875 
Q 2.9375 69.140625 2.734375 67.96875 
Q 2.546875 66.796875 4.5 65.234375 
Q 7.421875 62.890625 7.421875 44.921875 
Q 7.421875 22.859375 11.53125 22.65625 
Q 12.703125 22.859375 14.0625 24.03125 
Q 15.828125 25.59375 16.21875 28.71875 
Q 16.609375 31.84375 15.828125 39.65625 
Q 14.84375 51.765625 16.890625 59.46875 
Q 18.953125 67.1875 23.25 67.1875 
Q 24.8125 67.1875 25.59375 67.765625 
Q 26.375 68.359375 25.984375 69.140625 
Q 25 71.09375 21.09375 71.09375 
Q 16.40625 71.09375 16.21875 76.375 
Q 16.015625 82.234375 20.515625 85.15625 
Q 22.078125 86.140625 23.640625 86.328125 
Q 29.109375 86.921875 29.109375 89.453125 
Q 28.125 92.390625 22.265625 92.578125 
Q 15.625 92.578125 12.5 88.28125 
z
" id="subject7-102"/>
     <path d="M 4.296875 69.34375 
Q 4.296875 67.1875 10.15625 58 
Q 16.015625 48.828125 16.015625 47.46875 
Q 16.015625 45.703125 9.1875 36.328125 
Q 0.984375 25 3.328125 23.4375 
Q 4.109375 22.859375 5.859375 22.859375 
Q 9.375 22.859375 13.875 30.671875 
Q 17.96875 38.28125 19.921875 39.453125 
Q 20.703125 39.84375 22.84375 37.6875 
Q 25 35.546875 27.15625 31.84375 
Q 32.625 22.859375 36.921875 22.859375 
Q 41.40625 22.859375 41.40625 24.03125 
Q 41.40625 25.203125 33.40625 36.71875 
L 25.59375 48.4375 
L 32.625 58.40625 
Q 39.84375 68.171875 37.5 70.515625 
Q 34.1875 73.828125 24.21875 58.796875 
Q 23.25 57.234375 22.859375 56.734375 
Q 22.46875 56.25 21.875 56.25 
Q 21.296875 56.25 20.90625 56.734375 
Q 20.515625 57.234375 19.34375 58.796875 
Q 10.75 71.6875 7.03125 71.6875 
Q 4.296875 71.6875 4.296875 69.34375 
z
" id="subject7-120"/>
    </defs>
    <g transform="translate(7.2 26.64)scale(0.2 -0.2)">
     <use xlink:href="#subject7-84"/>
     <use x="50.585938" xlink:href="#subject7-104"/>
     <use x="100.585938" xlink:href="#subject7-101"/>
     <use x="147.65625" xlink:href="#subject7-32"/>
     <use x="174.414062" xlink:href="#subject7-113"/>
     <use x="225.976562" xlink:href="#subject7-117"/>
     <use x="275" xlink:href="#subject7-105"/>
     <use x="293.945312" xlink:href="#subject7-99"/>
     <use x="335.546875" xlink:href="#subject7-107"/>
     <use x="378.90625" xlink:href="#subject7-32"/>
     <use x="405.664062" xlink:href="#subject7-98"/>
     <use x="458.789062" xlink:href="#subject7-114"/>
     <use x="488.867188" xlink:href="#subject7-111"/>
     <use x="540.820312" xlink:href="#subject7-119"/>
     <use x="609.375" xlink:href="#subject7-110"/>
     <use x="658.789062" xlink:href="#subject7-32"/>
     <use x="685.546875" xlink:href="#subject7-102"/>
     <use x="712.304688" xlink:href="#subject7-111"/>
     <use x="764.257812" xlink:href="#subject7-120"/>
    </g>
   </g>
  </g>
 </g>
</svg>
