<?xml version="1.0" encoding="utf-8" standalone="no"?>
<!DOCTYPE svg PUBLIC "-//W3C//DTD SVG 1.1//EN"
  "http://www.w3.org/Graphics/SVG/1.1/DTD/svg11.dtd">
<!-- Created with matplotlib (https://matplotlib.org/) -->
<svg height="25pt" version="1.1" viewBox="0 5 201.6 25" width="201.6pt" xmlns="http://www.w3.org/2000/svg" xmlns:xlink="http://www.w3.org/1999/xlink">
 <defs>
  <style type="text/css">
*{stroke-linecap:butt;stroke-linejoin:round;}
  </style>
 </defs>
 <g id="figure_1">
  <g id="patch_1">
  </g>
  <g id="axes_1">
   <g id="text_1">
    <!-- The quick brown fox -->
    <defs>
     <path d="M 3.515625 89.0625 
Q 1.171875 85.359375 7.421875 84.96875 
Q 9.578125 84.765625 13.28125 84.96875 
L 22.078125 85.359375 
L 22.078125 53.90625 
L 22.078125 22.65625 
L 26.953125 22.65625 
L 31.84375 22.65625 
L 31.84375 53.90625 
L 31.84375 85.15625 
L 41.796875 85.15625 
Q 47.078125 85.15625 49.21875 85.734375 
Q 51.375 86.328125 50.984375 87.703125 
Q 50 90.046875 27.53125 90.71875 
Q 5.078125 91.40625 3.515625 89.0625 
z
" id="subject3-84"/>
     <path d="M 5.671875 58.796875 
Q 5.671875 25 6.84375 23.828125 
Q 8.015625 22.65625 11.71875 23.640625 
Q 14.265625 24.421875 14.84375 27.25 
Q 15.4375 30.078125 15.4375 40.625 
Q 15.4375 53.90625 17.875 59.5625 
Q 20.3125 65.234375 25.78125 65.234375 
Q 32.421875 65.234375 34.28125 61.421875 
Q 36.140625 57.625 36.53125 42.78125 
Q 37.109375 30.078125 37.796875 27.140625 
Q 38.484375 24.21875 41.015625 24.21875 
Q 43.5625 24.21875 44.140625 27.25 
Q 44.734375 30.28125 44.734375 43.5625 
Q 44.734375 55.46875 44.046875 60.0625 
Q 43.359375 64.65625 41.21875 67.1875 
Q 35.359375 74.609375 20.90625 70.3125 
Q 17 69.140625 16.21875 70.40625 
Q 15.4375 71.6875 15.046875 80.28125 
Q 14.65625 87.703125 13.765625 89.75 
Q 12.890625 91.796875 10.15625 92.1875 
L 5.671875 92.78125 
z
" id="subject3-104"/>
     <path d="M 12.3125 67 
Q 4.6875 61.140625 4.203125 48.734375 
Q 3.71875 36.328125 10.9375 28.71875 
Q 14.65625 24.609375 21.96875 23.140625 
Q 29.296875 21.6875 35.25 23.34375 
Q 41.21875 25 41.21875 29.109375 
Q 41.21875 31.0625 40.4375 31.84375 
Q 39.65625 32.625 38.28125 32.234375 
Q 35.9375 31.640625 28.515625 30.46875 
Q 23.046875 29.890625 19.234375 32.625 
Q 15.4375 35.359375 14.453125 40.828125 
Q 14.0625 43.5625 16.3125 44.234375 
Q 18.5625 44.921875 29.109375 45.3125 
Q 44.140625 45.90625 45.3125 48.640625 
Q 46.6875 51.953125 43.84375 58.6875 
Q 41.015625 65.4375 37.3125 67.96875 
Q 32.234375 71.296875 24.515625 71 
Q 16.796875 70.703125 12.3125 67 
z
M 33.203125 60.9375 
Q 37.3125 55.28125 35.84375 53.421875 
Q 34.375 51.5625 25.578125 51.5625 
Q 16.796875 51.5625 15.03125 53.90625 
Q 13.28125 56.25 18.171875 61.71875 
Q 21.484375 65.4375 25.96875 65.140625 
Q 30.46875 64.84375 33.203125 60.9375 
z
" id="subject3-101"/>
     <path id="subject3-32"/>
     <path d="M 14.84375 69.53125 
Q 7.625 64.0625 5.765625 54.78125 
Q 3.90625 45.515625 8.015625 35.75 
Q 10.75 29.5 17.390625 26.265625 
Q 24.03125 23.046875 31.640625 24.421875 
L 38.28125 25.59375 
L 38.28125 17.1875 
Q 38.28125 1.953125 44.921875 4.296875 
Q 46.875 5.078125 47.453125 11.125 
Q 48.046875 17.1875 48.046875 38.484375 
L 48.046875 71.296875 
L 33.015625 71.6875 
Q 17.96875 72.078125 14.84375 69.53125 
z
M 35.15625 61.921875 
Q 38.09375 57.8125 38.1875 47.953125 
Q 38.28125 38.09375 35.546875 34.578125 
Q 32.8125 30.859375 26.75 31.15625 
Q 20.703125 31.453125 17.96875 35.359375 
Q 15.046875 39.65625 15.046875 48.640625 
Q 15.046875 57.625 17.96875 61.921875 
Q 20.90625 66.21875 26.5625 66.21875 
Q 32.234375 66.21875 35.15625 61.921875 
z
" id="subject3-113"/>
     <path d="M 6.453125 50.390625 
Q 6.84375 36.140625 7.71875 32.234375 
Q 8.59375 28.328125 11.71875 25.78125 
Q 15.625 22.65625 21.484375 22.171875 
Q 27.34375 21.6875 31.84375 24.21875 
Q 35.9375 26.171875 37.703125 24.421875 
Q 39.84375 22.265625 42.390625 23.4375 
Q 45.125 24.421875 45.125 47.65625 
Q 45.125 63.875 44.53125 67.390625 
Q 43.953125 70.90625 41.40625 70.90625 
Q 37.703125 70.90625 36.53125 66.890625 
Q 35.359375 62.890625 35.359375 49.609375 
Q 35.359375 37.3125 33.5 33.59375 
Q 31.640625 29.890625 25.390625 29.890625 
Q 19.53125 29.890625 17.671875 34.078125 
Q 15.828125 38.28125 15.4375 52.546875 
Q 15.046875 65.046875 14.265625 67.578125 
Q 13.484375 70.125 10.15625 70.515625 
L 5.671875 71.296875 
z
" id="subject3-117"/>
     <path d="M 5.46875 87.109375 
Q 5.46875 83.59375 8.59375 82.03125 
Q 11.71875 80.46875 13.28125 83.203125 
Q 15.046875 85.9375 13.671875 88.46875 
Q 12.3125 91.015625 9.1875 91.015625 
Q 5.46875 91.015625 5.46875 87.109375 
z
M 5.46875 45.90625 
Q 5.46875 28.515625 6.046875 25.578125 
Q 6.640625 22.65625 9.96875 23.046875 
Q 11.71875 23.4375 12.984375 24.3125 
Q 14.265625 25.203125 14.0625 26.171875 
Q 13.671875 28.515625 13.671875 49.03125 
Q 13.28125 63.484375 12.6875 66.5 
Q 12.109375 69.53125 9.375 69.53125 
Q 6.640625 69.53125 6.046875 66.109375 
Q 5.46875 62.703125 5.46875 45.90625 
z
" id="subject3-105"/>
     <path d="M 11.328125 64.65625 
Q 4.109375 56.84375 3.90625 46.578125 
Q 3.71875 36.328125 10.0625 29 
Q 16.40625 21.6875 26.375 21.6875 
Q 29.5 21.6875 32.90625 23.140625 
Q 36.328125 24.609375 38.28125 26.46875 
Q 40.234375 28.328125 39.453125 29.6875 
Q 38.28125 31.640625 31.84375 30.28125 
Q 25.390625 29.296875 21.484375 30.28125 
Q 15.234375 32.421875 13.765625 42.671875 
Q 12.3125 52.9375 17.390625 59.578125 
Q 20.90625 64.0625 24.3125 64.453125 
Q 27.734375 64.84375 32.625 61.53125 
Q 35.359375 59.578125 36.625 59.46875 
Q 37.890625 59.375 38.875 60.9375 
Q 40.828125 64.0625 36.140625 67.28125 
Q 31.453125 70.515625 24.609375 70.515625 
Q 19.921875 70.515625 17.1875 69.34375 
Q 14.453125 68.171875 11.328125 64.65625 
z
" id="subject3-99"/>
     <path d="M 6.453125 94.34375 
Q 5.671875 82.03125 6.453125 54.875 
Q 7.234375 27.734375 8.40625 26.5625 
Q 12.3125 22.65625 14.0625 32.03125 
L 14.65625 36.921875 
Q 15.4375 45.703125 17.578125 46.296875 
Q 19.734375 47.078125 26.953125 37.703125 
Q 33.203125 29.5 36.515625 27.15625 
Q 39.84375 24.8125 41.984375 26.953125 
Q 44.140625 29.109375 34.96875 40.4375 
Q 25.984375 52.34375 25.984375 53.515625 
Q 25.984375 55.078125 32.8125 62.703125 
Q 41.796875 72.65625 38.28125 73.828125 
Q 37.5 74.21875 35.9375 74.21875 
Q 32.234375 74.21875 24.8125 65.4375 
Q 17.78125 56.640625 16.015625 56.640625 
Q 14.265625 56.640625 14.265625 76.171875 
Q 14.265625 89.84375 13.671875 92.765625 
Q 13.09375 95.703125 10.359375 95.703125 
Q 6.453125 95.703125 6.453125 94.34375 
z
" id="subject3-107"/>
     <path d="M 5.28125 60.15625 
Q 5.28125 26.765625 8.40625 24.03125 
Q 9.375 23.25 10.9375 24.21875 
Q 12.890625 25.59375 20.703125 23.4375 
Q 28.515625 21.484375 35.359375 24.21875 
Q 42.1875 27.15625 45.609375 33.6875 
Q 49.03125 40.234375 48.25 47.265625 
Q 47.46875 54.296875 44.4375 60.640625 
Q 41.40625 67 35.25 70.015625 
Q 29.109375 73.046875 22.078125 70.90625 
L 15.234375 68.75 
L 14.65625 79.890625 
Q 14.265625 87.109375 13.375 89.0625 
Q 12.5 91.015625 9.765625 91.40625 
L 5.28125 92 
z
M 35.15625 60.15625 
Q 38.484375 56.25 38.484375 47.171875 
Q 38.484375 38.09375 35.359375 33.59375 
Q 32.625 29.6875 27.046875 29.296875 
Q 21.484375 28.90625 18.171875 32.421875 
Q 14.453125 35.9375 14.84375 47.359375 
Q 15.234375 58.796875 19.140625 62.703125 
Q 22.46875 66.015625 26.765625 65.421875 
Q 31.0625 64.84375 35.15625 60.15625 
z
" id="subject3-98"/>
     <path d="M 6.0625 67.390625 
Q 6.0625 67 5.953125 63.578125 
Q 5.859375 60.15625 5.859375 54.78125 
Q 5.859375 49.421875 5.859375 44.34375 
Q 5.671875 29.6875 6.15625 26.65625 
Q 6.640625 23.640625 9.765625 23.25 
Q 12.890625 22.859375 13.46875 24.90625 
Q 14.0625 26.953125 14.0625 37.890625 
Q 14.0625 50.984375 16.5 56.453125 
Q 18.953125 61.921875 25 61.921875 
Q 29.6875 61.921875 29.6875 65.828125 
Q 29.6875 69.140625 25.484375 69.71875 
Q 21.296875 70.3125 18.171875 67.390625 
Q 17 66.40625 16.40625 66.109375 
Q 15.828125 65.828125 15.4375 66.109375 
Q 15.046875 66.40625 14.65625 67.390625 
Q 13.484375 69.734375 9.96875 69.734375 
Q 6.453125 69.734375 6.0625 67.390625 
z
" id="subject3-114"/>
     <path d="M 10.359375 62.890625 
Q 5.859375 58.40625 4.78125 55.5625 
Q 3.71875 52.734375 3.71875 45.3125 
Q 3.71875 38.28125 4.6875 35.15625 
Q 5.671875 32.03125 9.375 28.125 
Q 13.28125 23.828125 15.921875 22.75 
Q 18.5625 21.6875 25.203125 21.6875 
Q 31.84375 21.6875 34.46875 22.75 
Q 37.109375 23.828125 40.828125 27.9375 
Q 52.9375 41.21875 44.921875 57.03125 
Q 39.0625 67.96875 29 69.625 
Q 18.953125 71.296875 10.359375 62.890625 
z
M 32.8125 60.9375 
Q 37.703125 55.078125 37.796875 46.1875 
Q 37.890625 37.3125 33.6875 31.453125 
Q 29.5 25.59375 23.4375 27.546875 
Q 15.625 29.890625 13.28125 40.328125 
Q 10.9375 50.78125 16.21875 58.59375 
Q 18.953125 62.890625 24.515625 63.671875 
Q 30.078125 64.453125 32.8125 60.9375 
z
" id="subject3-111"/>
     <path d="M 30.671875 69.921875 
Q 29.109375 64.453125 26.765625 56.640625 
Q 21.6875 39.65625 19.34375 41.015625 
Q 18.359375 42.390625 14.265625 56.25 
Q 11.53125 65.4375 9.96875 67.875 
Q 8.40625 70.3125 5.46875 70.3125 
L 0.984375 70.3125 
L 8.59375 46.875 
Q 11.140625 38.875 12.890625 34.28125 
Q 14.65625 29.6875 16.40625 26.75 
Q 18.171875 23.828125 19.34375 23.4375 
Q 20.515625 23.046875 22.171875 24.90625 
Q 23.828125 26.765625 25.296875 30.375 
Q 26.765625 33.984375 29.109375 40.4375 
L 34.96875 57.234375 
L 40.625 40.828125 
Q 44.734375 28.71875 47.46875 25.59375 
Q 50.203125 22.46875 52.9375 26.46875 
Q 55.671875 30.46875 59.96875 43.953125 
Q 66.21875 63.28125 67.78125 67 
Q 68.75 69.34375 68.15625 69.828125 
Q 67.578125 70.3125 64.84375 69.921875 
Q 61.921875 69.734375 60.25 66.703125 
Q 58.59375 63.671875 55.671875 53.90625 
Q 50.78125 38.875 49.609375 40.046875 
Q 48.4375 40.828125 43.359375 56.25 
Q 38.484375 71.296875 34.96875 71.875 
Q 31.640625 72.65625 30.671875 69.921875 
z
" id="subject3-119"/>
     <path d="M 21.875 68.75 
Q 20.125 67.96875 18.65625 67.578125 
Q 17.1875 67.1875 16.3125 67.28125 
Q 15.4375 67.390625 15.4375 67.78125 
Q 15.4375 69.34375 13.578125 69.625 
Q 11.71875 69.921875 9.5625 69.046875 
Q 7.421875 68.171875 6.84375 66.609375 
Q 5.671875 63.09375 5.671875 43.171875 
L 5.671875 22.859375 
L 10.546875 22.859375 
Q 14.265625 22.859375 14.84375 25 
Q 15.4375 27.15625 15.4375 39.453125 
Q 15.4375 50 16.109375 53.703125 
Q 16.796875 57.421875 19.34375 59.96875 
Q 25.78125 66.40625 33.015625 61.921875 
Q 35.9375 59.96875 36.53125 41.40625 
Q 37.109375 28.125 37.796875 25.484375 
Q 38.484375 22.859375 41.015625 23.25 
Q 42.78125 23.640625 43.84375 24.125 
Q 44.921875 24.609375 44.734375 25.390625 
L 44.734375 44.140625 
Q 44.734375 61.328125 41.40625 65.4375 
Q 33.984375 73.828125 21.875 68.75 
z
" id="subject3-110"/>
     <path d="M 12.109375 88.09375 
Q 8.984375 83.984375 8.984375 79.890625 
Q 8.984375 76.171875 5.078125 71.875 
Q 2.34375 68.953125 2.25 67.875 
Q 2.15625 66.796875 4.109375 65.046875 
Q 7.03125 62.703125 7.03125 44.734375 
Q 7.03125 37.3125 7.328125 33.015625 
Q 7.625 28.71875 8.296875 26.078125 
Q 8.984375 23.4375 10.25 23.046875 
Q 11.53125 22.65625 13.484375 23.25 
Q 15.625 24.03125 16.203125 27.4375 
Q 16.796875 30.859375 16.796875 41.609375 
Q 16.796875 55.671875 17.765625 60.359375 
Q 18.75 65.046875 21.6875 65.046875 
Q 24.03125 65.046875 25 66.109375 
Q 25.984375 67.1875 25.09375 68.546875 
Q 24.21875 69.921875 21.875 70.90625 
Q 17.96875 72.265625 16.890625 76.078125 
Q 15.828125 79.890625 17.875 83.203125 
Q 19.921875 86.53125 23.828125 86.53125 
Q 28.515625 86.53125 28.515625 89.453125 
Q 28.515625 91.796875 25.1875 92.375 
Q 21.875 92.96875 17.875 91.703125 
Q 13.875 90.4375 12.109375 88.09375 
z
" id="subject3-102"/>
     <path d="M 3.515625 73.828125 
Q 2.546875 72.265625 9.578125 61.71875 
L 16.40625 51.5625 
L 8.59375 40.046875 
Q 0.78125 28.90625 1.953125 27.734375 
Q 6.84375 22.859375 14.84375 35.75 
Q 15.234375 36.53125 16.015625 37.703125 
Q 19.140625 43.171875 20.515625 43.171875 
Q 22.078125 43.171875 27.15625 35.9375 
Q 27.546875 35.359375 28.328125 34.1875 
Q 29.6875 32.421875 30.28125 31.453125 
Q 33.40625 26.953125 38.484375 26.5625 
Q 41.40625 26.171875 41.40625 28.515625 
Q 41.40625 30.28125 34.578125 40.046875 
Q 27.734375 49.421875 27.734375 52.15625 
Q 27.734375 54.890625 34.578125 63.484375 
Q 39.265625 69.34375 39.84375 71.09375 
Q 40.4375 72.859375 38.28125 74.03125 
Q 35.75 75.390625 32.625 72.84375 
Q 29.5 70.3125 24.21875 62.5 
Q 23.25 60.9375 22.859375 60.453125 
Q 22.46875 59.96875 21.875 59.96875 
Q 21.296875 59.96875 20.90625 60.453125 
Q 20.515625 60.9375 19.34375 62.5 
Q 7.421875 80.28125 3.515625 73.828125 
z
" id="subject3-120"/>
    </defs>
    <g transform="translate(7.2 26.64)scale(0.2 -0.2)">
     <use xlink:href="#subject3-84"/>
     <use x="52.539062" xlink:href="#subject3-104"/>
     <use x="102.929688" xlink:href="#subject3-101"/>
     <use x="153.320312" xlink:href="#subject3-32"/>
     <use x="180.078125" xlink:href="#subject3-113"/>
     <use x="233.59375" xlink:href="#subject3-117"/>
     <use x="284.375" xlink:href="#subject3-105"/>
     <use x="304.6875" xlink:href="#subject3-99"/>
     <use x="348.046875" xlink:href="#subject3-107"/>
     <use x="392.578125" xlink:href="#subject3-32"/>
     <use x="419.335938" xlink:href="#subject3-98"/>
     <use x="472.265625" xlink:href="#subject3-114"/>
     <use x="502.734375" xlink:href="#subject3-111"/>
     <use x="559.765625" xlink:href="#subject3-119"/>
     <use x="629.6875" xlink:href="#subject3-110"/>
     <use x="680.46875" xlink:href="#subject3-32"/>
     <use x="707.226562" xlink:href="#subject3-102"/>
     <use x="733.59375" xlink:href="#subject3-111"/>
     <use x="790.625" xlink:href="#subject3-120"/>
    </g>
   </g>
  </g>
 </g>
</svg>
