<?xml version="1.0" encoding="utf-8" standalone="no"?>
<!DOCTYPE svg PUBLIC "-//W3C//DTD SVG 1.1//EN"
  "http://www.w3.org/Graphics/SVG/1.1/DTD/svg11.dtd">
<!-- Created with matplotlib (https://matplotlib.org/) -->
<svg height="25pt" version="1.1" viewBox="0 5 201.6 25" width="201.6pt" xmlns="http://www.w3.org/2000/svg" xmlns:xlink="http://www.w3.org/1999/xlink">
 <defs>
  <style type="text/css">
*{stroke-linecap:butt;stroke-linejoin:round;}
  </style>
 </defs>
 <g id="figure_1">
  <g id="patch_1">
  </g>
  <g id="axes_1">
   <g id="text_1">
    <!-- The quick brown fox -->
    <defs>
     <path d="M 4.296875 87.3125 
Q 0.203125 83.203125 8.796875 82.8125 
Q 10.359375 82.625 12.703125 82.625 
L 22.46875 82.625 
L 22.46875 51.171875 
L 22.46875 19.921875 
L 26.953125 20.515625 
Q 27.9375 20.703125 28.421875 20.796875 
Q 28.90625 20.90625 29.484375 21.390625 
Q 30.078125 21.875 30.265625 22.65625 
Q 30.46875 23.4375 30.765625 25 
Q 31.0625 26.5625 31.15625 28.703125 
Q 31.25 30.859375 31.4375 34.171875 
Q 31.640625 37.5 31.640625 41.703125 
Q 31.640625 45.90625 31.84375 51.765625 
L 31.84375 51.953125 
L 32.421875 82.625 
L 42.1875 82.625 
Q 47.46875 82.625 49.609375 83.203125 
Q 51.765625 83.796875 51.375 85.15625 
Q 50.59375 87.109375 28.421875 88.078125 
Q 6.25 89.0625 4.296875 87.3125 
z
" id="subject4-84"/>
     <path d="M 4.890625 56.0625 
Q 4.890625 22.265625 6.0625 21.09375 
Q 7.234375 19.921875 10.9375 20.90625 
Q 13.484375 21.6875 14.0625 24.609375 
Q 14.65625 27.546875 14.65625 39.0625 
Q 14.65625 53.125 17.09375 57.8125 
Q 19.53125 62.5 26.953125 62.5 
Q 32.421875 62.5 34.28125 57.609375 
Q 36.140625 52.734375 36.140625 38.484375 
Q 36.140625 22.078125 38.875 20.90625 
Q 40.625 20.703125 41.59375 20.5 
Q 42.578125 20.3125 43.0625 22.84375 
Q 43.5625 25.390625 43.75 29.203125 
Q 43.953125 33.015625 43.953125 40.828125 
Q 43.953125 59.96875 41.015625 63.875 
Q 37.890625 68.171875 32.03125 69.234375 
Q 26.171875 70.3125 20.703125 67.578125 
L 14.84375 64.453125 
L 14.265625 76.5625 
Q 13.875 84.96875 13.09375 87.015625 
Q 12.3125 89.0625 9.375 89.453125 
L 4.890625 90.046875 
z
" id="subject4-104"/>
     <path d="M 10.359375 62.5 
Q 2.9375 55.078125 2.828125 44.71875 
Q 2.734375 34.375 9.28125 26.75 
Q 15.828125 19.140625 25.78125 19.140625 
Q 32.03125 19.140625 36.625 21.28125 
Q 41.21875 23.4375 42 26.5625 
Q 42.78125 29.6875 41.40625 29.6875 
Q 40.4375 29.5 35.359375 27.734375 
Q 21.09375 22.859375 14.84375 32.03125 
Q 10.9375 38.28125 13.765625 40.421875 
Q 16.609375 42.578125 28.90625 42.578125 
Q 41.40625 42.578125 43.84375 44.71875 
Q 46.296875 46.875 43.5625 55.28125 
Q 39.453125 67.96875 24.421875 67.96875 
Q 19.34375 67.96875 16.5 66.890625 
Q 13.671875 65.828125 10.359375 62.5 
z
M 32.234375 58.796875 
Q 35.75 55.671875 35.75 51.953125 
Q 35.75 49.8125 33.6875 49.125 
Q 31.640625 48.4375 24.03125 48.4375 
Q 14.453125 48.4375 12.890625 50.1875 
Q 11.328125 51.953125 15.4375 57.8125 
Q 18.171875 61.71875 23.25 62.015625 
Q 28.328125 62.3125 32.234375 58.796875 
z
" id="subject4-101"/>
     <path id="subject4-32"/>
     <path d="M 11.921875 67.1875 
Q 8.203125 65.046875 5.46875 58.984375 
Q 2.734375 52.9375 2.734375 46.875 
Q 2.734375 33.59375 10.640625 26.171875 
Q 18.5625 18.75 29.109375 21.875 
L 35.9375 24.03125 
L 35.9375 17 
Q 35.9375 0.984375 42 0.984375 
Q 44.53125 0.984375 45.109375 5.953125 
Q 45.703125 10.9375 45.703125 34.765625 
L 45.703125 68.5625 
L 30.671875 68.953125 
Q 14.84375 68.953125 11.921875 67.1875 
z
M 32.421875 60.15625 
Q 35.359375 57.421875 35.9375 47.265625 
Q 36.53125 37.109375 33.984375 32.03125 
Q 31.84375 27.9375 25.203125 28.125 
Q 18.5625 28.328125 15.625 32.625 
Q 12.703125 36.921875 12.703125 45.90625 
Q 12.703125 54.890625 15.625 59.1875 
Q 18.359375 63.09375 23.4375 63.375 
Q 28.515625 63.671875 32.421875 60.15625 
z
" id="subject4-113"/>
     <path d="M 5.46875 47.65625 
Q 5.859375 33.40625 6.734375 29.59375 
Q 7.625 25.78125 10.75 23.25 
Q 14.65625 20.125 20.515625 19.625 
Q 26.375 19.140625 30.859375 21.6875 
Q 34.96875 23.640625 36.71875 21.875 
Q 38.875 19.734375 41.40625 20.90625 
Q 44.140625 21.875 44.140625 45.125 
Q 44.140625 61.53125 43.546875 64.9375 
Q 42.96875 68.359375 40.234375 68.359375 
Q 37.703125 68.359375 37.015625 66.203125 
Q 36.328125 64.0625 36.140625 55.28125 
Q 35.9375 40.828125 34.28125 35.359375 
Q 32.625 29.890625 28.125 27.734375 
Q 22.859375 25.203125 18.75 27.34375 
Q 16.21875 28.71875 15.53125 31.84375 
Q 14.84375 34.96875 14.84375 45.90625 
Q 14.84375 60.15625 13.671875 64.25 
Q 12.5 68.359375 8.59375 68.359375 
Q 5.859375 68.359375 5.375 65.328125 
Q 4.890625 62.3125 5.46875 47.65625 
z
" id="subject4-117"/>
     <path d="M 5.078125 83.984375 
Q 5.859375 79.5 8.59375 79.5 
Q 11.328125 79.5 12.109375 83.984375 
Q 12.5 86.53125 11.71875 87.40625 
Q 10.9375 88.28125 8.59375 88.28125 
Q 6.25 88.28125 5.46875 87.40625 
Q 4.6875 86.53125 5.078125 83.984375 
z
M 5.859375 66.796875 
Q 4.6875 59.96875 4.6875 43.359375 
Q 4.6875 26.765625 5.265625 23.34375 
Q 5.859375 19.921875 8.59375 19.921875 
Q 11.328125 19.921875 11.90625 23.34375 
Q 12.5 26.765625 12.5 43.359375 
Q 12.5 59.96875 11.90625 63.375 
Q 11.328125 66.796875 8.59375 66.796875 
Q 5.859375 66.796875 4.6875 59.96875 
z
" id="subject4-105"/>
     <path d="M 12.5 68.75 
Q 8.59375 66.015625 5.5625 59.46875 
Q 2.546875 52.9375 2.546875 47.265625 
Q 2.546875 33.984375 13.96875 26.5625 
Q 25.390625 19.140625 35.359375 26.171875 
Q 42 30.671875 38.375 32.03125 
Q 34.765625 33.40625 25.59375 29.890625 
Q 21.296875 28.125 16.796875 33.78125 
Q 12.3125 39.453125 12.3125 46.484375 
Q 12.3125 58.984375 18.65625 64.15625 
Q 25 69.34375 32.234375 62.703125 
Q 34.578125 60.546875 35.640625 60.453125 
Q 36.71875 60.359375 37.703125 62.109375 
Q 40.828125 67 33.203125 70.125 
Q 24.609375 73.828125 15.828125 70.515625 
Q 14.0625 69.734375 12.5 68.75 
z
" id="subject4-99"/>
     <path d="M 8.015625 90.234375 
Q 4.890625 87.703125 5.953125 54.59375 
Q 7.03125 21.484375 10.15625 21.484375 
Q 13.09375 21.484375 13.671875 31.84375 
Q 14.265625 41.40625 17 41.703125 
Q 19.734375 42 26.765625 32.8125 
Q 33.015625 24.609375 36.328125 22.265625 
Q 39.65625 19.921875 42 22.265625 
Q 43.953125 24.21875 34.96875 35.359375 
Q 25.78125 46.296875 25.78125 48.4375 
Q 25.78125 50.203125 32.625 58.796875 
Q 39.84375 67.578125 38.875 68.75 
Q 38.484375 69.34375 35.75 69.34375 
Q 32.03125 69.34375 24.609375 60.546875 
Q 17.578125 51.765625 15.8125 51.765625 
Q 14.0625 51.765625 14.0625 71.09375 
Q 14.0625 91.21875 11.328125 91.796875 
Q 10.15625 92 8.015625 90.234375 
z
" id="subject4-107"/>
     <path d="M 5.28125 90.046875 
Q 4.5 87.5 4.890625 55.46875 
Q 5.46875 26.953125 6.84375 24.609375 
Q 7.421875 23.4375 9.375 23.640625 
Q 13.875 24.03125 20.515625 22.078125 
Q 32.625 18.953125 40.53125 27.046875 
Q 48.4375 35.15625 46.875 49.03125 
Q 45.515625 61.140625 38.671875 66.703125 
Q 31.84375 72.265625 21.6875 69.53125 
L 14.265625 67.78125 
L 14.265625 77.15625 
Q 14.265625 86.328125 11.140625 89.453125 
Q 8.40625 92.1875 7.328125 92.375 
Q 6.25 92.578125 5.28125 90.046875 
z
M 32.8125 60.359375 
Q 35.75 57.625 36.71875 54.78125 
Q 37.703125 51.953125 37.703125 46.296875 
Q 37.703125 28.125 25.203125 28.125 
Q 18.359375 28.125 16.3125 31.4375 
Q 14.265625 34.765625 14.265625 45.90625 
Q 14.265625 54.5 15.046875 57.328125 
Q 15.828125 60.15625 18.5625 62.109375 
Q 23.046875 65.234375 25.875 64.9375 
Q 28.71875 64.65625 32.8125 60.359375 
z
" id="subject4-98"/>
     <path d="M 5.46875 45.515625 
Q 5.46875 24.21875 5.078125 22.65625 
Q 4.890625 21.875 5.953125 21.390625 
Q 7.03125 20.90625 8.984375 20.515625 
Q 12.109375 20.125 12.6875 22.078125 
Q 13.28125 24.03125 13.28125 35.15625 
Q 13.28125 48.25 15.71875 53.71875 
Q 18.171875 59.1875 24.21875 59.1875 
Q 28.90625 59.1875 28.90625 63.09375 
Q 28.90625 65.234375 27.25 66.203125 
Q 25.59375 67.1875 22.859375 66.890625 
Q 20.125 66.609375 17 65.046875 
Q 13.28125 63.09375 13.28125 65.046875 
Q 13.28125 67 9.375 67 
Q 6.640625 67 6.046875 63.875 
Q 5.46875 60.75 5.46875 45.515625 
z
" id="subject4-114"/>
     <path d="M 9.375 62.5 
Q 4.890625 58.015625 3.8125 55.171875 
Q 2.734375 52.34375 2.734375 44.921875 
Q 2.734375 23.640625 21.6875 20.90625 
Q 35.75 18.953125 43.75 32.625 
Q 50.59375 43.953125 43.75 57.421875 
Q 40.234375 64.265625 36.234375 66.703125 
Q 32.234375 69.140625 24.21875 69.140625 
Q 19.140625 69.140625 16.3125 67.875 
Q 13.484375 66.609375 9.375 62.5 
z
M 32.421875 59.96875 
Q 37.890625 53.90625 36.90625 42.578125 
Q 35.9375 31.25 29.6875 27.9375 
Q 22.859375 24.21875 17 29.78125 
Q 11.140625 35.359375 10.75 43.84375 
Q 10.359375 52.34375 15.625 59.578125 
Q 18.75 63.09375 24.125 63.1875 
Q 29.5 63.28125 32.421875 59.96875 
z
" id="subject4-111"/>
     <path d="M 30.078125 67 
Q 29.890625 66.609375 29.109375 63.96875 
Q 28.328125 61.328125 27.25 57.515625 
Q 26.171875 53.71875 25.203125 50.390625 
Q 20.90625 36.140625 19.34375 36.140625 
Q 17.78125 36.140625 16.40625 41.609375 
Q 12.5 58.015625 10.34375 62.703125 
Q 8.203125 67.390625 4.6875 67.390625 
L 0.203125 67.390625 
L 7.625 44.53125 
Q 15.046875 21.875 18.5625 20.703125 
Q 20.90625 19.921875 23.640625 25.78125 
Q 25.390625 29.5 27.9375 37.3125 
Q 33.015625 52.546875 34.765625 52.546875 
Q 36.328125 50.78125 40.828125 35.546875 
Q 43.75 26.171875 45.3125 23.4375 
Q 46.875 20.703125 49.21875 20.90625 
Q 52.9375 21.484375 60.546875 43.953125 
Q 68.171875 66.796875 68.171875 67 
Q 68.171875 67.78125 63.875 67 
Q 61.328125 66.796875 59.5625 63.671875 
Q 57.8125 60.546875 55.078125 50.984375 
Q 50.203125 35.9375 49.03125 37.109375 
Q 47.859375 37.890625 42.78125 53.328125 
Q 37.890625 68.359375 34.375 68.953125 
Q 31.0625 69.734375 30.078125 67 
z
" id="subject4-119"/>
     <path d="M 21.296875 66.015625 
Q 14.84375 63.484375 14.84375 65.234375 
Q 14.84375 67.390625 10.546875 66.609375 
Q 7.234375 66.21875 6.546875 62.984375 
Q 5.859375 59.765625 5.46875 43.171875 
L 4.890625 20.125 
L 9.96875 20.125 
Q 13.671875 20.125 14.25 22.265625 
Q 14.84375 24.421875 14.84375 37.3125 
Q 14.84375 51.765625 17.28125 56.453125 
Q 19.734375 61.140625 27.15625 61.140625 
Q 32.625 61.140625 34.46875 56.15625 
Q 36.328125 51.171875 36.328125 36.921875 
Q 36.328125 25.390625 36.90625 22.75 
Q 37.5 20.125 40.234375 20.125 
Q 42.96875 20.125 43.546875 23.046875 
Q 44.140625 25.984375 44.140625 39.453125 
Q 44.140625 51.171875 43.453125 55.765625 
Q 42.78125 60.359375 40.828125 62.703125 
Q 33.203125 71.484375 21.296875 66.015625 
z
" id="subject4-110"/>
     <path d="M 12.703125 85.75 
Q 9.578125 81.640625 9.578125 75.984375 
Q 9.578125 70.90625 5.28125 68.359375 
L 0.984375 66.015625 
L 5.28125 63.09375 
Q 8.203125 61.140625 8.890625 57.515625 
Q 9.578125 53.90625 9.578125 39.84375 
Q 9.578125 32.421875 9.671875 28.8125 
Q 9.765625 25.203125 10.15625 22.953125 
Q 10.546875 20.703125 11.234375 20.3125 
Q 11.921875 19.921875 13.09375 20.125 
Q 15.234375 20.515625 15.921875 24.03125 
Q 16.609375 27.546875 17 40.828125 
Q 17.390625 51.375 17.78125 55.078125 
Q 18.171875 58.796875 18.953125 60.25 
Q 19.734375 61.71875 22.265625 62.703125 
Q 25.390625 63.875 26.265625 64.75 
Q 27.15625 65.625 26.265625 66.5 
Q 25.390625 67.390625 22.265625 68.5625 
Q 18.5625 69.921875 17.484375 73.734375 
Q 16.40625 77.546875 18.453125 80.859375 
Q 20.515625 84.1875 24.421875 84.1875 
Q 29.109375 84.1875 29.109375 87.109375 
Q 29.109375 89.453125 25.78125 90.03125 
Q 22.46875 90.625 18.453125 89.359375 
Q 14.453125 88.09375 12.703125 85.75 
z
" id="subject4-102"/>
     <path d="M 2.15625 67.390625 
Q 1.171875 65.828125 8.015625 55.46875 
L 15.046875 45.125 
L 8.015625 34.578125 
Q 0 22.46875 1.5625 20.90625 
Q 2.34375 20.125 4.5 20.125 
Q 8.015625 20.125 12.5 27.9375 
Q 16.609375 35.546875 18.5625 36.71875 
Q 19.34375 37.109375 21.578125 34.859375 
Q 23.828125 32.625 26.375 28.90625 
Q 32.625 20.125 36.140625 20.125 
Q 39.65625 20.125 39.65625 21.6875 
Q 39.65625 23.640625 33.203125 33.203125 
Q 26.375 43.5625 26.375 45.703125 
Q 26.375 47.859375 33.203125 57.625 
Q 37.703125 63.875 38.28125 65.625 
Q 38.875 67.390625 36.921875 68.359375 
Q 32.234375 69.921875 22.859375 56.0625 
Q 21.875 54.5 21.484375 54 
Q 21.09375 53.515625 20.5 53.515625 
Q 19.921875 53.515625 19.53125 54 
Q 19.140625 54.5 17.96875 56.0625 
Q 6.0625 73.828125 2.15625 67.390625 
z
" id="subject4-120"/>
    </defs>
    <g transform="translate(7.2 26.64)scale(0.2 -0.2)">
     <use xlink:href="#subject4-84"/>
     <use x="51.757812" xlink:href="#subject4-104"/>
     <use x="100.585938" xlink:href="#subject4-101"/>
     <use x="149.414062" xlink:href="#subject4-32"/>
     <use x="173.828125" xlink:href="#subject4-113"/>
     <use x="224.414062" xlink:href="#subject4-117"/>
     <use x="273.242188" xlink:href="#subject4-105"/>
     <use x="290.234375" xlink:href="#subject4-99"/>
     <use x="333.789062" xlink:href="#subject4-107"/>
     <use x="377.148438" xlink:href="#subject4-32"/>
     <use x="401.5625" xlink:href="#subject4-98"/>
     <use x="452.929688" xlink:href="#subject4-114"/>
     <use x="481.640625" xlink:href="#subject4-111"/>
     <use x="535.15625" xlink:href="#subject4-119"/>
     <use x="603.515625" xlink:href="#subject4-110"/>
     <use x="652.539062" xlink:href="#subject4-32"/>
     <use x="676.953125" xlink:href="#subject4-102"/>
     <use x="703.90625" xlink:href="#subject4-111"/>
     <use x="757.421875" xlink:href="#subject4-120"/>
    </g>
   </g>
  </g>
 </g>
</svg>
