<?xml version="1.0" encoding="utf-8" standalone="no"?>
<!DOCTYPE svg PUBLIC "-//W3C//DTD SVG 1.1//EN"
  "http://www.w3.org/Graphics/SVG/1.1/DTD/svg11.dtd">
<!-- Created with matplotlib (https://matplotlib.org/) -->
<svg height="25pt" version="1.1" viewBox="0 5 201.6 25" width="201.6pt" xmlns="http://www.w3.org/2000/svg" xmlns:xlink="http://www.w3.org/1999/xlink">
 <defs>
  <style type="text/css">
*{stroke-linecap:butt;stroke-linejoin:round;}
  </style>
 </defs>
 <g id="figure_1">
  <g id="patch_1">
  </g>
  <g id="axes_1">
   <g id="text_1">
    <!-- The quick brown fox -->
    <defs>
     <path d="M 4.890625 89.65625 
Q 1.953125 87.5 3.515625 87.109375 
Q 4.890625 86.71875 11.140625 86.71875 
L 21.296875 86.71875 
L 21.296875 55.28125 
L 21.296875 24.03125 
L 25.78125 24.609375 
Q 26.765625 24.8125 27.25 24.90625 
Q 27.734375 25 28.3125 25.484375 
Q 28.90625 25.984375 29.09375 26.765625 
Q 29.296875 27.546875 29.59375 29.109375 
Q 29.890625 30.671875 29.984375 32.8125 
Q 30.078125 34.96875 30.265625 38.28125 
Q 30.46875 41.609375 30.46875 45.796875 
Q 30.46875 50 30.671875 55.859375 
L 30.671875 56.0625 
L 31.25 86.71875 
L 41.40625 86.71875 
Q 49.609375 86.921875 49.8125 87.703125 
Q 49.421875 88.484375 47.859375 89.65625 
Q 43.953125 92.78125 26.375 92.671875 
Q 8.796875 92.578125 4.890625 89.65625 
z
" id="subject9-84"/>
     <path d="M 5.671875 58.40625 
Q 5.671875 34.1875 6.25 29.203125 
Q 6.84375 24.21875 9.375 24.21875 
Q 11.71875 24.21875 12.5 27.25 
Q 13.28125 30.28125 13.875 42 
Q 14.453125 53.90625 15.328125 57.515625 
Q 16.21875 61.140625 19.140625 63.484375 
Q 22.859375 66.609375 24.421875 66.890625 
Q 25.984375 67.1875 29.109375 65.234375 
Q 32.03125 63.484375 33.015625 44.34375 
Q 33.796875 31.25 34.578125 28.125 
Q 35.359375 25 38.09375 24.609375 
Q 40.828125 24.21875 41.40625 26.265625 
Q 42 28.328125 41.796875 38.28125 
Q 41.40625 55.859375 40.71875 59.953125 
Q 40.046875 64.0625 36.921875 67.1875 
Q 33.59375 70.515625 27.734375 70.90625 
Q 21.875 71.296875 18.75 68.171875 
Q 17.78125 67.1875 17.1875 66.703125 
Q 16.609375 66.21875 16.109375 66.3125 
Q 15.625 66.40625 15.328125 66.796875 
Q 15.046875 67.1875 14.65625 68.359375 
Q 13.484375 71.875 13.484375 82.03125 
Q 13.484375 89.0625 12.796875 90.8125 
Q 12.109375 92.578125 9.578125 92.578125 
Q 6.84375 92.578125 6.25 87.796875 
Q 5.671875 83.015625 5.671875 58.40625 
z
" id="subject9-104"/>
     <path d="M 17.390625 70.703125 
Q 6.25 66.015625 5.078125 49.421875 
Q 4.6875 42.578125 5.375 39.359375 
Q 6.0625 36.140625 8.59375 33.015625 
Q 12.703125 27.546875 19.921875 25.390625 
Q 27.15625 23.25 33.015625 25.59375 
Q 37.3125 27.34375 37.3125 27.9375 
Q 37.5 28.515625 34.96875 29.5 
Q 31.0625 31.25 25.78125 31.25 
Q 21.09375 31.453125 16.796875 35.15625 
Q 12.5 38.875 12.5 42.78125 
Q 12.5 45.125 15.140625 46.09375 
Q 17.78125 47.078125 26.765625 48.25 
L 40.828125 50 
L 40.234375 55.859375 
Q 39.265625 63.875 31.734375 68.75 
Q 24.21875 73.640625 17.390625 70.703125 
z
M 28.90625 63.484375 
Q 32.03125 60.75 32.03125 56.640625 
Q 32.03125 54.5 30.5625 53.71875 
Q 29.109375 52.9375 24.8125 52.9375 
Q 16.40625 52.9375 14.25 54.890625 
Q 12.109375 56.84375 15.234375 61.53125 
Q 17.96875 65.828125 21.78125 66.3125 
Q 25.59375 66.796875 28.90625 63.484375 
z
" id="subject9-101"/>
     <path id="subject9-32"/>
     <path d="M 16.21875 65.828125 
Q 8.796875 61.71875 6.84375 51.859375 
Q 4.890625 42 9.375 32.234375 
Q 12.3125 26.171875 16.21875 23.828125 
Q 20.125 21.484375 26.375 21.6875 
Q 34.578125 22.078125 36.03125 20.90625 
Q 37.5 19.734375 37.5 11.921875 
Q 37.5 5.078125 38.28125 3.609375 
Q 39.0625 2.15625 42.578125 2.15625 
Q 44.734375 2.15625 45.703125 2.734375 
Q 46.6875 3.328125 46.296875 4.109375 
Q 45.3125 5.859375 44.53125 36.328125 
Q 44.140625 66.796875 42.78125 67.78125 
Q 41.40625 69.140625 38.484375 66.609375 
Q 35.359375 64.0625 33.203125 66.21875 
Q 30.859375 68.5625 25.78125 68.453125 
Q 20.703125 68.359375 16.21875 65.828125 
z
M 34.578125 56.84375 
Q 39.453125 47.265625 35.15625 33.203125 
Q 31.25 19.734375 19.734375 31.25 
Q 14.84375 36.328125 14.0625 43.0625 
Q 13.28125 49.8125 17 56.84375 
Q 20.3125 63.09375 25.78125 63.09375 
Q 31.25 63.09375 34.578125 56.84375 
z
" id="subject9-113"/>
     <path d="M 8.59375 70.3125 
Q 5.859375 68.5625 6.25 51.5625 
Q 6.640625 34.578125 9.765625 29.890625 
Q 12.703125 25.390625 18.0625 24.21875 
Q 23.4375 23.046875 28.515625 25.984375 
Q 33.59375 28.90625 33.984375 27.34375 
Q 33.984375 25.390625 37.890625 25.390625 
Q 40.625 25.390625 41.203125 28.609375 
Q 41.796875 31.84375 41.796875 47.46875 
Q 41.796875 69.34375 40.625 70.90625 
Q 39.65625 71.875 36.71875 70.90625 
Q 33.984375 69.921875 33.984375 52.546875 
Q 33.984375 41.015625 33.296875 37.6875 
Q 32.625 34.375 29.6875 32.421875 
Q 25.390625 29.5 23.625 29.59375 
Q 21.875 29.6875 18.359375 33.203125 
Q 15.828125 35.75 15.140625 39.453125 
Q 14.453125 43.171875 14.453125 53.515625 
Q 14.453125 70.3125 11.921875 71.296875 
Q 10.75 71.6875 8.59375 70.3125 
z
" id="subject9-117"/>
     <path d="M 6.453125 88.671875 
Q 5.46875 85.9375 6.734375 83.890625 
Q 8.015625 81.84375 10.75 81.84375 
Q 13.484375 81.84375 13.484375 86.71875 
Q 13.484375 90.625 10.640625 91.5 
Q 7.8125 92.390625 6.453125 88.671875 
z
M 6.0625 47.265625 
Q 6.25 33.203125 7.03125 28.703125 
Q 7.8125 24.21875 9.5625 24.21875 
Q 11.328125 24.21875 12.109375 28.703125 
Q 12.890625 33.203125 13.09375 47.265625 
Q 13.484375 63.671875 12.984375 66.890625 
Q 12.5 70.125 9.5625 70.125 
Q 6.640625 70.125 6.15625 66.890625 
Q 5.671875 63.671875 6.0625 47.265625 
z
" id="subject9-105"/>
     <path d="M 16.796875 69.734375 
Q 12.3125 67.96875 8.40625 61.53125 
Q 4.6875 55.46875 4.984375 45.3125 
Q 5.28125 35.15625 9.375 30.671875 
Q 14.84375 24.609375 25.59375 23.828125 
Q 34.765625 23.25 35.15625 27.734375 
Q 35.15625 27.9375 35.15625 28.328125 
Q 34.96875 31.640625 27.734375 31.0625 
Q 23.25 30.671875 21.09375 31.546875 
Q 18.953125 32.421875 16.21875 35.9375 
Q 11.921875 41.40625 12.890625 49.8125 
Q 13.671875 56.25 16.796875 61.03125 
Q 19.921875 65.828125 23.4375 65.828125 
Q 26.375 65.828125 30.859375 62.703125 
Q 33.40625 61.140625 34.28125 60.75 
Q 35.15625 60.359375 35.453125 60.9375 
Q 35.75 61.53125 35.75 63.484375 
Q 35.75 67.78125 34.375 68.359375 
Q 31.640625 69.921875 25.6875 70.40625 
Q 19.734375 70.90625 16.796875 69.734375 
z
" id="subject9-99"/>
     <path d="M 5.671875 58.203125 
Q 5.671875 27.734375 7.03125 25.203125 
Q 7.625 24.03125 9.578125 24.421875 
Q 11.921875 24.8125 12.890625 26.765625 
Q 13.875 28.71875 14.0625 34.375 
Q 14.65625 43.5625 17 43.5625 
Q 19.140625 43.5625 25.96875 33.796875 
Q 32.8125 24.03125 37.296875 24.03125 
Q 41.796875 24.03125 41.796875 25.203125 
Q 41.796875 26.765625 33.015625 37.3125 
Q 25.59375 46.296875 24.8125 49.421875 
Q 24.03125 52.546875 28.125 56.25 
Q 32.421875 60.15625 34.765625 65.4375 
Q 37.890625 71.484375 34.765625 71.296875 
Q 30.671875 70.703125 22.65625 60.9375 
L 14.453125 50.78125 
L 14.453125 68.5625 
Q 14.453125 83.40625 13.375 87.890625 
Q 12.3125 92.390625 8.796875 92.390625 
Q 6.640625 92.390625 6.15625 86.625 
Q 5.671875 80.859375 5.671875 58.203125 
z
" id="subject9-107"/>
     <path d="M 5.859375 59.375 
Q 6.640625 27.15625 7.625 26.171875 
Q 8.984375 24.8125 20.3125 23.828125 
Q 27.734375 23.046875 30.765625 23.625 
Q 33.796875 24.21875 37.109375 26.765625 
Q 45.125 33.203125 45.3125 44.828125 
Q 45.515625 56.453125 37.703125 64.84375 
Q 34.578125 68.359375 32.03125 69.140625 
Q 29.5 69.921875 23.4375 69.53125 
L 14.265625 68.953125 
L 13.671875 80.28125 
Q 13.28125 87.5 12.5 89.453125 
Q 11.71875 91.40625 8.984375 91.40625 
Q 6.0625 91.40625 5.671875 87.109375 
Q 5.28125 82.8125 5.859375 59.375 
z
M 31.0625 60.359375 
Q 36.140625 55.28125 36.921875 47.75 
Q 37.703125 40.234375 34.375 34.5625 
Q 31.0625 28.90625 25 28.90625 
Q 19.34375 28.90625 16.3125 33.390625 
Q 13.28125 37.890625 13.28125 46.09375 
Q 13.28125 52.9375 16.3125 59.46875 
Q 19.34375 66.015625 22.65625 66.015625 
Q 25.390625 66.015625 31.0625 60.359375 
z
" id="subject9-98"/>
     <path d="M 7.234375 69.921875 
Q 5.859375 68.953125 5.859375 46.484375 
Q 5.859375 30.859375 6.4375 27.640625 
Q 7.03125 24.421875 9.765625 24.421875 
Q 13.671875 24.421875 13.671875 26.953125 
Q 14.265625 50.78125 16.109375 57.125 
Q 17.96875 63.484375 24.609375 63.484375 
Q 29.296875 63.484375 29.296875 67.390625 
Q 29.296875 69.734375 27.640625 70.703125 
Q 25.984375 71.6875 23.4375 71.09375 
Q 20.90625 70.515625 18.75 68.359375 
Q 15.828125 65.4375 14.84375 65.4375 
Q 13.671875 65.4375 13.671875 68.359375 
Q 13.671875 70.515625 11.328125 71.1875 
Q 8.984375 71.875 7.234375 69.921875 
z
" id="subject9-114"/>
     <path d="M 19.734375 69.734375 
Q 12.109375 66.609375 8.390625 57.8125 
Q 4.6875 49.03125 7.03125 40.234375 
Q 9.1875 32.234375 15.140625 27.640625 
Q 21.09375 23.046875 28.21875 23.734375 
Q 35.359375 24.421875 40.625 30.28125 
Q 43.953125 34.1875 45.015625 37.3125 
Q 46.09375 40.4375 46.09375 47.078125 
Q 46.09375 53.71875 45.109375 56.84375 
Q 44.140625 59.96875 40.828125 63.671875 
Q 36.328125 68.359375 30.46875 70.015625 
Q 24.609375 71.6875 19.734375 69.734375 
z
M 33.40625 62.890625 
Q 37.109375 59.96875 37.890625 48.4375 
Q 38.484375 41.015625 37.890625 38.1875 
Q 37.3125 35.359375 34.578125 32.625 
Q 30.671875 28.71875 27.34375 28.8125 
Q 24.03125 28.90625 19.734375 33.40625 
Q 16.796875 36.140625 15.8125 39.0625 
Q 14.84375 42 14.84375 48.046875 
Q 14.84375 58.984375 20.5 63.578125 
Q 26.171875 68.171875 33.40625 62.890625 
z
" id="subject9-111"/>
     <path d="M 31.25 71.484375 
Q 30.078125 69.140625 26.171875 57.421875 
Q 21.875 44.53125 20.515625 43.171875 
Q 19.921875 42.578125 18.75 45.125 
Q 17 48.4375 15.4375 53.90625 
Q 12.5 63.671875 10.0625 67.375 
Q 7.625 71.09375 3.90625 71.09375 
Q 1.953125 71.09375 1.953125 69.53125 
Q 2.15625 66.796875 10.359375 43.953125 
Q 16.015625 27.734375 17.96875 25.78125 
Q 20.125 23.640625 24.03125 32.03125 
Q 26.375 36.921875 29.109375 45.3125 
Q 32.03125 53.90625 33.984375 54.109375 
Q 35.15625 52.9375 39.84375 39.453125 
Q 44.53125 24.609375 47.46875 24.421875 
Q 50.984375 24.421875 57.03125 45.125 
Q 57.625 47.078125 58.40625 49.609375 
Q 63.875 68.75 62.890625 70.515625 
Q 62.5 71.09375 61.140625 71.09375 
Q 57.625 71.09375 56.84375 67.78125 
Q 56.640625 67 55.953125 64.453125 
Q 55.28125 61.921875 54.203125 57.90625 
Q 53.125 53.90625 52.34375 50.984375 
Q 49.21875 38.875 47.65625 39.265625 
Q 45.3125 41.609375 39.84375 62.5 
Q 37.890625 70.703125 33.984375 72.265625 
Q 32.234375 73.046875 31.25 71.484375 
z
" id="subject9-119"/>
     <path d="M 7.03125 67 
Q 5.859375 61.53125 6.453125 43.953125 
Q 6.84375 32.03125 7.625 28.609375 
Q 8.40625 25.203125 10.546875 24.8125 
Q 12.703125 24.421875 13.28125 26.859375 
Q 13.875 29.296875 13.875 39.453125 
Q 13.875 52.734375 16.109375 58.59375 
Q 18.359375 64.453125 23.828125 65.046875 
Q 29.5 65.828125 31.453125 61.53125 
Q 33.40625 57.234375 33.796875 42.78125 
Q 34.1875 30.859375 34.96875 28.125 
Q 35.75 25.390625 38.28125 25.390625 
Q 41.015625 25.390625 41.59375 28.125 
Q 42.1875 30.859375 42 43.5625 
Q 41.609375 59.96875 38.96875 65.625 
Q 36.328125 71.296875 28.515625 71.296875 
Q 21.6875 71.296875 18.953125 68.171875 
Q 17.390625 66.796875 16.703125 66.40625 
Q 16.015625 66.015625 15.625 66.40625 
Q 15.234375 66.796875 14.65625 68.171875 
Q 13.28125 71.484375 10.640625 71.09375 
Q 8.015625 70.703125 7.03125 67 
z
" id="subject9-110"/>
     <path d="M 28.328125 93.953125 
Q 16.796875 93.171875 13.28125 89.65625 
Q 9.765625 86.140625 8.203125 80.46875 
Q 6.84375 75.203125 5.078125 72.65625 
Q 3.328125 70.125 4.6875 67.78125 
Q 6.453125 65.4375 7.421875 44.734375 
Q 8.015625 32.421875 8.796875 28.3125 
Q 9.578125 24.21875 11.328125 24.21875 
Q 13.09375 24.21875 13.875 28.3125 
Q 14.65625 32.421875 15.4375 44.734375 
Q 17 66.40625 17 66.796875 
Q 17 67.96875 21.6875 68.359375 
L 24.609375 68.75 
Q 24.609375 68.953125 21.09375 69.921875 
Q 16.40625 71.296875 15.421875 75.6875 
Q 14.453125 80.078125 17.28125 83.890625 
Q 20.125 87.703125 25 87.703125 
Q 28.125 87.703125 29.203125 88.375 
Q 30.28125 89.0625 29.6875 90.625 
Q 28.328125 93.953125 16.796875 93.171875 
z
" id="subject9-102"/>
     <path d="M 3.90625 72.078125 
Q 3.90625 70.125 9.765625 61.71875 
Q 15.625 54.109375 15.625 51.375 
Q 15.625 49.03125 8.59375 39.84375 
Q 1.5625 30.46875 3.515625 28.515625 
Q 7.625 24.421875 14.84375 37.703125 
Q 18.359375 44.53125 19.921875 44.53125 
Q 21.484375 44.53125 26.765625 36.328125 
Q 32.234375 28.125 36.71875 27.15625 
Q 39.0625 26.5625 39.0625 29.296875 
Q 39.0625 31.84375 32.03125 42.390625 
L 25 52.734375 
L 31.0625 61.328125 
Q 38.484375 72.078125 36.140625 73.4375 
Q 35.546875 73.828125 34.1875 73.828125 
Q 31.453125 73.828125 26.171875 65.828125 
Q 22.265625 59.765625 21.09375 59.578125 
Q 19.921875 59.578125 17.96875 62.890625 
Q 17.1875 64.0625 14.453125 68.953125 
Q 12.3125 72.65625 7.234375 73.640625 
Q 4.109375 74.03125 3.90625 72.078125 
z
" id="subject9-120"/>
    </defs>
    <g transform="translate(7.2 26.64)scale(0.2 -0.2)">
     <use xlink:href="#subject9-84"/>
     <use x="51.757812" xlink:href="#subject9-104"/>
     <use x="99.414062" xlink:href="#subject9-101"/>
     <use x="144.53125" xlink:href="#subject9-32"/>
     <use x="172.070312" xlink:href="#subject9-113"/>
     <use x="223.828125" xlink:href="#subject9-117"/>
     <use x="270.898438" xlink:href="#subject9-105"/>
     <use x="289.648438" xlink:href="#subject9-99"/>
     <use x="328.515625" xlink:href="#subject9-107"/>
     <use x="371.09375" xlink:href="#subject9-32"/>
     <use x="398.632812" xlink:href="#subject9-98"/>
     <use x="448.828125" xlink:href="#subject9-114"/>
     <use x="479.296875" xlink:href="#subject9-111"/>
     <use x="530.273438" xlink:href="#subject9-119"/>
     <use x="595.898438" xlink:href="#subject9-110"/>
     <use x="643.75" xlink:href="#subject9-32"/>
     <use x="671.289062" xlink:href="#subject9-102"/>
     <use x="698.4375" xlink:href="#subject9-111"/>
     <use x="749.414062" xlink:href="#subject9-120"/>
    </g>
   </g>
  </g>
 </g>
</svg>
