<?xml version="1.0" encoding="utf-8" standalone="no"?>
<!DOCTYPE svg PUBLIC "-//W3C//DTD SVG 1.1//EN"
  "http://www.w3.org/Graphics/SVG/1.1/DTD/svg11.dtd">
<!-- Created with matplotlib (https://matplotlib.org/) -->
<svg height="25pt" version="1.1" viewBox="0 5 201.6 25" width="201.6pt" xmlns="http://www.w3.org/2000/svg" xmlns:xlink="http://www.w3.org/1999/xlink">
 <defs>
  <style type="text/css">
*{stroke-linecap:butt;stroke-linejoin:round;}
  </style>
 </defs>
 <g id="figure_1">
  <g id="patch_1">
  </g>
  <g id="axes_1">
   <g id="text_1">
    <!-- The quick brown fox -->
    <defs>
     <path d="M 4.890625 92 
Q 2.734375 89.453125 4.296875 88.875 
Q 5.859375 88.484375 14.65625 88.28125 
L 23.4375 88.09375 
L 24.03125 57.421875 
L 24.609375 26.5625 
L 29.296875 26.5625 
L 33.984375 26.5625 
L 34.578125 57.421875 
L 35.15625 88.09375 
L 43.953125 88.09375 
Q 52.734375 88.09375 53.328125 89.65625 
Q 54.5 93.171875 50.78125 93.953125 
Q 47.078125 94.921875 30.46875 94.921875 
Q 7.234375 94.921875 4.890625 92 
z
" id="subject2-84"/>
     <path d="M 8.59375 97.265625 
Q 7.8125 94.734375 8.203125 61.71875 
Q 8.59375 37.890625 9.28125 33.203125 
Q 9.96875 28.515625 12.703125 28.515625 
Q 15.234375 28.515625 16.015625 31.34375 
Q 16.796875 34.1875 17.578125 46.6875 
Q 18.171875 58.203125 19.046875 62.109375 
Q 19.921875 66.015625 22.46875 67.78125 
Q 27.734375 71.484375 31.34375 70.109375 
Q 34.96875 68.75 37.015625 62.203125 
Q 39.0625 55.671875 39.0625 44.53125 
Q 39.0625 35.546875 39.640625 32.21875 
Q 40.234375 28.90625 42.1875 28.125 
Q 46.296875 26.5625 47.265625 31.640625 
Q 48.046875 36.140625 47.078125 50.59375 
Q 46.09375 64.65625 45.21875 68.453125 
Q 44.34375 72.265625 41.015625 74.8125 
Q 37.5 77.546875 33.78125 77.734375 
Q 30.078125 77.9375 22.078125 75.390625 
Q 18.953125 74.421875 18.265625 75.59375 
Q 17.578125 76.765625 17.578125 83.796875 
Q 17.578125 93.171875 16.40625 96.6875 
Q 15.4375 99.421875 12.5 99.609375 
Q 9.578125 99.8125 8.59375 97.265625 
z
" id="subject2-104"/>
     <path d="M 13.484375 68.5625 
Q 5.671875 60.359375 7.328125 46.578125 
Q 8.984375 32.8125 18.359375 28.125 
Q 24.21875 25.203125 32.328125 25.6875 
Q 40.4375 26.171875 43.75 29.5 
Q 49.421875 35.15625 46.875 36.53125 
Q 45.90625 37.109375 43.359375 36.328125 
Q 35.546875 33.796875 31.15625 33.796875 
Q 26.765625 33.796875 23.046875 36.140625 
Q 18.171875 39.65625 18.75 43.75 
Q 19.140625 46.6875 21.578125 47.46875 
Q 24.03125 48.25 34.578125 48.640625 
Q 45.515625 49.03125 47.5625 49.8125 
Q 49.609375 50.59375 49.609375 54.109375 
Q 49.609375 58.984375 46.578125 64.75 
Q 43.5625 70.515625 40.046875 72.46875 
Q 35.75 74.421875 27.734375 74.421875 
Q 22.46875 74.421875 19.625 73.25 
Q 16.796875 72.078125 13.484375 68.5625 
z
M 35.9375 64.65625 
Q 41.21875 59.375 39.65625 57.125 
Q 38.09375 54.890625 29.109375 54.890625 
Q 20.3125 54.890625 18.546875 57.234375 
Q 16.796875 59.578125 21.6875 65.046875 
Q 28.125 72.46875 35.9375 64.65625 
z
" id="subject2-101"/>
     <path id="subject2-32"/>
     <path d="M 18.171875 70.3125 
Q 11.328125 67.1875 8.5 62.015625 
Q 5.671875 56.84375 5.671875 47.265625 
Q 5.671875 40.046875 6.640625 36.921875 
Q 7.625 33.796875 11.328125 29.6875 
Q 15.234375 25.390625 17.875 24.3125 
Q 20.515625 23.25 27.9375 23.4375 
L 38.671875 23.4375 
L 39.265625 13.671875 
Q 39.65625 6.84375 40.53125 5.28125 
Q 41.40625 3.71875 44.734375 3.71875 
Q 47.265625 3.71875 48.4375 4.5 
Q 49.609375 5.28125 49.421875 7.234375 
Q 49.421875 7.625 49.03125 40.828125 
L 48.640625 71.09375 
L 42.390625 70.703125 
Q 35.75 70.3125 30.078125 71.6875 
Q 24.421875 72.859375 18.171875 70.3125 
z
M 33.796875 62.703125 
Q 37.703125 59.765625 38.578125 49.796875 
Q 39.453125 39.84375 36.140625 34.96875 
Q 30.859375 27.15625 23.140625 31.15625 
Q 15.4375 35.15625 15.4375 45.90625 
Q 15.4375 57.625 21 62.796875 
Q 26.5625 67.96875 33.796875 62.703125 
z
" id="subject2-113"/>
     <path d="M 8.40625 72.265625 
Q 7.8125 69.921875 8.796875 51.375 
Q 9.578125 39.265625 10.546875 35.546875 
Q 11.53125 31.84375 14.65625 29.296875 
Q 19.34375 25.59375 27.34375 26.5625 
Q 38.671875 28.125 42.96875 27.34375 
Q 45.703125 26.953125 46.390625 30.265625 
Q 47.078125 33.59375 47.46875 50.78125 
Q 47.859375 68.171875 47.359375 71.390625 
Q 46.875 74.609375 43.953125 74.609375 
Q 40.4375 74.609375 39.265625 70.3125 
Q 38.09375 66.015625 37.703125 51.171875 
Q 37.3125 40.625 36.421875 38.375 
Q 35.546875 36.140625 31.640625 34.765625 
Q 24.21875 32.03125 21.78125 35.9375 
Q 19.34375 39.84375 18.5625 55.28125 
Q 17.78125 67.96875 17 70.890625 
Q 16.21875 73.828125 13.484375 74.21875 
Q 9.578125 74.8125 8.40625 72.265625 
z
" id="subject2-117"/>
     <path d="M 9.375 94.921875 
Q 7.625 93.359375 7.625 90.03125 
Q 7.625 86.71875 8.5 85.9375 
Q 9.375 85.15625 12.109375 85.546875 
Q 16.40625 86.140625 16.40625 90.046875 
Q 16.40625 93.953125 12.109375 94.53125 
Q 9.375 94.921875 7.625 93.359375 
z
M 8.59375 73.828125 
Q 7.625 72.859375 7.625 49.609375 
Q 7.625 32.234375 8.203125 29.390625 
Q 8.796875 26.5625 12.109375 26.953125 
Q 14.65625 27.34375 15.53125 28.609375 
Q 16.40625 29.890625 16.21875 33.015625 
Q 16.21875 36.53125 15.828125 56.453125 
Q 15.4375 67.578125 14.84375 71.1875 
Q 14.265625 74.8125 12.5 74.8125 
Q 9.96875 74.8125 8.59375 73.828125 
z
" id="subject2-105"/>
     <path d="M 12.109375 67.578125 
Q 7.8125 63.28125 6.640625 60.453125 
Q 5.46875 57.625 5.46875 51.953125 
Q 5.46875 39.65625 11.421875 32.515625 
Q 17.390625 25.390625 27.546875 25.390625 
Q 42.578125 25.390625 42.578125 33.59375 
Q 42.578125 36.140625 41.796875 36.625 
Q 41.015625 37.109375 38.28125 36.140625 
Q 29.296875 33.40625 25.96875 33.796875 
Q 22.65625 34.1875 19.34375 38.09375 
Q 15.4375 43.359375 15.328125 50.78125 
Q 15.234375 58.203125 19.34375 63.28125 
Q 25.984375 71.484375 33.984375 65.4375 
Q 36.53125 63.484375 38.484375 62.890625 
Q 40.4375 62.3125 41.5 63.28125 
Q 42.578125 64.265625 42.578125 66.40625 
Q 42.578125 74.21875 26.953125 74.21875 
Q 21.875 74.21875 19.046875 72.953125 
Q 16.21875 71.6875 12.109375 67.578125 
z
" id="subject2-99"/>
     <path d="M 8.015625 99.03125 
L 8.015625 97.078125 
Q 8.015625 94.921875 7.90625 91.5 
Q 7.8125 88.09375 7.8125 83.890625 
Q 7.8125 79.6875 7.8125 74.125 
Q 7.8125 68.5625 7.8125 63.28125 
Q 7.8125 38.671875 8.296875 33.59375 
Q 8.796875 28.515625 11.328125 28.515625 
Q 13.484375 28.515625 14.453125 30.46875 
Q 15.4375 32.421875 16.015625 38.09375 
Q 17.1875 47.859375 19.140625 48.4375 
Q 21.296875 49.03125 28.515625 39.453125 
Q 35.75 29.6875 39.453125 28.515625 
Q 45.515625 26.5625 45.21875 29.6875 
Q 44.921875 32.8125 38.484375 41.015625 
Q 29.6875 51.953125 29.6875 55.65625 
Q 29.6875 59.375 36.71875 67.1875 
Q 42.578125 74.21875 42 75.203125 
Q 41.796875 75.78125 39.0625 76.171875 
Q 34.578125 76.765625 26.5625 67.78125 
Q 18.75 58.796875 17.375 58.796875 
Q 16.015625 58.796875 15.625 78.71875 
Q 15.234375 92 14.546875 95.515625 
Q 13.875 99.03125 11.71875 99.421875 
Q 8.40625 100 8.015625 99.03125 
z
" id="subject2-107"/>
     <path d="M 8.203125 97.078125 
Q 7.421875 95.3125 8.203125 61.71875 
L 8.984375 27.9375 
L 14.0625 28.328125 
Q 18.5625 28.90625 26.375 27.34375 
Q 35.546875 25.390625 42.875 31.546875 
Q 50.203125 37.703125 51.46875 47.265625 
Q 52.734375 56.84375 47.65625 66.609375 
Q 43.953125 73.046875 39.265625 75.09375 
Q 34.578125 77.15625 26.953125 75.984375 
L 18.359375 74.8125 
L 18.359375 85.359375 
Q 18.359375 95.90625 15.234375 97.265625 
Q 9.375 99.609375 8.203125 97.078125 
z
M 38.09375 66.015625 
Q 40.234375 63.484375 41.40625 52.734375 
Q 42 46.09375 41.40625 43.453125 
Q 40.828125 40.828125 38.09375 38.09375 
Q 34.1875 34.1875 29.203125 34.1875 
Q 24.21875 34.1875 21.484375 38.28125 
Q 18.359375 42.78125 18.359375 52.4375 
Q 18.359375 62.109375 21.6875 65.625 
Q 24.609375 68.953125 29.984375 69.046875 
Q 35.359375 69.140625 38.09375 66.015625 
z
" id="subject2-98"/>
     <path d="M 8.984375 70.515625 
Q 7.8125 67 7.8125 47.078125 
L 7.8125 26.765625 
L 12.703125 26.765625 
Q 16.21875 26.765625 16.890625 28.71875 
Q 17.578125 30.671875 17.578125 41.015625 
Q 17.578125 54.109375 20.015625 59.46875 
Q 22.46875 64.84375 28.71875 65.4375 
Q 32.421875 65.828125 33.390625 66.703125 
Q 34.375 67.578125 33.796875 69.921875 
Q 32.8125 73.046875 29.296875 73.53125 
Q 25.78125 74.03125 21.296875 71.6875 
Q 17.578125 69.734375 17.578125 71.6875 
Q 17.578125 73.25 15.71875 73.640625 
Q 13.875 74.03125 11.71875 73.140625 
Q 9.578125 72.265625 8.984375 70.515625 
z
" id="subject2-114"/>
     <path d="M 13.671875 72.078125 
Q 5.671875 63.875 5.953125 53.21875 
Q 6.25 42.578125 14.65625 34.96875 
Q 25.984375 25.203125 39.84375 31.453125 
Q 50.390625 36.328125 52.140625 50.390625 
Q 53.90625 64.453125 44.921875 72.46875 
Q 41.21875 75.78125 38.1875 76.859375 
Q 35.15625 77.9375 29.296875 77.9375 
Q 23.25 77.9375 20.40625 76.859375 
Q 17.578125 75.78125 13.671875 72.078125 
z
M 29.109375 72.078125 
Q 33.015625 72.078125 36.921875 68.171875 
Q 40.828125 64.265625 40.828125 53.71875 
Q 40.828125 44.734375 38.28125 40.828125 
Q 35.75 36.921875 29.6875 36.921875 
Q 23.25 36.921875 20.3125 40.921875 
Q 17.390625 44.921875 17.390625 53.90625 
Q 17.390625 62.3125 20.515625 67.1875 
Q 23.640625 72.078125 29.109375 72.078125 
z
" id="subject2-111"/>
     <path d="M 3.515625 73.828125 
Q 2.546875 72.078125 9.96875 49.8125 
Q 14.453125 36.140625 16.59375 31.546875 
Q 18.75 26.953125 21.296875 26.765625 
Q 23.828125 26.375 25.484375 29.109375 
Q 27.15625 31.84375 30.46875 42 
Q 31.84375 46.296875 33.296875 49.703125 
Q 34.765625 53.125 35.734375 55.078125 
Q 36.71875 57.03125 37.109375 56.84375 
Q 38.671875 55.671875 43.171875 41.015625 
Q 46.09375 31.84375 47.65625 29.203125 
Q 49.21875 26.5625 51.5625 26.765625 
Q 53.71875 26.953125 56.15625 31.734375 
Q 58.59375 36.53125 63.09375 49.609375 
Q 70.90625 71.6875 68.953125 73.640625 
Q 63.671875 78.90625 59.1875 64.84375 
L 57.8125 59.96875 
Q 54.5 46.484375 52.9375 43.953125 
Q 51.5625 41.796875 51.171875 42.390625 
Q 50.203125 43.359375 44.921875 61.140625 
Q 42.390625 70.3125 40.828125 72.75 
Q 39.265625 75.203125 36.71875 74.8125 
Q 34.375 74.421875 32.515625 71.1875 
Q 30.671875 67.96875 28.125 58.984375 
Q 23.640625 43.953125 21.875 44.734375 
Q 20.3125 45.703125 17 58.015625 
Q 13.09375 72.078125 7.625 75 
Q 5.078125 76.375 3.515625 73.828125 
z
" id="subject2-119"/>
     <path d="M 25.59375 75.984375 
Q 22.65625 73.828125 15.4375 75.203125 
L 8.015625 76.375 
L 8.015625 52.9375 
Q 8.015625 29.6875 9.1875 28.515625 
Q 10.359375 27.34375 14.0625 28.328125 
Q 16.609375 29.109375 17.1875 31.9375 
Q 17.78125 34.765625 17.78125 45.703125 
Q 17.78125 56.25 18.5625 59.953125 
Q 19.34375 63.671875 21.875 66.21875 
Q 25.78125 69.921875 30.078125 69.328125 
Q 34.375 68.75 36.71875 64.0625 
Q 39.265625 58.984375 39.265625 44.140625 
Q 39.265625 32.8125 40.53125 29.6875 
Q 41.796875 26.5625 45.703125 27.9375 
Q 48.828125 29.296875 47.84375 49.015625 
Q 46.875 68.75 43.359375 72.265625 
Q 40.4375 75.390625 34.46875 76.65625 
Q 28.515625 77.9375 25.59375 75.984375 
z
" id="subject2-110"/>
     <path d="M 19.734375 94.921875 
Q 14.65625 91.015625 13.671875 84.1875 
Q 12.3125 77.15625 9.375 75.984375 
Q 3.90625 73.828125 9.578125 68.359375 
Q 12.5 65.4375 12.5 48.4375 
Q 12.5 41.609375 12.796875 37.3125 
Q 13.09375 33.015625 13.875 30.375 
Q 14.65625 27.734375 15.921875 27.140625 
Q 17.1875 26.5625 19.140625 27.15625 
Q 20.90625 27.9375 21.6875 32.03125 
Q 22.46875 36.140625 22.65625 47.46875 
Q 23.046875 60.75 23.828125 63.96875 
Q 24.609375 67.1875 27.734375 68.5625 
Q 31.84375 70.515625 31.84375 72.859375 
Q 31.84375 75.203125 27.734375 75.78125 
Q 23.4375 76.375 22.453125 80.171875 
Q 21.484375 83.984375 24.125 87.5 
Q 26.765625 91.015625 31.25 91.015625 
Q 35.546875 91.015625 35.84375 92.875 
Q 36.140625 94.734375 32.234375 96.875 
Q 28.328125 99.03125 26.171875 98.640625 
Q 24.03125 98.25 19.734375 94.921875 
z
" id="subject2-102"/>
     <path d="M 5.28125 73.640625 
Q 4.109375 71.296875 11.140625 61.53125 
L 18.359375 51.5625 
L 10.359375 40.234375 
Q 2.34375 29.109375 2.34375 27.734375 
Q 2.34375 26.765625 7.03125 26.765625 
Q 11.921875 26.765625 17 35.546875 
Q 18.953125 39.265625 21 41.5 
Q 23.046875 43.75 23.828125 43.359375 
Q 25.78125 42.1875 29.890625 34.578125 
Q 34.578125 26.765625 38.484375 26.765625 
Q 43.5625 26.765625 43.5625 28.90625 
Q 43.5625 31.0625 37.3125 39.453125 
Q 29.6875 49.609375 29.6875 51.953125 
Q 29.6875 54.296875 36.53125 63.28125 
Q 43.5625 72.265625 41.609375 74.21875 
Q 39.453125 76.375 36.03125 74.3125 
Q 32.625 72.265625 29.5 66.796875 
Q 25.203125 59.765625 23.640625 60.359375 
Q 22.078125 61.140625 17.578125 67.78125 
Q 13.875 73.046875 10.453125 74.703125 
Q 7.03125 76.375 5.28125 73.640625 
z
" id="subject2-120"/>
    </defs>
    <g transform="translate(7.2 27.2)scale(0.2 -0.2)">
     <use xlink:href="#subject2-84"/>
     <use x="57.226562" xlink:href="#subject2-104"/>
     <use x="113.085938" xlink:href="#subject2-101"/>
     <use x="168.164062" xlink:href="#subject2-32"/>
     <use x="199.414062" xlink:href="#subject2-113"/>
     <use x="256.640625" xlink:href="#subject2-117"/>
     <use x="312.304688" xlink:href="#subject2-105"/>
     <use x="336.132812" xlink:href="#subject2-99"/>
     <use x="383.203125" xlink:href="#subject2-107"/>
     <use x="430.664062" xlink:href="#subject2-32"/>
     <use x="461.914062" xlink:href="#subject2-98"/>
     <use x="520.507812" xlink:href="#subject2-114"/>
     <use x="557.226562" xlink:href="#subject2-111"/>
     <use x="616.992188" xlink:href="#subject2-119"/>
     <use x="690.625" xlink:href="#subject2-110"/>
     <use x="747.265625" xlink:href="#subject2-32"/>
     <use x="778.515625" xlink:href="#subject2-102"/>
     <use x="813.867188" xlink:href="#subject2-111"/>
     <use x="873.632812" xlink:href="#subject2-120"/>
    </g>
   </g>
  </g>
 </g>
</svg>
