<?xml version="1.0" encoding="utf-8" standalone="no"?>
<!DOCTYPE svg PUBLIC "-//W3C//DTD SVG 1.1//EN"
  "http://www.w3.org/Graphics/SVG/1.1/DTD/svg11.dtd">
<!-- Created with matplotlib (https://matplotlib.org/) -->
<svg height="25pt" version="1.1" viewBox="0 5 201.6 25" width="201.6pt" xmlns="http://www.w3.org/2000/svg" xmlns:xlink="http://www.w3.org/1999/xlink">
 <defs>
  <style type="text/css">
*{stroke-linecap:butt;stroke-linejoin:round;}
  </style>
 </defs>
 <g id="figure_1">
  <g id="patch_1">
  </g>
  <g id="axes_1">
   <g id="text_1">
    <!-- The quick brown fox -->
    <defs>
     <path d="M 1.953125 85.15625 
Q 0 83.015625 2.546875 82.421875 
Q 4.296875 82.234375 9.578125 82.234375 
L 19.53125 82.234375 
L 19.53125 50.78125 
L 19.53125 19.53125 
L 24.03125 20.125 
Q 25 20.3125 25.484375 20.40625 
Q 25.984375 20.515625 26.5625 21 
Q 27.15625 21.484375 27.34375 22.265625 
Q 27.546875 23.046875 27.828125 24.609375 
Q 28.125 26.171875 28.21875 28.3125 
Q 28.328125 30.46875 28.515625 33.78125 
Q 28.71875 37.109375 28.71875 41.3125 
Q 28.71875 45.515625 28.90625 51.375 
L 28.90625 51.5625 
L 29.5 82.234375 
L 39.0625 82.234375 
Q 49.421875 82.234375 48.828125 84.578125 
Q 48.4375 85.75 44.53125 86.921875 
Q 39.453125 88.09375 22.265625 88.09375 
Q 4.296875 88.09375 1.953125 85.15625 
z
" id="subject8-84"/>
     <path d="M 4.109375 86.53125 
Q 3.90625 85.75 3.90625 52.734375 
Q 3.90625 29.6875 4.484375 25 
Q 5.078125 20.3125 8.015625 19.921875 
Q 10.75 19.53125 11.328125 21.96875 
Q 11.921875 24.421875 11.921875 36.71875 
Q 11.921875 51.171875 14.359375 55.859375 
Q 16.796875 60.546875 24.421875 60.546875 
Q 29.5 60.546875 31.453125 55.078125 
Q 33.40625 49.609375 33.40625 34.96875 
Q 33.40625 24.421875 33.984375 21.96875 
Q 34.578125 19.53125 37.3125 19.53125 
Q 40.046875 19.53125 40.625 22.265625 
Q 41.21875 25 41.21875 37.890625 
Q 41.21875 49.421875 40.4375 53.71875 
Q 39.65625 58.015625 37.109375 61.328125 
Q 33.015625 66.40625 25.59375 66.40625 
Q 17.78125 66.40625 16.796875 64.453125 
Q 12.5 57.421875 11.53125 74.609375 
Q 11.328125 81.84375 10.546875 84.46875 
Q 9.765625 87.109375 7.625 87.5 
Q 4.109375 88.28125 4.109375 86.53125 
z
" id="subject8-104"/>
     <path d="M 10.546875 63.875 
Q 6.84375 60.546875 5.46875 57.515625 
Q 4.109375 54.5 3.515625 48.640625 
Q 2.34375 34.1875 10.84375 26.375 
Q 19.34375 18.5625 32.421875 22.265625 
Q 39.0625 24.21875 39.453125 27.15625 
Q 39.84375 29.296875 34.96875 28.71875 
Q 14.453125 26.171875 12.3125 39.0625 
Q 11.921875 41.609375 14.15625 42.390625 
Q 16.40625 43.171875 26.375 43.953125 
L 41.015625 44.921875 
L 41.609375 51.375 
Q 42.390625 57.625 36.328125 63.484375 
Q 24.03125 75.78125 10.546875 63.875 
z
M 30.671875 60.15625 
Q 34.1875 57.03125 34.1875 53.328125 
Q 34.1875 51.171875 32.234375 50.484375 
Q 30.28125 49.8125 23.4375 49.8125 
Q 16.40625 49.8125 14.546875 50.484375 
Q 12.703125 51.171875 12.703125 53.515625 
Q 12.703125 60.15625 19.140625 62.5 
Q 25.59375 64.84375 30.671875 60.15625 
z
" id="subject8-101"/>
     <path id="subject8-32"/>
     <path d="M 10.359375 63.28125 
Q 4.890625 57.8125 3.609375 52.25 
Q 2.34375 46.6875 4.5 38.671875 
Q 7.03125 29.109375 11.8125 25.390625 
Q 16.609375 21.6875 25.78125 22.265625 
L 35.75 23.046875 
L 35.75 14.265625 
Q 35.75 7.421875 37.5 4 
Q 39.265625 0.59375 42.390625 1.765625 
Q 44.53125 2.734375 44.140625 35.25 
Q 43.75 67.78125 41.609375 68.5625 
Q 39.265625 69.34375 36.921875 67 
Q 33.984375 65.046875 32.8125 67 
Q 31.640625 68.953125 23.828125 68.953125 
Q 16.015625 68.953125 10.359375 63.28125 
z
M 32.625 58.796875 
Q 35.9375 54.296875 35.734375 44.140625 
Q 35.546875 33.984375 32.234375 29.890625 
Q 29.109375 25.984375 23.828125 26.765625 
Q 18.5625 27.546875 15.234375 32.421875 
Q 12.3125 36.53125 12.40625 45.609375 
Q 12.5 54.6875 15.4375 58.796875 
Q 18.359375 63.09375 24.015625 63.09375 
Q 29.6875 63.09375 32.625 58.796875 
z
" id="subject8-113"/>
     <path d="M 4.890625 66.796875 
Q 3.90625 66.015625 4.59375 49.703125 
Q 5.28125 33.40625 6.640625 27.734375 
Q 7.421875 23.25 13.671875 20.90625 
Q 19.921875 18.5625 25.78125 20.703125 
Q 32.03125 22.859375 35.9375 21.875 
Q 40.046875 20.90625 41.40625 22.65625 
Q 42.96875 25.390625 41.3125 46.671875 
Q 39.65625 67.96875 37.703125 67.96875 
Q 32.8125 67.96875 32.8125 45.125 
Q 32.8125 35.9375 32.03125 33 
Q 31.25 30.078125 28.515625 28.125 
Q 20.703125 22.65625 16.984375 27.046875 
Q 13.28125 31.453125 13.28125 46.484375 
Q 13.28125 61.328125 12.109375 64.84375 
Q 11.328125 67.1875 8.984375 67.765625 
Q 6.640625 68.359375 4.890625 66.796875 
z
" id="subject8-117"/>
     <path d="M 4.296875 83.59375 
Q 5.078125 78.71875 8.40625 78.328125 
Q 10.9375 78.125 11.53125 81.25 
L 11.71875 82.8125 
Q 11.71875 85.75 10.84375 86.8125 
Q 9.96875 87.890625 7.625 87.890625 
Q 5.46875 87.890625 4.6875 87.015625 
Q 3.90625 86.140625 4.296875 83.59375 
z
M 5.078125 66.40625 
Q 3.90625 59.578125 3.90625 42.96875 
Q 3.90625 26.375 4.484375 22.953125 
Q 5.078125 19.53125 7.8125 19.53125 
Q 10.546875 19.53125 11.125 22.953125 
Q 11.71875 26.375 11.71875 42.96875 
Q 11.71875 59.578125 11.125 62.984375 
Q 10.546875 66.40625 7.8125 66.40625 
Q 5.078125 66.40625 3.90625 59.578125 
z
" id="subject8-105"/>
     <path d="M 18.75 68.359375 
Q 13.875 66.40625 9.1875 61.71875 
Q 4.5 57.03125 3.421875 54.296875 
Q 2.34375 51.5625 2.34375 44.140625 
Q 2.34375 37.5 3.3125 34.28125 
Q 4.296875 31.0625 7.234375 27.546875 
Q 11.53125 22.46875 19.140625 20.515625 
Q 26.765625 18.5625 31.640625 21.296875 
Q 37.703125 24.609375 33.984375 26.5625 
Q 31.453125 27.9375 25.203125 27.34375 
Q 18.953125 26.953125 17.09375 27.828125 
Q 15.234375 28.71875 13.28125 32.8125 
Q 7.421875 44.140625 12.3125 54.6875 
Q 16.21875 63.28125 23.25 62.5 
Q 26.765625 62.109375 30.078125 59.1875 
Q 31.640625 57.625 32.421875 57.234375 
Q 33.203125 56.84375 33.6875 57.234375 
Q 34.1875 57.625 34.765625 59.1875 
Q 36.140625 62.703125 33.59375 64.75 
Q 31.0625 66.796875 24.03125 67.578125 
Q 18.75 68.359375 13.875 66.40625 
z
" id="subject8-99"/>
     <path d="M 5.078125 87.890625 
Q 3.90625 78.328125 3.90625 53.71875 
Q 3.90625 29.109375 4.484375 24.3125 
Q 5.078125 19.53125 7.8125 19.53125 
Q 10.359375 19.53125 11.03125 21.28125 
Q 11.71875 23.046875 11.71875 29.296875 
Q 11.71875 48.828125 25.203125 29.296875 
Q 32.03125 19.53125 36.515625 19.53125 
Q 41.015625 19.53125 41.015625 20.703125 
Q 41.015625 21.6875 32.234375 32.625 
Q 23.4375 43.171875 23.4375 45.703125 
Q 23.4375 47.859375 28.125 52.9375 
Q 33.015625 58.203125 34.96875 62.109375 
Q 37.5 67 34.578125 66.796875 
Q 30.078125 66.40625 23.25 58.40625 
L 22.65625 57.625 
Q 15.234375 48.828125 13.46875 48.828125 
Q 11.71875 48.828125 11.71875 68.359375 
Q 11.71875 82.03125 11.125 84.953125 
Q 10.546875 87.890625 7.8125 87.890625 
Q 5.078125 87.890625 3.90625 78.328125 
z
" id="subject8-107"/>
     <path d="M 4.5 82.421875 
Q 5.859375 78.328125 5.859375 48.640625 
L 5.859375 19.34375 
L 20.125 18.75 
Q 30.078125 18.5625 33.109375 19.234375 
Q 36.140625 19.921875 39.65625 23.25 
Q 46.6875 30.46875 46.296875 42.28125 
Q 45.90625 54.109375 38.28125 61.140625 
Q 30.859375 68.359375 18.171875 64.453125 
Q 15.046875 63.484375 14.359375 64.84375 
Q 13.671875 66.21875 13.28125 74.421875 
Q 12.890625 82.234375 12.015625 84.078125 
Q 11.140625 85.9375 8.015625 86.328125 
Q 4.890625 86.71875 4.296875 86.125 
Q 3.71875 85.546875 4.5 82.421875 
z
M 32.234375 56.453125 
Q 35.15625 53.71875 36.125 50.875 
Q 37.109375 48.046875 37.109375 42.390625 
Q 37.109375 24.21875 24.421875 24.21875 
Q 18.171875 24.21875 15.921875 28.03125 
Q 13.671875 31.84375 13.671875 42.96875 
Q 13.671875 56.0625 19.234375 60.0625 
Q 24.8125 64.0625 32.234375 56.453125 
z
" id="subject8-98"/>
     <path d="M 5.078125 66.609375 
Q 3.90625 59.578125 3.90625 43.171875 
Q 3.90625 26.765625 4.484375 23.25 
Q 5.078125 19.734375 7.609375 19.734375 
Q 10.15625 19.734375 10.84375 22.5625 
Q 11.53125 25.390625 12.109375 37.3125 
Q 12.5 51.375 14.453125 55.078125 
Q 16.40625 58.796875 23.046875 58.796875 
Q 27.34375 58.796875 27.34375 62.703125 
Q 27.34375 66.015625 23.140625 66.59375 
Q 18.953125 67.1875 15.828125 64.265625 
Q 14.65625 63.28125 14.0625 62.984375 
Q 13.484375 62.703125 13.09375 62.984375 
Q 12.703125 63.28125 12.3125 64.265625 
Q 11.140625 66.609375 7.625 66.609375 
Q 5.078125 66.609375 3.90625 59.578125 
z
" id="subject8-114"/>
     <path d="M 15.046875 66.015625 
Q 7.625 62.109375 4.984375 53.3125 
Q 2.34375 44.53125 5.171875 35.84375 
Q 8.015625 27.15625 15.4375 23.25 
Q 24.421875 18.5625 33.203125 22.265625 
Q 42 25.984375 44.921875 35.75 
Q 47.265625 43.75 45.609375 51.265625 
Q 43.953125 58.796875 39.359375 63.09375 
Q 34.765625 67.390625 28.421875 68.75 
Q 22.078125 70.125 15.046875 66.015625 
z
M 33.984375 58.796875 
Q 36.921875 54.296875 37.796875 48.828125 
Q 38.671875 43.359375 37.5 38.96875 
Q 36.328125 34.578125 33.78125 30.953125 
Q 31.25 27.34375 27.53125 26.65625 
Q 23.828125 25.984375 19.53125 27.9375 
Q 16.015625 29.890625 13.578125 37.703125 
Q 11.140625 45.515625 12.703125 50.203125 
Q 13.671875 54.296875 16.609375 58.984375 
Q 19.53125 63.484375 25.1875 63.375 
Q 30.859375 63.28125 33.984375 58.796875 
z
" id="subject8-111"/>
     <path d="M 30.078125 65.625 
Q 28.515625 63.875 23.640625 49.03125 
Q 19.34375 34.765625 17.390625 34.765625 
Q 15.625 34.765625 15.625 36.921875 
Q 15.625 39.453125 11.71875 52.546875 
Q 9.1875 60.546875 7.625 63.28125 
Q 6.0625 66.015625 3.90625 66.015625 
Q 0 66.015625 0 64.84375 
Q 0 62.890625 7.234375 41.21875 
Q 9.578125 33.984375 11.140625 29.78125 
Q 12.703125 25.59375 14.265625 22.859375 
Q 15.828125 20.125 16.890625 19.828125 
Q 17.96875 19.53125 19.53125 21.28125 
Q 21.09375 23.046875 22.453125 26.359375 
Q 23.828125 29.6875 25.984375 35.75 
Q 31.25 50.984375 32.03125 51.765625 
Q 32.234375 51.953125 33.109375 50 
Q 33.984375 48.046875 35.34375 44.4375 
Q 36.71875 40.828125 38.28125 36.328125 
Q 40.4375 30.078125 41.890625 26.5625 
Q 43.359375 23.046875 44.921875 21.1875 
Q 46.484375 19.34375 47.65625 19.734375 
Q 48.828125 20.125 50.484375 23.046875 
Q 52.15625 25.984375 53.8125 30.375 
Q 55.46875 34.765625 58.015625 42.578125 
Q 64.65625 63.484375 63.875 65.046875 
Q 63.484375 65.828125 61.71875 65.625 
Q 59.375 65.4375 57.71875 62.109375 
Q 56.0625 58.796875 53.328125 49.609375 
Q 49.03125 33.984375 48.046875 33.40625 
Q 47.265625 32.421875 41.609375 49.609375 
Q 35.9375 67.390625 32.625 67.578125 
Q 31.453125 67.578125 30.078125 65.625 
z
" id="subject8-119"/>
     <path d="M 5.46875 64.65625 
Q 4.5 63.09375 4.109375 41.609375 
Q 4.109375 26.765625 4.6875 23.640625 
Q 5.28125 20.515625 8.203125 20.125 
Q 11.140625 19.734375 11.71875 22.078125 
Q 12.3125 24.421875 12.3125 36.921875 
Q 12.3125 51.375 14.75 56.0625 
Q 17.1875 60.75 24.8125 60.75 
Q 29.890625 60.75 31.84375 55.28125 
Q 33.796875 49.8125 33.796875 35.15625 
Q 33.796875 24.609375 34.375 22.171875 
Q 34.96875 19.734375 37.703125 19.734375 
Q 40.4375 19.734375 41.015625 22.359375 
Q 41.609375 25 41.609375 37.5 
Q 41.609375 60.75 34.96875 65.046875 
Q 32.234375 66.796875 25.390625 66.5 
Q 18.5625 66.21875 16.609375 64.265625 
Q 14.265625 61.921875 11.921875 64.265625 
Q 7.8125 68.359375 5.46875 64.65625 
z
" id="subject8-110"/>
     <path d="M 10.359375 85.359375 
Q 6.453125 81.453125 6.453125 76.765625 
Q 6.453125 72.078125 3.125 68.75 
Q 0.984375 66.609375 0.875 65.234375 
Q 0.78125 63.875 2.546875 61.140625 
Q 5.078125 57.234375 5.859375 40.4375 
Q 6.84375 20.703125 8.59375 19.921875 
Q 9.375 19.53125 11.140625 20.90625 
Q 13.875 23.25 12.890625 36.328125 
Q 11.921875 48.4375 13.96875 56.15625 
Q 16.015625 63.875 20.3125 63.875 
Q 21.875 63.875 22.65625 64.453125 
Q 23.4375 65.046875 23.046875 65.828125 
Q 22.078125 67.78125 17.96875 67.78125 
Q 10.359375 67.78125 14.0625 78.125 
Q 16.21875 83.40625 21.09375 83.40625 
Q 25.984375 83.40625 25.984375 86.328125 
Q 25.984375 88.484375 23.046875 89.0625 
Q 20.125 89.65625 16.40625 88.671875 
Q 12.703125 87.703125 10.359375 85.359375 
z
" id="subject8-102"/>
     <path d="M 2.734375 68.359375 
Q 1.5625 65.4375 7.625 57.03125 
Q 13.671875 48.828125 13.671875 46.875 
Q 13.671875 44.921875 6.84375 35.546875 
Q 0 25.78125 0 23.828125 
Q 0 19.734375 5.078125 23.640625 
Q 8.984375 26.375 12.5 31.640625 
Q 12.890625 32.234375 13.671875 33.40625 
Q 17.390625 38.875 18.953125 38.375 
Q 20.515625 37.890625 26.5625 29.5 
Q 26.953125 29.109375 27.140625 28.90625 
Q 27.34375 28.71875 27.53125 28.328125 
Q 27.734375 27.9375 28.03125 27.640625 
Q 28.328125 27.34375 28.515625 26.953125 
Q 32.421875 21.296875 35.9375 22.65625 
Q 38.09375 23.640625 37.3125 25.78125 
Q 36.53125 27.9375 31.25 35.75 
L 23.25 47.65625 
L 30.28125 57.234375 
Q 37.5 67 36.140625 68.953125 
Q 34.96875 70.3125 33.015625 69.828125 
Q 31.0625 69.34375 28.515625 66.796875 
Q 25.984375 64.265625 24.421875 60.9375 
Q 21.6875 55.671875 19.625 55.953125 
Q 17.578125 56.25 13.28125 62.890625 
Q 5.46875 74.609375 2.734375 68.359375 
z
" id="subject8-120"/>
    </defs>
    <g transform="translate(7.2 26.64)scale(0.2 -0.2)">
     <use xlink:href="#subject8-84"/>
     <use x="49.21875" xlink:href="#subject8-104"/>
     <use x="94.335938" xlink:href="#subject8-101"/>
     <use x="138.867188" xlink:href="#subject8-32"/>
     <use x="162.109375" xlink:href="#subject8-113"/>
     <use x="210.351562" xlink:href="#subject8-117"/>
     <use x="257.226562" xlink:href="#subject8-105"/>
     <use x="272.460938" xlink:href="#subject8-99"/>
     <use x="311.328125" xlink:href="#subject8-107"/>
     <use x="351.5625" xlink:href="#subject8-32"/>
     <use x="374.804688" xlink:href="#subject8-98"/>
     <use x="423.828125" xlink:href="#subject8-114"/>
     <use x="450.585938" xlink:href="#subject8-111"/>
     <use x="500.390625" xlink:href="#subject8-119"/>
     <use x="564.648438" xlink:href="#subject8-110"/>
     <use x="610.15625" xlink:href="#subject8-32"/>
     <use x="633.398438" xlink:href="#subject8-102"/>
     <use x="656.25" xlink:href="#subject8-111"/>
     <use x="706.054688" xlink:href="#subject8-120"/>
    </g>
   </g>
  </g>
 </g>
</svg>
