<?xml version="1.0" encoding="utf-8" standalone="no"?>
<!DOCTYPE svg PUBLIC "-//W3C//DTD SVG 1.1//EN"
  "http://www.w3.org/Graphics/SVG/1.1/DTD/svg11.dtd">
<!-- Created with matplotlib (https://matplotlib.org/) -->
<svg height="25pt" version="1.1" viewBox="0 5 201.6 25" width="201.6pt" xmlns="http://www.w3.org/2000/svg" xmlns:xlink="http://www.w3.org/1999/xlink">
 <defs>
  <style type="text/css">
*{stroke-linecap:butt;stroke-linejoin:round;}
  </style>
 </defs>
 <g id="figure_1">
  <g id="patch_1">
  </g>
  <g id="axes_1">
   <g id="text_1">
    <!-- The quick brown fox -->
    <defs>
     <path d="M 4.6875 87.703125 
Q 0.78125 83.59375 9.1875 83.015625 
L 12.109375 83.015625 
L 20.90625 83.015625 
L 20.90625 51.5625 
L 20.90625 20.3125 
L 25.390625 20.90625 
Q 26.375 21.09375 26.859375 21.1875 
Q 27.34375 21.296875 27.921875 21.78125 
Q 28.515625 22.265625 28.703125 23.046875 
Q 28.90625 23.828125 29.203125 25.390625 
Q 29.5 26.953125 29.59375 29.09375 
Q 29.6875 31.25 29.875 34.5625 
Q 30.078125 37.890625 30.078125 42.09375 
Q 30.078125 46.296875 30.28125 52.15625 
L 30.28125 52.34375 
L 30.859375 83.015625 
L 39.65625 83.015625 
Q 44.34375 83.015625 46.296875 83.59375 
Q 48.25 84.1875 47.859375 85.546875 
Q 47.078125 87.5 26.859375 88.46875 
Q 6.640625 89.453125 4.6875 87.703125 
z
" id="subject6-84"/>
     <path d="M 5.671875 55.078125 
Q 5.671875 23.828125 7.03125 21.296875 
Q 7.8125 20.3125 9.1875 20.515625 
Q 11.140625 20.90625 11.921875 24.21875 
Q 12.703125 27.546875 13.09375 38.671875 
Q 13.484375 53.328125 16.015625 58.203125 
Q 18.5625 63.09375 25.390625 63.09375 
Q 31.0625 63.09375 33.015625 58.296875 
Q 34.96875 53.515625 34.96875 39.0625 
Q 34.96875 22.65625 37.703125 21.484375 
Q 39.453125 21.296875 40.421875 21.09375 
Q 41.40625 20.90625 41.890625 23.34375 
Q 42.390625 25.78125 42.578125 29.484375 
Q 42.78125 33.203125 42.78125 40.625 
Q 42.78125 51.953125 42.09375 56.25 
Q 41.40625 60.546875 38.875 63.484375 
Q 35.15625 68.359375 31.15625 69.234375 
Q 27.15625 70.125 20.515625 67.96875 
L 13.484375 65.4375 
L 13.484375 77.9375 
Q 13.484375 86.328125 12.796875 88.375 
Q 12.109375 90.4375 9.578125 90.4375 
Q 6.84375 90.4375 6.25 85.453125 
Q 5.671875 80.46875 5.671875 55.078125 
z
" id="subject6-104"/>
     <path d="M 10.75 63.28125 
Q 3.515625 56.0625 3.515625 43.75 
Q 3.515625 31.453125 10.75 24.8125 
Q 14.265625 21.6875 22.953125 20.609375 
Q 31.640625 19.53125 35.9375 21.6875 
Q 41.015625 24.421875 38.484375 25.984375 
Q 36.53125 27.34375 31.640625 26.5625 
Q 24.8125 25.390625 19.828125 27.734375 
Q 14.84375 30.078125 13.09375 35.546875 
Q 10.9375 41.015625 13.078125 42.1875 
Q 15.234375 43.359375 28.328125 43.75 
L 41.015625 44.34375 
L 41.609375 50.78125 
Q 42.390625 57.03125 36.328125 62.890625 
Q 30.46875 68.953125 23.53125 68.953125 
Q 16.609375 68.953125 10.75 63.28125 
z
M 30.671875 59.578125 
Q 34.1875 56.453125 34.1875 52.734375 
Q 34.1875 50.59375 32.234375 49.90625 
Q 30.28125 49.21875 23.4375 49.21875 
Q 16.40625 49.21875 14.546875 49.90625 
Q 12.703125 50.59375 12.703125 52.9375 
Q 12.703125 59.578125 19.140625 61.921875 
Q 25.59375 64.265625 30.671875 59.578125 
z
" id="subject6-101"/>
     <path id="subject6-32"/>
     <path d="M 10.15625 64.84375 
Q 3.71875 58.40625 3.90625 45.21875 
Q 4.109375 32.03125 10.75 25.984375 
Q 14.453125 22.65625 19.625 21.671875 
Q 24.8125 20.703125 29.296875 22.46875 
Q 33.203125 24.03125 33.890625 23.046875 
Q 34.578125 22.078125 34.578125 15.234375 
Q 34.578125 7.421875 36.03125 4.203125 
Q 37.5 0.984375 40.625 2.15625 
Q 42.1875 2.734375 42.671875 9.375 
Q 43.171875 16.015625 42.78125 36.328125 
Q 42.1875 66.796875 39.84375 69.34375 
Q 38.28125 70.515625 35.15625 67.390625 
Q 33.015625 65.234375 31.84375 67.390625 
Q 29.890625 70.515625 21.875 69.53125 
Q 13.875 68.5625 10.15625 64.84375 
z
M 31.0625 60.359375 
Q 34.96875 56.84375 34.859375 45.015625 
Q 34.765625 33.203125 30.859375 29.6875 
Q 26.953125 26.171875 21.484375 27.9375 
Q 14.0625 30.46875 11.90625 38.765625 
Q 9.765625 47.078125 13.875 56.84375 
Q 15.625 60.9375 17.28125 62.296875 
Q 18.953125 63.671875 22.078125 63.671875 
Q 27.734375 63.671875 31.0625 60.359375 
z
" id="subject6-113"/>
     <path d="M 5.859375 66.796875 
Q 5.671875 65.4375 6.0625 46.6875 
Q 6.25 35.75 7.03125 31.640625 
Q 7.8125 27.546875 10.546875 24.8125 
Q 13.671875 21.09375 19.328125 20.40625 
Q 25 19.734375 29.890625 22.46875 
Q 33.796875 24.421875 35.546875 22.078125 
Q 36.921875 19.53125 39.65625 21.6875 
Q 42.1875 23.828125 41.609375 46.6875 
Q 41.40625 54.890625 41.203125 58.796875 
Q 41.015625 62.703125 40.53125 65.328125 
Q 40.046875 67.96875 39.453125 68.453125 
Q 38.875 68.953125 37.703125 68.75 
Q 35.546875 68.359375 34.765625 64.75 
Q 33.984375 61.140625 33.40625 49.609375 
Q 32.625 36.328125 31.734375 33.296875 
Q 30.859375 30.28125 27.15625 28.125 
Q 19.921875 24.21875 17.375 28.125 
Q 14.84375 32.03125 13.875 48.828125 
Q 13.28125 60.9375 12.5 64.640625 
Q 11.71875 68.359375 9.578125 68.75 
Q 6.25 69.34375 5.859375 66.796875 
z
" id="subject6-117"/>
     <path d="M 5.859375 84.375 
Q 6.640625 79.890625 9.375 79.890625 
Q 12.109375 79.890625 12.890625 84.375 
Q 13.28125 86.921875 12.5 87.796875 
Q 11.71875 88.671875 9.375 88.671875 
Q 7.03125 88.671875 6.25 87.796875 
Q 5.46875 86.921875 5.859375 84.375 
z
M 6.84375 67.78125 
Q 5.46875 66.796875 5.46875 43.359375 
Q 5.46875 26.953125 6.046875 23.625 
Q 6.640625 20.3125 9.375 20.3125 
Q 12.109375 20.3125 12.6875 23.828125 
Q 13.28125 27.34375 13.28125 44.734375 
Q 13.28125 69.140625 10.75 69.140625 
Q 7.8125 69.140625 6.84375 67.78125 
z
" id="subject6-105"/>
     <path d="M 9.96875 62.5 
Q 5.46875 58.40625 4.484375 55.671875 
Q 3.515625 52.9375 3.515625 43.953125 
Q 3.515625 35.546875 4.390625 32.421875 
Q 5.28125 29.296875 8.59375 25.984375 
Q 15.046875 19.53125 25.78125 19.53125 
Q 34.375 19.53125 34.765625 24.21875 
Q 34.765625 25.203125 34.375 26.375 
Q 33.203125 29.296875 31.25 27.34375 
Q 28.71875 24.8125 24.3125 25.296875 
Q 19.921875 25.78125 16.21875 28.71875 
Q 11.328125 32.625 10.640625 42.09375 
Q 9.96875 51.5625 14.265625 57.03125 
Q 17.390625 60.9375 22.265625 62.109375 
Q 27.15625 63.28125 28.90625 60.359375 
Q 30.28125 57.8125 32.03125 58.5 
Q 33.796875 59.1875 33.796875 62.109375 
Q 33.796875 68.171875 20.703125 68.171875 
Q 16.40625 68.171875 9.96875 62.5 
z
" id="subject6-99"/>
     <path d="M 6.0625 58.40625 
Q 6.453125 35.9375 7.03125 29.78125 
Q 7.625 23.640625 9.578125 23.640625 
Q 12.5 23.640625 13.09375 33.984375 
Q 13.484375 40.625 14.84375 42.671875 
Q 16.21875 44.734375 18.84375 42.875 
Q 21.484375 41.015625 26.5625 34.578125 
Q 37.3125 20.3125 41.21875 24.21875 
Q 42.96875 25.984375 34.765625 36.53125 
Q 33.015625 38.875 30.5625 42 
Q 28.125 45.125 26.75 46.875 
Q 25.390625 48.640625 25 49.21875 
Q 23.25 51.171875 31.453125 60.9375 
Q 38.484375 69.34375 37.3125 70.703125 
Q 36.921875 71.09375 35.75 71.296875 
Q 32.234375 71.875 24.21875 62.890625 
Q 16.40625 53.90625 15.046875 53.90625 
Q 13.484375 53.90625 13.484375 73.4375 
Q 13.484375 87.3125 12.890625 90.140625 
Q 12.3125 92.96875 9.578125 92.96875 
Q 6.640625 92.96875 6.15625 88.375 
Q 5.671875 83.796875 6.0625 58.40625 
z
" id="subject6-107"/>
     <path d="M 5.28125 54.5 
L 5.28125 20.515625 
L 11.71875 20.3125 
Q 12.703125 20.3125 25.59375 19.734375 
Q 30.28125 19.34375 32.71875 20.40625 
Q 35.15625 21.484375 38.671875 25.390625 
Q 42.1875 29.296875 43.265625 32.421875 
Q 44.34375 35.546875 44.34375 42 
Q 44.34375 55.46875 37.203125 62.890625 
Q 30.078125 70.3125 20.3125 66.796875 
Q 18.953125 66.40625 17.28125 65.921875 
Q 15.625 65.4375 14.65625 65.234375 
L 13.875 64.84375 
Q 13.09375 64.84375 13.09375 76.5625 
Q 13.09375 84.375 12.40625 86.328125 
Q 11.71875 88.28125 9.1875 88.28125 
Q 6.453125 88.28125 5.859375 83.5 
Q 5.28125 78.71875 5.28125 54.5 
z
M 32.421875 57.8125 
Q 34.96875 55.46875 36.140625 44.53125 
Q 36.71875 37.3125 36.03125 34.765625 
Q 35.359375 32.234375 31.84375 28.71875 
Q 26.5625 23.640625 22.265625 25 
Q 16.21875 26.765625 14.65625 29.984375 
Q 13.09375 33.203125 13.09375 43.5625 
Q 13.09375 52.15625 13.875 54.984375 
Q 14.65625 57.8125 17.390625 59.765625 
Q 24.8125 65.046875 32.421875 57.8125 
z
" id="subject6-98"/>
     <path d="M 6.84375 67.390625 
Q 5.671875 60.546875 5.671875 43.9375 
Q 5.671875 27.34375 6.25 23.921875 
Q 6.84375 20.515625 9.578125 20.515625 
Q 12.3125 20.515625 12.890625 22.859375 
Q 13.484375 25.203125 13.484375 34.765625 
Q 13.484375 49.03125 15.046875 53.421875 
Q 16.609375 57.8125 22.46875 59.96875 
Q 29.109375 62.5 29.109375 64.84375 
Q 29.109375 66.609375 26.953125 67.09375 
Q 24.8125 67.578125 21.96875 66.796875 
Q 19.140625 66.015625 17 64.0625 
Q 13.484375 60.9375 13.484375 64.0625 
Q 13.484375 67.390625 9.578125 67.390625 
Q 6.84375 67.390625 5.671875 60.546875 
z
" id="subject6-114"/>
     <path d="M 13.09375 64.84375 
Q 6.84375 60.75 5.46875 56.453125 
Q 3.515625 50.78125 4.203125 41.59375 
Q 4.890625 32.421875 7.421875 28.515625 
Q 12.5 20.703125 22.953125 20.109375 
Q 33.40625 19.53125 39.65625 26.765625 
Q 42.578125 30.28125 43.265625 33.5 
Q 43.953125 36.71875 43.359375 45.703125 
Q 42.96875 54.5 41.890625 57.625 
Q 40.828125 60.75 37.3125 63.875 
Q 26.765625 72.859375 13.09375 64.84375 
z
M 32.8125 58.40625 
Q 36.328125 53.328125 36.03125 43.265625 
Q 35.75 33.203125 32.03125 29.5 
Q 25.203125 22.65625 18.84375 27.25 
Q 12.5 31.84375 12.5 43.75 
Q 12.5 54.109375 15.625 58.40625 
Q 18.5625 62.703125 24.21875 62.703125 
Q 29.890625 62.703125 32.8125 58.40625 
z
" id="subject6-111"/>
     <path d="M 3.515625 69.53125 
Q 1.171875 67.96875 2.9375 62.109375 
Q 4.890625 57.03125 9.96875 39.453125 
Q 13.671875 27.15625 16.109375 23.734375 
Q 18.5625 20.3125 21.1875 24.015625 
Q 23.828125 27.734375 27.9375 40.4375 
L 33.796875 58.40625 
L 39.265625 40.234375 
Q 42.78125 28.515625 44.4375 25.390625 
Q 46.09375 22.265625 48.640625 22.65625 
Q 50.984375 22.859375 53.03125 27.4375 
Q 55.078125 32.03125 58.984375 45.703125 
Q 66.21875 70.90625 62.109375 71.09375 
Q 61.328125 71.09375 60.15625 70.3125 
Q 58.59375 69.34375 53.90625 52.734375 
Q 53.125 50 52.4375 47.453125 
Q 51.765625 44.921875 51.078125 42.96875 
Q 50.390625 41.015625 49.796875 39.546875 
Q 49.21875 38.09375 48.734375 37.40625 
Q 48.25 36.71875 48.046875 36.921875 
Q 46.875 37.5 43.171875 50.984375 
Q 39.65625 64.265625 37.109375 68.5625 
Q 34.578125 72.859375 31.9375 69.625 
Q 29.296875 66.40625 25.59375 54.5 
Q 20.703125 38.28125 19.140625 37.109375 
Q 17.578125 36.140625 14.0625 50.390625 
Q 12.703125 56.453125 11.421875 60.453125 
Q 10.15625 64.453125 8.890625 66.796875 
Q 7.625 69.140625 6.34375 69.71875 
Q 5.078125 70.3125 3.515625 69.53125 
z
" id="subject6-119"/>
     <path d="M 7.03125 66.015625 
Q 5.671875 65.046875 5.671875 42.578125 
Q 5.671875 26.953125 6.25 23.734375 
Q 6.84375 20.515625 9.578125 20.515625 
Q 12.3125 20.515625 12.890625 23.25 
Q 13.484375 25.984375 13.484375 37.703125 
Q 13.484375 52.15625 15.921875 56.84375 
Q 18.359375 61.53125 25.78125 61.53125 
Q 31.25 61.53125 33.109375 56.546875 
Q 34.96875 51.5625 34.96875 37.3125 
Q 34.96875 25.390625 35.546875 22.953125 
Q 36.140625 20.515625 39.0625 20.515625 
Q 42 20.515625 42.484375 23.25 
Q 42.96875 25.984375 42.390625 39.84375 
Q 42 58.984375 38.09375 63.28125 
Q 34.96875 66.609375 28.515625 67.28125 
Q 22.078125 67.96875 17.1875 65.4375 
Q 13.484375 63.484375 13.484375 65.4375 
Q 13.484375 67 10.9375 67.28125 
Q 8.40625 67.578125 7.03125 66.015625 
z
" id="subject6-110"/>
     <path d="M 13.28125 86.140625 
Q 10.15625 82.03125 10.15625 76.765625 
Q 10.15625 71.6875 6.0625 69.34375 
L 1.953125 66.609375 
L 6.0625 63.875 
Q 8.796875 61.71875 9.46875 58 
Q 10.15625 54.296875 10.15625 40.4375 
Q 10.15625 34.375 10.25 30.5625 
Q 10.359375 26.765625 10.640625 24.421875 
Q 10.9375 22.078125 11.421875 21.1875 
Q 11.921875 20.3125 12.703125 20.515625 
Q 15.234375 21.484375 16.015625 40.828125 
Q 17 57.03125 18.359375 61.03125 
Q 19.734375 65.046875 24.03125 65.046875 
Q 25.59375 65.046875 26.375 65.625 
Q 27.15625 66.21875 26.765625 67 
Q 25.78125 68.953125 21.6875 68.953125 
Q 17.96875 68.953125 16.796875 71.484375 
Q 15.4375 75 18.0625 79.6875 
Q 20.703125 84.375 24.03125 84.96875 
Q 29.296875 85.546875 29.296875 87.890625 
Q 29.109375 90.234375 23.046875 90.4375 
Q 16.21875 90.4375 13.28125 86.140625 
z
" id="subject6-102"/>
     <path d="M 2.9375 67.578125 
Q 2.9375 65.828125 8.796875 56.25 
Q 14.65625 47.265625 14.65625 45.515625 
Q 14.65625 43.953125 7.8125 33.59375 
Q 0.390625 22.65625 1.5625 21.296875 
Q 2.15625 20.515625 4.5 20.515625 
Q 8.015625 20.515625 12.5 28.328125 
Q 16.609375 35.9375 18.5625 37.109375 
Q 19.34375 37.5 21.484375 35.34375 
Q 23.640625 33.203125 25.78125 29.5 
Q 28.125 25.59375 30.5625 23.046875 
Q 33.015625 20.515625 34.578125 20.515625 
Q 37.890625 20.515625 37.890625 22.265625 
Q 37.890625 24.8125 31.0625 35.359375 
L 24.03125 46.296875 
L 30.859375 56.25 
Q 38.09375 66.21875 36.921875 67.78125 
Q 33.59375 73.046875 26.375 61.53125 
Q 21.484375 53.71875 20.125 54.109375 
Q 18.953125 54.6875 14.265625 61.53125 
Q 9.578125 68.359375 5.28125 69.34375 
Q 2.9375 69.921875 2.9375 67.578125 
z
" id="subject6-120"/>
    </defs>
    <g transform="translate(7.2 26.64)scale(0.2 -0.2)">
     <use xlink:href="#subject6-84"/>
     <use x="48.828125" xlink:href="#subject6-104"/>
     <use x="97.265625" xlink:href="#subject6-101"/>
     <use x="142.96875" xlink:href="#subject6-32"/>
     <use x="167.96875" xlink:href="#subject6-113"/>
     <use x="216.601562" xlink:href="#subject6-117"/>
     <use x="264.257812" xlink:href="#subject6-105"/>
     <use x="282.8125" xlink:href="#subject6-99"/>
     <use x="319.53125" xlink:href="#subject6-107"/>
     <use x="362.5" xlink:href="#subject6-32"/>
     <use x="387.5" xlink:href="#subject6-98"/>
     <use x="435.546875" xlink:href="#subject6-114"/>
     <use x="464.84375" xlink:href="#subject6-111"/>
     <use x="512.5" xlink:href="#subject6-119"/>
     <use x="579.6875" xlink:href="#subject6-110"/>
     <use x="628.515625" xlink:href="#subject6-32"/>
     <use x="653.515625" xlink:href="#subject6-102"/>
     <use x="680.664062" xlink:href="#subject6-111"/>
     <use x="728.320312" xlink:href="#subject6-120"/>
    </g>
   </g>
  </g>
 </g>
</svg>
