<?xml version="1.0" encoding="utf-8" standalone="no"?>
<!DOCTYPE svg PUBLIC "-//W3C//DTD SVG 1.1//EN"
  "http://www.w3.org/Graphics/SVG/1.1/DTD/svg11.dtd">
<!-- Created with matplotlib (https://matplotlib.org/) -->
<svg height="25pt" version="1.1" viewBox="0 5 201.6 25" width="201.6pt" xmlns="http://www.w3.org/2000/svg" xmlns:xlink="http://www.w3.org/1999/xlink">
 <defs>
  <style type="text/css">
*{stroke-linecap:butt;stroke-linejoin:round;}
  </style>
 </defs>
 <g id="figure_1">
  <g id="patch_1">
  </g>
  <g id="axes_1">
   <g id="text_1">
    <!-- The quick brown fox -->
    <defs>
     <path d="M 3.90625 86.53125 
Q 0 82.421875 8.40625 81.84375 
L 11.328125 81.84375 
L 20.125 81.84375 
L 20.125 50.390625 
L 20.125 19.140625 
L 24.609375 19.734375 
Q 25.59375 19.921875 26.078125 20.015625 
Q 26.5625 20.125 27.140625 20.609375 
Q 27.734375 21.09375 27.921875 21.875 
Q 28.125 22.65625 28.421875 24.21875 
Q 28.71875 25.78125 28.8125 27.921875 
Q 28.90625 30.078125 29.09375 33.390625 
Q 29.296875 36.71875 29.296875 40.921875 
Q 29.296875 45.125 29.5 50.984375 
L 29.5 51.171875 
L 30.078125 81.84375 
L 38.875 81.84375 
Q 43.5625 81.84375 45.515625 82.421875 
Q 47.46875 83.015625 47.078125 84.375 
Q 46.296875 86.328125 26.078125 87.296875 
Q 5.859375 88.28125 3.90625 86.53125 
z
" id="subject1-84"/>
     <path d="M 5.859375 86.71875 
Q 4.6875 85.9375 5.46875 52.546875 
Q 5.859375 28.71875 6.546875 23.921875 
Q 7.234375 19.140625 9.765625 19.140625 
Q 12.5 19.140625 13.078125 21.875 
Q 13.671875 24.609375 13.671875 36.328125 
Q 13.671875 50.78125 16.109375 55.46875 
Q 18.5625 60.15625 25.984375 60.15625 
Q 31.453125 60.15625 33.296875 55.171875 
Q 35.15625 50.203125 35.15625 35.9375 
Q 35.15625 24.421875 35.734375 21.78125 
Q 36.328125 19.140625 39.0625 19.140625 
Q 41.796875 19.140625 42.375 21.78125 
Q 42.96875 24.421875 42.96875 36.71875 
Q 42.96875 53.90625 40.828125 58.984375 
Q 38.28125 64.265625 32.421875 66.015625 
Q 26.5625 67.78125 20.515625 65.046875 
L 13.875 62.3125 
L 13.28125 74.421875 
Q 12.703125 86.53125 9.765625 87.109375 
Q 6.453125 87.5 5.859375 86.71875 
z
" id="subject1-104"/>
     <path d="M 11.140625 61.53125 
Q 5.28125 56.25 3.90625 47.359375 
Q 2.546875 38.484375 6.15625 30.5625 
Q 9.765625 22.65625 16.796875 19.921875 
Q 21.296875 18.171875 29.109375 18.84375 
Q 36.921875 19.53125 39.0625 21.6875 
Q 42.1875 24.8125 39.265625 26.171875 
Q 37.109375 27.15625 33.40625 25.78125 
Q 27.34375 23.640625 21.96875 25.390625 
Q 16.609375 27.15625 14.0625 32.234375 
Q 10.9375 38.09375 12.703125 39.84375 
Q 14.0625 41.21875 27.9375 42 
L 41.609375 42.578125 
L 42.1875 49.03125 
Q 42.96875 55.28125 36.921875 61.140625 
Q 24.609375 73.4375 11.140625 61.53125 
z
M 31.25 57.8125 
Q 34.765625 54.6875 34.765625 50.984375 
Q 34.765625 48.828125 32.90625 48.140625 
Q 31.0625 47.46875 24.421875 47.46875 
Q 15.4375 47.46875 13.484375 48.640625 
Q 11.53125 49.8125 13.671875 54.109375 
Q 16.796875 59.96875 21.671875 61.03125 
Q 26.5625 62.109375 31.25 57.8125 
z
" id="subject1-101"/>
     <path id="subject1-32"/>
     <path d="M 11.53125 64.265625 
Q 6.640625 59.375 5.671875 52.546875 
Q 2.734375 37.109375 10.84375 27.25 
Q 18.953125 17.390625 30.671875 21.875 
Q 34.578125 23.25 35.25 22.359375 
Q 35.9375 21.484375 35.9375 14.65625 
Q 35.9375 7.421875 37.6875 4 
Q 39.453125 0.59375 42.578125 1.765625 
Q 44.921875 2.734375 44.4375 35.25 
Q 43.953125 67.78125 41.609375 68.75 
Q 39.65625 69.34375 37.703125 66.796875 
Q 36.140625 64.0625 33.59375 66.609375 
Q 30.46875 69.734375 22.953125 68.953125 
Q 15.4375 68.171875 11.53125 64.265625 
z
M 32.8125 59.96875 
Q 36.328125 56.453125 36.125 44.4375 
Q 35.9375 32.421875 32.234375 29.109375 
Q 28.90625 25.984375 23.734375 27.046875 
Q 18.5625 28.125 15.4375 32.421875 
Q 12.703125 36.53125 12.703125 44.140625 
Q 12.703125 51.765625 15.4375 57.234375 
Q 18.5625 63.09375 24.21875 63.09375 
Q 30.078125 63.09375 32.8125 59.96875 
z
" id="subject1-113"/>
     <path d="M 6.0625 65.4375 
Q 4.6875 61.71875 5.859375 45.5 
Q 7.03125 29.296875 8.984375 25.78125 
Q 11.140625 21.6875 16.40625 20.40625 
Q 21.6875 19.140625 28.328125 21.09375 
Q 35.359375 23.25 37.5 21.484375 
Q 41.40625 18.171875 42.390625 25.203125 
Q 43.171875 30.46875 42.78125 45.515625 
Q 42.390625 58.984375 41.609375 63.671875 
Q 40.828125 68.359375 39.265625 68.359375 
Q 36.71875 68.359375 35.640625 63.46875 
Q 34.578125 58.59375 34.1875 44.921875 
Q 33.796875 34.765625 32.90625 32.125 
Q 32.03125 29.5 28.328125 27.34375 
Q 21.09375 23.4375 18.546875 27.34375 
Q 16.015625 31.25 15.046875 48.046875 
Q 14.453125 60.15625 13.578125 63.859375 
Q 12.703125 67.578125 10.546875 67.96875 
Q 7.234375 68.75 6.0625 65.4375 
z
" id="subject1-117"/>
     <path d="M 4.890625 83.015625 
Q 5.671875 78.515625 8.40625 78.515625 
Q 11.140625 78.515625 11.921875 83.015625 
Q 12.3125 85.546875 11.53125 86.421875 
Q 10.75 87.3125 8.40625 87.3125 
Q 6.0625 87.3125 5.28125 86.421875 
Q 4.5 85.546875 4.890625 83.015625 
z
M 8.015625 66.40625 
Q 5.671875 65.828125 5.078125 61.71875 
Q 4.5 57.625 4.5 42.1875 
Q 4.5 25.78125 5.078125 22.359375 
Q 5.671875 18.953125 8.40625 18.953125 
Q 11.140625 18.953125 11.71875 22.46875 
Q 12.3125 25.984375 12.3125 43.359375 
Q 12.3125 67.578125 11.921875 67.578125 
Q 11.71875 67.578125 11.125 67.375 
Q 10.546875 67.1875 9.671875 66.890625 
Q 8.796875 66.609375 8.015625 66.40625 
z
" id="subject1-105"/>
     <path d="M 10.15625 62.703125 
Q 6.25 59.1875 4.984375 56.15625 
Q 3.71875 53.125 3.125 45.515625 
Q 2.546875 37.5 3.328125 34.5625 
Q 4.109375 31.640625 8.015625 27.34375 
Q 13.09375 21.6875 21.78125 19.921875 
Q 30.46875 18.171875 33.796875 22.078125 
Q 36.328125 25.203125 34.953125 27.25 
Q 33.59375 29.296875 30.078125 27.34375 
Q 22.265625 23.046875 15.4375 30.28125 
Q 8.984375 36.53125 10.734375 48.25 
Q 12.5 59.96875 19.921875 61.921875 
Q 24.609375 62.890625 28.71875 60.75 
Q 32.625 58.203125 34.46875 60.734375 
Q 36.328125 63.28125 32.625 66.015625 
Q 28.125 69.140625 21.671875 68.15625 
Q 15.234375 67.1875 10.15625 62.703125 
z
" id="subject1-99"/>
     <path d="M 5.078125 57.03125 
Q 5.46875 34.578125 6.046875 28.421875 
Q 6.640625 22.265625 8.59375 22.265625 
Q 11.53125 22.265625 12.109375 32.625 
Q 12.5 39.265625 13.859375 41.3125 
Q 15.234375 43.359375 17.875 41.5 
Q 20.515625 39.65625 25.59375 33.203125 
Q 36.328125 18.953125 40.234375 22.859375 
Q 42 24.609375 33.015625 35.9375 
Q 24.21875 47.265625 24.21875 49.796875 
Q 24.21875 52.34375 31.25 60.75 
Q 33.796875 63.671875 34.96875 65.140625 
Q 36.140625 66.609375 36.53125 67.671875 
Q 36.921875 68.75 36.421875 69.140625 
Q 35.9375 69.53125 34.765625 69.921875 
Q 31.0625 70.515625 23.25 61.53125 
Q 15.4375 52.546875 14.0625 52.546875 
Q 12.5 52.546875 12.5 72.078125 
Q 12.5 85.9375 11.90625 88.765625 
Q 11.328125 91.609375 8.59375 91.609375 
Q 5.671875 91.609375 5.171875 87.015625 
Q 4.6875 82.421875 5.078125 57.03125 
z
" id="subject1-107"/>
     <path d="M 5.078125 83.984375 
Q 6.25 80.46875 6.25 50.203125 
L 6.25 19.34375 
L 12.703125 19.140625 
Q 13.671875 19.140625 26.5625 18.5625 
Q 31.25 18.171875 33.6875 19.234375 
Q 36.140625 20.3125 39.65625 24.21875 
Q 43.359375 28.328125 44.328125 31.453125 
Q 45.3125 34.578125 45.3125 42.1875 
Q 45.3125 49.609375 44.328125 52.828125 
Q 43.359375 56.0625 39.84375 59.96875 
Q 31.453125 69.53125 18.5625 65.046875 
Q 15.234375 63.875 14.640625 65.328125 
Q 14.0625 66.796875 14.0625 75.203125 
Q 14.0625 83.796875 13.375 85.453125 
Q 12.703125 87.109375 8.984375 87.109375 
Q 6.0625 87.109375 5.171875 86.421875 
Q 4.296875 85.75 5.078125 83.984375 
z
M 32.625 56.84375 
Q 35.546875 54.109375 36.515625 51.171875 
Q 37.5 48.25 37.5 42.1875 
Q 37.5 30.28125 30.953125 25.484375 
Q 24.421875 20.703125 16.609375 26.953125 
Q 14.0625 29.109375 14.0625 42.390625 
Q 14.0625 50.984375 14.84375 53.8125 
Q 15.625 56.640625 18.359375 58.59375 
Q 22.859375 61.71875 25.6875 61.421875 
Q 28.515625 61.140625 32.625 56.84375 
z
" id="subject1-98"/>
     <path d="M 5.859375 66.21875 
Q 4.6875 59.375 4.6875 42.765625 
Q 4.6875 26.171875 5.265625 22.75 
Q 5.859375 19.34375 8.59375 19.34375 
Q 11.328125 19.34375 11.90625 21.6875 
Q 12.5 24.03125 12.5 33.59375 
Q 12.5 47.859375 14.0625 52.25 
Q 15.625 56.640625 21.484375 58.796875 
Q 28.125 61.328125 28.125 63.671875 
Q 28.125 65.4375 25.96875 65.921875 
Q 23.828125 66.40625 21 65.625 
Q 18.171875 64.84375 16.015625 62.890625 
Q 12.5 59.765625 12.5 62.890625 
Q 12.5 66.21875 8.59375 66.21875 
Q 5.859375 66.21875 4.6875 59.375 
z
" id="subject1-114"/>
     <path d="M 9.96875 60.75 
Q 2.546875 53.328125 2.640625 41.015625 
Q 2.734375 28.71875 10.15625 22.078125 
Q 14.453125 18.171875 23.828125 18.265625 
Q 33.203125 18.359375 37.3125 22.46875 
Q 44.140625 29.296875 43.84375 42.484375 
Q 43.5625 55.671875 36.328125 61.921875 
Q 30.671875 66.796875 23.046875 66.40625 
Q 15.4375 66.015625 9.96875 60.75 
z
M 32.625 55.46875 
Q 35.75 50.390625 35.75 41.796875 
Q 35.75 29.6875 29.296875 24.90625 
Q 22.859375 20.125 15.828125 27.15625 
Q 11.71875 31.25 11.421875 40.625 
Q 11.140625 50 15.046875 56.0625 
Q 17.96875 60.546875 23.734375 60.453125 
Q 29.5 60.359375 32.625 55.46875 
z
" id="subject1-111"/>
     <path d="M 24.609375 51.375 
Q 19.734375 34.765625 17.96875 34.765625 
Q 16.21875 34.765625 14.84375 40.234375 
Q 11.140625 55.46875 8.890625 60.734375 
Q 6.640625 66.015625 3.90625 66.015625 
Q 0.203125 66.015625 0.203125 64.84375 
Q 0.203125 63.484375 7.234375 41.40625 
Q 9.578125 33.796875 11.234375 29.296875 
Q 12.890625 24.8125 14.453125 22.078125 
Q 16.015625 19.34375 17.28125 19.140625 
Q 18.5625 18.953125 20.125 21 
Q 21.6875 23.046875 23.140625 26.859375 
Q 24.609375 30.671875 26.765625 37.3125 
L 32.8125 55.28125 
L 38.28125 37.109375 
Q 41.796875 25.390625 43.453125 22.265625 
Q 45.125 19.140625 47.65625 19.53125 
Q 49.8125 19.734375 51.953125 24.21875 
Q 54.109375 28.71875 58.015625 41.609375 
Q 64.453125 63.671875 63.671875 65.4375 
Q 62.109375 69.921875 58.796875 65.046875 
Q 56.640625 61.921875 55.28125 56.640625 
Q 51.171875 41.40625 50.78125 40.046875 
Q 50.390625 38.09375 49.703125 36.53125 
Q 49.03125 34.96875 48.34375 34.1875 
Q 47.65625 33.40625 47.265625 33.59375 
Q 45.703125 34.765625 42.1875 47.859375 
Q 38.671875 61.328125 36.125 65.625 
Q 33.59375 69.921875 30.953125 66.59375 
Q 28.328125 63.28125 24.609375 51.375 
z
" id="subject1-119"/>
     <path d="M 5.859375 66.21875 
Q 4.6875 59.375 4.6875 42.765625 
Q 4.6875 26.171875 5.265625 22.75 
Q 5.859375 19.34375 8.59375 19.34375 
Q 11.328125 19.34375 11.90625 22.078125 
Q 12.5 24.8125 12.5 36.53125 
Q 12.5 50.984375 14.9375 55.671875 
Q 17.390625 60.359375 24.8125 60.359375 
Q 30.28125 60.359375 32.125 55.375 
Q 33.984375 50.390625 33.984375 36.140625 
Q 33.984375 24.609375 34.5625 21.96875 
Q 35.15625 19.34375 37.890625 19.34375 
Q 40.625 19.34375 41.203125 21.96875 
Q 41.796875 24.609375 41.796875 37.109375 
Q 41.796875 60.359375 35.15625 64.65625 
Q 32.8125 66.21875 26.171875 66.109375 
Q 19.53125 66.015625 16.21875 64.265625 
Q 12.5 62.3125 12.5 64.265625 
Q 12.5 66.21875 8.59375 66.21875 
Q 5.859375 66.21875 4.6875 59.375 
z
" id="subject1-110"/>
     <path d="M 12.703125 85.15625 
Q 9.578125 81.0625 9.578125 76.171875 
Q 9.578125 71.484375 5.28125 67.96875 
L 0.984375 64.65625 
L 5.28125 62.3125 
Q 8.203125 60.75 8.890625 57.234375 
Q 9.578125 53.71875 9.578125 39.65625 
Q 9.578125 19.140625 11.140625 19.140625 
Q 17.578125 19.140625 16.015625 33.796875 
Q 15.046875 43.359375 16.21875 53.125 
Q 17 58.59375 18.265625 60.546875 
Q 19.53125 62.5 22.46875 63.28125 
Q 26.375 64.265625 25.984375 66.109375 
Q 25.59375 67.96875 21.296875 67.96875 
Q 16.609375 67.96875 16.40625 73.25 
Q 16.21875 79.109375 20.703125 82.03125 
Q 22.265625 83.015625 23.828125 83.203125 
Q 29.296875 83.796875 29.296875 86.328125 
Q 28.328125 89.265625 22.46875 89.453125 
Q 15.828125 89.453125 12.703125 85.15625 
z
" id="subject1-102"/>
     <path d="M 2.9375 66.015625 
Q 2.9375 64.265625 8.796875 54.6875 
Q 14.65625 45.3125 14.65625 43.5625 
Q 14.65625 42 7.8125 32.625 
Q 0 21.484375 1.765625 19.734375 
Q 2.546875 19.140625 4.5 19.140625 
Q 7.625 19.140625 13.484375 28.328125 
L 18.953125 37.703125 
L 23.640625 31.84375 
Q 28.515625 25.390625 29.5 22.65625 
Q 30.46875 19.140625 35.359375 19.140625 
L 40.4375 19.140625 
L 35.9375 26.5625 
Q 33.015625 31.453125 27.9375 39.0625 
L 24.21875 44.34375 
L 31.0625 54.6875 
Q 38.09375 64.84375 35.9375 67 
Q 33.015625 69.921875 22.859375 55.078125 
Q 21.875 53.515625 21.484375 53.03125 
Q 21.09375 52.546875 20.5 52.546875 
Q 19.921875 52.546875 19.53125 53.03125 
Q 19.140625 53.515625 17.96875 55.078125 
Q 9.375 67.96875 5.671875 67.96875 
Q 2.9375 67.96875 2.9375 66.015625 
z
" id="subject1-120"/>
    </defs>
    <g transform="translate(7.2 26.64)scale(0.2 -0.2)">
     <use xlink:href="#subject1-84"/>
     <use x="47.460938" xlink:href="#subject1-104"/>
     <use x="95.117188" xlink:href="#subject1-101"/>
     <use x="140.625" xlink:href="#subject1-32"/>
     <use x="164.0625" xlink:href="#subject1-113"/>
     <use x="213.476562" xlink:href="#subject1-117"/>
     <use x="261.132812" xlink:href="#subject1-105"/>
     <use x="277.734375" xlink:href="#subject1-99"/>
     <use x="315.429688" xlink:href="#subject1-107"/>
     <use x="356.640625" xlink:href="#subject1-32"/>
     <use x="380.078125" xlink:href="#subject1-98"/>
     <use x="428.125" xlink:href="#subject1-114"/>
     <use x="455.664062" xlink:href="#subject1-111"/>
     <use x="502.734375" xlink:href="#subject1-119"/>
     <use x="567.382812" xlink:href="#subject1-110"/>
     <use x="613.867188" xlink:href="#subject1-32"/>
     <use x="637.304688" xlink:href="#subject1-102"/>
     <use x="664.0625" xlink:href="#subject1-111"/>
     <use x="711.132812" xlink:href="#subject1-120"/>
    </g>
   </g>
  </g>
 </g>
</svg>
